<svg xmlns="http://www.w3.org/2000/svg" viewBox="354.3 273.5 144.6 173.2" role="img" aria-label="Carte de l Europe par pays">
    <path id="france" data-name="France" d="M412.973,393.588l-1.91,0.467l-3.82,4.158l-1.149,0.078l-1.53-1.081l-0.993,0.233l-0.762,2.386l-5.584,0.155l0.156,1.236l3.82,2.543l4.435,3.543l-0.077,4.236l-2.368,4.157l5.126,2.464l5.204,0.154l1.606-1.85l3.286,0.078l0.916,0.848l3.285-0.233l1.686-2.162l-2.145-2.541l-0.155-1.616l0.458-1.771l-1.071-1.539l-1.833,0.535l-0.232-1.383l4.054-4.469v-2.697l-2.348-0.767l-1.432-0.987L412.973,393.588L412.973,393.588z M428.039,418.016l-1.687,1.695l-0.154,1.538l1.374,0.847l0.536-0.076l0.303-2.24L428.039,418.016L428.039,418.016z" />
    <path id="espagne" data-name="Espagne" d="M402.565,416.322h-11.014l-2.222-1.004l-1.071,0.078l-1.297,2.696l0.458,2.775l4.21,0.389l0.536,1.771l-1.833,10.33l0.078,1.851l2.981,1.617l3.439,0.232l6.881-1.694l3.363-4.233l0.077-4.313l5.965-5.395l0.302-2.386l-5.428-0.078L402.565,416.322L402.565,416.322z M413.578,426.877l-1.375,0.467l0.304,1.235h1.988l0.839-0.925L413.578,426.877L413.578,426.877z" />
    <path id="portugal" data-name="Portugal" d="M387.499,421.716l-0.536,7.478l-1.53,1.384l0.156,0.846l1.071,1.772l-0.691,2.16l1.149,0.39l2.68-0.312l-0.155-2.16l1.756-10.02l-0.382-1.383L387.499,421.716L387.499,421.716z" />
    <path id="italie" data-name="Italie" d="M423.233,409.391l-0.535,1.356l0.146,1.478l2.065,2.412l3.25-0.113l7.175,8.334l4.479,1.297l2.646,2.498l0.631,5.695l1.417-0.828l1.229-3.104l-0.303-2.229l2.101-0.19l0.304-1.263l-5.922-2.834l-5.619-5.523l-2.238-3.303l-0.545-3.137l2.861-0.684l-0.734-2.066l-1.755-1.478l-1.513-0.069l-2.108,0.58l-1.99,2.781l-1.201,0.795l-1.858-1.141L423.233,409.391L423.233,409.391z M440.668,431.898l-1.253-0.674l-4.278,0.674l0.146,1.158l3.847,1.937l0.579,0.631l1.012,0.147L440.668,431.898L440.668,431.898z M427.806,423.566l-2.289,1.158l0.303,4.469l1.833,0.311l1.374-1.312v-4.235L427.806,423.566L427.806,423.566z" />
    <path id="allemagne" data-name="Allemagne" d="M422.257,384.234l3.086-0.5v-2.178l2.584-0.425l1.418,1.427l1.495,0.164l2.334-1.012l2.083,0.588l1.832,1.592l0.251,5.955l1.832,2.438l-2.411,0.337l-4.003,2.515l0.338,0.839l3.579,3.354l-0.251,1.677l-3.328,1.677l-3.085,0.086l-0.753,1.59h-1.581l-0.752-1.676l-2.749-0.675l-0.088-2.767l-1.39-0.77l0.114-1.861l-0.406-1.328l-1.982-1.824l0.414-2.854l2.161-1.011L422.257,384.234L422.257,384.234z" />
    <path id="royaume-uni" data-name="Royaume-Uni" d="M400.629,367.984l-1.582,2.395l0.631,0.959h3.648v1.6l-0.952,1.278l0.632,3.354l2.058,3.994l1.581,3.672l2.533,0.959l1.105,1.92l-0.155,1.755l-1.582,0.959l-0.156,0.795l1.106,0.64l-0.951,1.279l-2.221,0.959l-4.279-0.477l-6.664,3.035l-2.221-1.115l6.345-3.674l-0.796-0.477l-3.328-0.32l2.058-3.033l0.319-2.56l2.696-0.319l-0.475-4.953l-3.174-0.155l-0.95-1.115l0.155-3.674l-1.901,0.156l1.901-6.388l3.492-2.56L400.629,367.984L400.629,367.984z M393.974,378.693l-2.853,0.32l-0.156,2.56l1.901,1.278l2.058-0.475l0.796-1.436L393.974,378.693L393.974,378.693z" />
    <path id="irlande" data-name="Irlande" d="M394.915,383.085l-0.786,5.187l-6.975,2.56h-2.223l-1.582-1.115v-0.96l3.492-2.238l-0.951-1.92l0.156-2.714l3.018,0.155l1.383-3.25l-0.183,2.887l2.344,1.858L394.915,383.085L394.915,383.085z" />
    <path id="belgique" data-name="Belgique" d="M414.019,391.704l-0.554,1.383l5.947,3.925l0.4,0.051l0.375-1.094l0.837-0.588l-1.336-1.499h-0.916l-1.255-1.426L414.019,391.704L414.019,391.704z" />
    <path id="pays-bas" data-name="Pays-Bas" d="M421.349,384.572l-3.915,1.928l0.829,0.752l0.088,1.928l-0.829-0.164l-0.917-1.426l-2.188,3.467l3.363,0.699l1.253,1.323l0.666,0.017l0.44-2.99l2.117-0.891L421.349,384.572L421.349,384.572z" />
    <path id="luxembourg" data-name="Luxembourg" d="M420.424,397.582l0.76,0.679l0.88,0.083l0.194-1.734l-0.253-0.974l-1.224,0.583L420.424,397.582z" />
    <path id="suisse" data-name="Suisse" d="M423.787,402.82l-3.771,4.011l0.078,0.405l1.547-0.483l1.393,1.937l2.352-0.83l1.625,1.263l0.667-0.38l2.005-3.146l-0.511-0.484l-1.979-0.051l-0.959-1.963L423.787,402.82L423.787,402.82z" />
    <path id="autriche" data-name="Autriche" d="M430.46,403.459l-0.562,1.167l0.483,0.83l2.015-0.415h1.711l1.857,1.572l3.95-0.717l2.904-1.729l0.743-1.167l-0.112-1.504l-2.611-1.954l-3.501,0.035l-0.294,1.988l-3.683,1.797L430.46,403.459L430.46,403.459z" />
    <path id="pologne" data-name="Pologne" d="M457.109,390.184l0.733,1.348l0.174,1.435l-0.604,1.392l-1.383,2.664l-1.167,0.526l-1.514-0.657l-0.908,0.043l-2.204,0.83l-2.506-0.742l-4.062-2.879l-3.978-2.135l-1.6-2.438l-0.303-5.75l3.112-2.705l4.062-1.35l1.328-0.138l0.315,1.007l1.725,0.692l4.766,0.09l1.47-0.043l2.421,3.708l-0.604,1.521l0.259,1.789L457.109,390.184L457.109,390.184z" />
    <path id="republique-tcheque" data-name="République tchèque" d="M437.202,398.921h2.567h1.263l2.049,1.461l3.795-3.155l-3.683-2.627l-3.648-1.765l-2.498,0.45l-3.389,2.178L437.202,398.921L437.202,398.921z" />
    <path id="slovaquie" data-name="Slovaquie" d="M443.607,400.875l0.597,0.527l0.077,0.898l6.596-0.146l4.875-2.102l-0.077-2.135l-0.934,0.415l-1.34-0.718l-0.821-0.035l-2.161,0.865l-2.938-0.709L443.607,400.875L443.607,400.875z" />
    <path id="hongrie" data-name="Hongrie" d="M444.386,403.01l-1.003,1.573l0.078,2.403l1.599,0.82l4.919,0.147l6.854-5.774l0.034-1.279l-0.742-0.371l-4.953,2.248L444.386,403.01L444.386,403.01z" />
    <path id="roumanie" data-name="Roumanie" d="M457.731,401.281l-0.226,1.279l-5.005,4.166l4.184,6.137l2.682,1.877h4.823l1.591-1.331l2.135-0.276l1.591,0.959l2.818-3.207l-0.545-1.607l-2.861-0.734l-1.953-0.095l0.094-2.749l-2.593-4.08L457.731,401.281L457.731,401.281z" />
    <path id="bulgarie" data-name="Bulgarie" d="M457.092,414.066l0.139,4.305l1.452,3.025l5.454,0.095l2.455-1.737l2.412-0.959l-0.588-2.75l0.545-1.469l-1.228-0.641l-1.687,0.139l-1.323,1.332l-5.549,0.043L457.092,414.066L457.092,414.066z" />
    <path id="grece" data-name="Grèce" d="M453.004,427.213l-0.096,1.15l4.003,2.014l1.911,0.734l-1.003,1.055l-2.23,0.227l-0.319,1.01l0.771,1.738l2.498,1.33l1.09,0.096l0.138-2.981l1.635-1.972l-4.46-5.272l0.589-1.789l1.046-0.043l1.591,1.279l1.002-0.501l0.319-1.79l3.732,0.534l1.134-3.239l-1.953,1.375l-5.731-0.14l-3.726,1.929L453.004,427.213L453.004,427.213z M461.69,438.442l1.408,0.043l0.589,0.873h2.05l1.363-0.501l0.459,0.553l-0.907,1.192l-4.002,0.139l-0.728-0.959l-0.77-0.458L461.69,438.442L461.69,438.442z" />
    <path id="suede" data-name="Suède" d="M445.232,329.52l1.693,1.563h3.173l1.746,3.354l0.477,5.748l-4.278,3.035v3.033l-3.017,4.158l-1.746,0.154l-2.378,3.994l0.155,3.838l4.124,3.035l-0.319,1.754l-1.582,2.396l-2.377,2.074l0.155,6.872l-3.647,1.279l-1.271,2.713h-1.747l-0.949-4.789l-3.969-6.084l3.26-5.455l0.225-13.477l2.248-1.236l0.545-7.709l6.405-9.172L445.232,329.52L445.232,329.52z M445.898,368.927l-1.824,1.443l0.917,2.118l1.616-1.573L445.898,368.927L445.898,368.927z" />
    <path id="norvege" data-name="Norvège" d="M460.567,327.409l1.747-1.279l-0.157-1.435l-1.106-0.641l0.157-1.754h0.95v-0.96l-4.123-1.114l-6.181,0.64l-0.631,2.714l-1.428-0.477l-0.951-1.599l-3.017,0.155l-0.32,3.033l-1.426,0.641l-0.795-1.6l-6.345,5.109l1.271,1.436l-2.378,1.115l-5.393,10.701l-1.901,1.279l0.155,0.959l1.9,0.959l-0.475,2.074l-3.173-0.164l-0.952-1.115l-2.057,2.395l-1.271,0.959l-0.32,2.24l-1.105,0.64l-2.854,0.64l-1.426,4.479l0.951,7.348l1.106,3.354l1.271,1.279l2.853-0.156l4.124-3.994l1.581-2.713l0.478,3.992l2.697-4.789l0.154-13.424l2.195-1.383l0.657-7.408l6.655-9.586l3.173-1.115l1.427-1.755l4.754,1.115l2.377,1.435l0.796-3.992l3.968-2.396L460.567,327.409L460.567,327.409z M437.056,285.762l-1.426-1.435l-3.164,1.539h-5.809l-0.917,3.389l3.26,2.878l1.425-0.208l2.04-3.491l1.729,1.235l-1.229,2.464l-0.614,3.596l1.427,2.256l3.06-5.135l3.979-4.832l-1.531-1.33L437.056,285.762L437.056,285.762z M438.784,279.6l-2.55,2.359l1.529,2.359h2.749l1.124,1.539l3.363,1.746l3.871-2.256l2.654-2.256l-0.916-1.85l-2.654-1.539l-1.938,1.746l-1.321-1.644l-1.021,0.104l-1.322,2.878l-1.936-1.954l-0.208-1.331L438.784,279.6L438.784,279.6z M444.593,290.179l-2.04,1.851l-1.729,1.332l0.812,1.435l1.636,0.511l2.652-1.236l1.229-1.539l-1.124-1.85L444.593,290.179L444.593,290.179z" />
    <path id="finlande" data-name="Finlande" d="M453.072,340.202l1.79,0.786l1.104,2.074l-1.104,1.436l-5.55,6.068l-0.952,3.199l1.271,4.633l4.278,3.199l5.706-2.715l4.598-0.64l4.279-6.872l-3.173-7.512l-3.018-7.192l0.477-4.633l-1.901-0.32l-0.492-3.38l-2.559-4.175l-2.836,1.962l-1.114,4.556l-3.008-1.807l-4.185-1.021l-0.934,1.09l1.607,1.453l2.931-0.053l2.359,3.812L453.072,340.202L453.072,340.202z" />
    <path id="danemark" data-name="Danemark" d="M427.123,370.076l-3.586,3.968l-0.13,2.584l1.635,4.263l2.559-0.484l-0.319-3.483l1.764-1.971l-0.034-1.548l-1.245-3.223L427.123,370.076L427.123,370.076z M428.979,377.354l-1.062,0.229v1.583l1.128,0.875l0.997-0.25l-0.243-1.503L428.979,377.354z M432.306,375.848l-0.949,0.23l-1.056,0.968l0.448,1.954l1.292,0.507l-1.334,0.535l-0.255,0.685h2.005l0.602-1.099l-0.768-0.378l0.25-0.962l0.916-1.205l-0.25-1.042L432.306,375.848z" />
    <path id="islande" data-name="Islande" d="M366.261,340.521l-1.693-0.959l-2.283,1.443l-1.962,1.814l0.052,1.013l2.541,0.319l-0.156,1.815l-0.898,0.908l0.217,0.588l2.541,0.164v2.938l3.656,0.641l2.17,1.229l2.437,0.104l4.186-2.083l3.231-4.271l0.053-2.887l-1.963-1.66l-1.642-1.392l-0.743,0.536l-1.115,1.443l-1.271-0.164l-1.271-1.393l-1.642,0.156l-2.386,1.979l-1.437,1.547l-0.795-0.69l-0.053-1.712l0.795-0.536L366.261,340.521L366.261,340.521z" />
    <path id="ukraine" data-name="Ukraine" d="M460.662,388.791l-2.507,1.409l0.622,2.663l-2.316,4.884l0.02,2.151l1.089,0.691l6.983,0.346l1.954-1.615l2.092,0.699l2.999,4.002l-2.194,3.942l2.61,0.761l3.414-3.933l1.954,0.354l1.815,1.262l-1.601,2.109l2.161,3.371h2.299l1.185-2.248l2.438-0.494l0.069-1.823l-4.529-0.7l0.14-1.963h4.391l4.737-3.794l2.092-1.824l0.345-5.757l-9.336-0.838l-3.829-5.402l-2.646-0.908l-3.207,0.139l-1.443,3.569l-6.57,0.087l-2.135-0.986L460.662,388.791L460.662,388.791z" />
    <path id="bielorussie" data-name="Biélorussie" d="M456.418,382.861l1.297,2.135l-0.519,1.703l0.086,1.349l0.476,1.616l2.68-1.521l3.329,0.086l2.334,0.959h5.922l1.729-4.141l1.037-1.564v-1.045l-3.717-5.23l-3.285-1.305l-2.68-0.303l-2.335,0.743l0.088,2.351l-3.241,4.098L456.418,382.861L456.418,382.861z" />
    <path id="lituanie" data-name="Lituanie" d="M452.14,375.236l-2.146,0.363l0.173,2.025l3.355,0.25l1.27,1.042l0.333,1.81l1.034,1.443l3.069-0.13l2.938-3.743l-0.172-2.222l-5.533-0.867L452.14,375.236z" />
    <path id="lettonie" data-name="Lettonie" d="M462.823,369.964l-6.362-1.037l-1.086,2.823l-1.833,0.548l-0.959-1.173l-0.962-1.811l-1.038,0.762l-0.589,3.132v1.708l2.242-0.375l4.665,0.083l5.617,1.044l2.249-0.657l-0.13-2.524L462.823,369.964L462.823,369.964z" />
    <path id="estonie" data-name="Estonie" d="M462.562,363.299l-4.84-0.173l-3.068,1.875l-0.043,1.392l1.987,1.875l6.182,1.047L462.562,363.299L462.562,363.299z M452.236,364.042l-1.308,0.44l1.308,0.226l0.595,0.69l0.711-0.852l-0.709-1.215L452.236,364.042z M452.792,365.792l-1.862,0.833l-0.643,1.111l0.643,0.722l2.362-0.875l1.137-0.752L452.792,365.792z" />
    <path id="croatie" data-name="Croatie" d="M443.417,407.816l-3.051,2.515h-3.095l-0.372,2.178l1.418,0.372l0.709-1.055l1.114,0.977l0.891,3.112l6.109,2.853l0.605-0.691l-6.197-6.396l0.631-1.166l5.888-0.226l0.596-1.876l-3.838,0.111L443.417,407.816L443.417,407.816z" />
    <path id="serbie" data-name="Serbie" d="M452.001,407.279l-1.772,1.332h-0.863l-0.588,1.832l2.092,2.43l0.139,1.928l-0.882,1.246l3.068,3.197l3.317-1.012l-0.274-4.721L452.001,407.279L452.001,407.279z" />
    <path id="slovenie" data-name="Slovénie" d="M442.708,405.076l-2.195,1.314l-4.097,0.898l0.82,2.368l2.87,0.034l2.646-2.213L442.708,405.076L442.708,405.076z" />
    <path id="bosnie-herzegovine" data-name="Bosnie-Herzégovine" d="M442.708,411.084l-0.319,0.527l5.801,5.981l2.127-3.13l-0.078-1.234l-1.857-2.256L442.708,411.084L442.708,411.084z" />
    <path id="albanie" data-name="Albanie" d="M450.679,420.438v3.984l1.142,2.152l0.82-0.096l1.409-2.566l-0.821-1.15l-0.319-2.844l-1.089-1.012L450.679,420.438L450.679,420.438z" />
    <path id="macedoine-du-nord" data-name="Macédoine du Nord" d="M456.643,418.924l-2.912,0.959l0.139,2.473l0.683,0.873l3.458-1.606L456.643,418.924L456.643,418.924z" />
    <path id="montenegro" data-name="Monténégro" d="M449.68,416.677l-1.266,1.789l0.362,1.099l1.504,0.275l1.184-1.607L449.68,416.677z" />
    <path id="moldavie" data-name="Moldavie" d="M465.14,401.376l2.681,4.123l-0.226,2.334l0.96,0.043l2.272-3.847l-2.731-3.389L466.549,400L465.14,401.376L465.14,401.376z" />
</svg>
