<svg xmlns="http://www.w3.org/2000/svg" viewBox="105 18 568 567" role="img" aria-label="Carte des régions de France"><path id="bretagne" data-name="Bretagne" d="M208.7 188.9 l l -4.9 7.1 -2.9 1.1 -1.5 -2.7 -3.5 -0.9 -6.2 7.5 -1.8 -6 -3 0.9 -12.9 -6.5 -7.9 3 -12.5 -3.3 2.1 -4.1 -2.5 -9.3 2.5 -8.3 -3.6 -4.7 1.1 -4.3 1.2 1.4 3.2 -0.4 1.1 -7.7 1.5 -1.6 2.2 -0.6 1.9 1.4 h 2.5 l 2.1 -1 2.2 0.3 1.5 -1.8 0.9 2 -1.5 2.6 3 -3.6 2.9 -0.8 -0.1 2.3 -1.2 4.4 1.7 -3.1 2.6 -0.5 -1.1 2 7.2 7.8 2.2 5.4 3 2 0.8 3.7 0.7 -2.2 3 -1 2.4 -2.7 8.1 -3.3 2.7 -0.2 -2 2.5 2.9 -1.1 1.8 4.4 1.3 -1.9 2.5 0.2 v -0.1 l 1.6 4 h -0.3 0.3 l 2.5 0.3 0.7 0.2 0.4 1.7 -1.9 13 z M151.6 210.1 l l 2 3.4 -0.8 1.4 -5.5 -1.2 -1.2 -1.9 2.2 -0.7 -3 0.8 -0.3 -2.7 v 2.7 l -2.5 0.7 -2.2 -1 -4.2 -6.1 -0.8 2.5 -2.3 0.2 -3.5 -3.1 1.6 -4.6 -2.4 4.3 1.3 1.9 -2.2 1 -1 2.8 -5.9 -0.2 -2.1 -1.6 1.5 -1.6 -1.5 -5.5 -2.4 -3.1 -2.8 -1.8 1.6 -1.7 -2.1 1.4 -7.5 -2.2 2.2 -1.3 12.5 -1.8 1.8 1.8 2 -1.3 0.7 -2.5 -1.6 -3.6 -6.8 -2.5 -1.5 2.6 -2.6 -4.2 1.3 -1.8 -0.3 -2.2 1.7 2.3 4.9 1 4.6 -0.8 2.1 3.1 5.4 1 -3.7 -0.9 -2.8 -2 2.2 -0.5 -4.2 -2 2 -1.5 -2.6 -0.2 -2.7 0.8 -0.8 -2.2 7.1 -4.5 -4.4 2.2 -2.3 0.1 -7.5 2.9 -2.7 -1.2 -2.7 1.2 -1.5 -1.8 0.6 -5.3 2.5 -1.6 -2.2 -0.9 0.8 -2.6 1.8 -1.6 2.1 -0.8 5.1 1.5 -1.9 -1.1 2.5 -1.2 1.6 1.4 -1.9 -1.7 1.2 -1.9 2.9 -0.1 3.8 -2 2.3 2.6 6.7 -3.1 3 1.6 1 -2.2 2.9 -0.5 0.4 5 2.2 -1.5 1.3 2.5 1.2 -4.5 4.7 0.3 1.2 1.7 -1.1 4.3 3.6 4.7 -2.5 8.3 2.5 9.3 -2.1 4.1 v 0.1 l -6.8 3.2 0.5 3.5 3.4 5.5 8.1 1.3 0.1 5.4 -2.5 2.8 z M255.2 207.2 l l -5.5 2.2 -3.6 8.6 -0.4 2.2 -6.8 -3.6 -9 3.9 -1.6 2.9 -13.2 0.4 -5.2 3.4 -1 -5.8 3 -0.7 -2.8 -1.5 2.4 -2.2 1 -3.2 -2.4 -1.7 1.6 -2.6 -1.2 -2.5 -5.1 -2.8 -0.5 -2.8 3.5 -0.9 -3.6 -0.1 -1 -4.4 4.9 -7.1 9 -2.5 1.9 -13 -0.4 -1.7 -0.7 -0.2 -2.5 -0.3 -1.6 -4 0.1 -0.8 v -0.9 l 0.7 -0.1 h 2.1 v 0.1 l 1.7 4.4 1.3 2 -0.5 2.1 1.4 -2.1 -2.3 -5.1 0.7 -2.5 2.2 -1.5 2.3 -0.6 2.2 1 -1.5 2.3 2.9 2.4 7.3 -0.6 4.7 9.6 2.7 1 7.1 -4.8 5.4 2.3 -0.1 12.1 -1.5 2.4 z M167.7 242.6 l l 2.9 1.2 -1.1 2.1 -5.1 -1.2 -1.3 -2.7 0.4 -3 2.1 1.4 z M207 217 l l 2.4 -2.2 1 -3.2 -2.4 -1.7 1.6 -2.6 -1.2 -2.5 -5.1 -2.8 -0.5 -2.8 3.5 -0.9 -3.6 -0.1 -1 -4.4 -2.9 1.1 -1.5 -2.7 -3.5 -0.9 -6.2 7.5 -1.8 -6 -3 0.9 -12.9 -6.5 -7.9 3 -12.5 -3.3 v 0.1 l -6.8 3.2 0.5 3.5 3.4 5.5 8.1 1.3 0.1 5.4 -2.5 2.8 -2.8 -0.8 2 3.4 0.1 1.5 2.9 4.4 2.3 -0.2 1.5 -1.7 -0.8 -5.1 0.6 2.4 1.7 1.7 1.9 -1.7 -2.5 4.2 2.2 1.4 -2.3 -0.6 3.2 1.9 0.1 0.1 1.6 1 1.7 -2.5 -1.6 3.1 2.1 2.6 0.6 3.5 -0.9 2.8 2.1 1.1 -1.2 -3 0.5 -3.8 2.2 1.6 5.1 0.1 -0.7 -5 1.4 2 2.1 1.5 4.8 -0.5 2.1 2.4 -1 2.2 -2.1 -0.6 -4.8 0.4 3.8 3.3 12.9 -0.9 3.1 1.5 -3.4 0.1 1.4 2.4 13.2 -3.9 0.4 -6 -1 -5.8 3 -0.7 z"/><path id="normandie" data-name="Normandie" d="M316.9 148 l l -0.7 2.2 -5.6 -1 -7 1.7 -7.2 5.4 -2.9 0.3 -5.7 -1.1 -2.6 1.7 -4.9 -3 -6.4 2.3 -2.7 -1.3 -0.9 2.7 -5.4 2.9 -9.7 -2.1 -1.8 -2.4 4.5 -5.3 -1.6 -2.3 8.1 -4.9 -2.2 -8.2 2 -2.6 -8.4 -3.1 -0.5 -6.6 v -0.1 l 0.1 -0.7 1.8 0.8 1.9 -2.1 3.4 -0.3 9.4 3.3 13.9 1.5 6.9 3.4 5.7 -0.7 4.7 -2.5 4.1 -3.7 5.1 -1.1 0.3 8.3 h 2.9 l -2.3 2.1 2.8 9.4 -1.4 3 z M316.4 153.4 l l -0.2 -3.2 0.7 -2.2 -2.3 -4.1 1.4 -3 -2.8 -9.4 2.3 -2.1 h -2.9 l -0.3 -8.3 1.7 -0.4 0.3 -0.1 h 1.5 l -0.9 -0.2 0.8 -0.3 -1.3 -0.3 5.9 -2.4 7.6 5 3.4 -0.7 4.9 3 -1.9 2.4 2.1 2.1 5.4 2.4 1.4 -2.7 8.2 -2.5 4.8 -7 13.1 3.3 3.5 8.4 -4 2.6 -4 9.5 -3.8 -0.1 -2.3 2.6 1.8 5.8 -6 6.9 0.2 2.8 -6 1.3 -2.8 -1.6 -5.3 3.2 -6 1.1 -2.4 2.6 -3.4 -2.1 1.7 -2.3 -7.8 -9.5 z M255.2 158.7 l l 9.7 2.1 4.1 4.2 -1.8 6.7 -3.6 4.5 h -0.1 l -8.6 -0.8 -5.4 -2.3 -7.1 4.8 -2.7 -1 -4.7 -9.6 1.9 -0.2 4.8 0.4 2.5 -1.1 0.5 -2.2 -2.4 1.3 -5.1 -5.6 -0.3 -5.3 2 -6.1 -0.3 -4.9 -1.8 -3.6 0.4 -7.4 1.5 -2 -2.5 0.3 -2 -5 0.3 -2.2 -2.4 -1.2 -2.9 -4.1 -0.7 -5.9 -1.4 -1.9 1.8 -1.8 0.1 -2.8 -0.5 -2.3 -2.2 -1.1 -1 -2.5 2.1 -0.2 11.9 4.2 h 2.4 l 4 -2.6 5.1 0.6 1.8 1.7 0.9 2.7 -3.2 5.2 4 6.5 1.1 4.3 -0.1 0.7 v 0.1 l 0.5 6.6 8.4 3.1 -2 2.6 2.2 8.2 -8.1 4.9 1.6 2.3 -4.5 5.3 z M266.9 179.9 l l -3.3 -3.7 3.6 -4.5 1.8 -6.7 -4.1 -4.2 5.4 -2.9 0.9 -2.7 2.7 1.3 6.4 -2.3 4.9 3 2.6 -1.7 5.7 1.1 2.9 -0.3 7.2 -5.4 7 -1.7 5.6 1 0.2 3.2 6.3 0.5 7.8 9.5 -1.7 2.3 3.4 2.1 0.1 3.2 4.8 4.4 -0.2 4.5 0.5 4.6 -7.5 5.1 1.1 7.5 -3.2 -0.7 -3.1 -3.5 -2.9 1 -7.2 -5 -1.6 -8.4 -2.8 -1.5 -11 5.9 -3 -0.1 v -0.1 -2.9 l -3.3 -1.6 -1.9 -6 -2.7 -0.2 -0.7 2.7 h -9.1 l -6.7 3.3 -2.5 -1.7 z M314.4 119.8 l l -7.6 -1.8 -1.2 -2 -0.1 -2.3 4.4 -9.7 13.8 -7.4 2.3 -1.6 10.3 -2.1 4.8 -1.8 2.4 0.3 8.5 -4.4 5.1 -4.1 11.8 10 3.4 8.4 -3.1 4.7 1.4 8.7 -1.3 8 -13.1 -3.3 -4.8 7 -8.2 2.5 -1.4 2.7 -5.4 -2.4 -2.1 -2.1 1.9 -2.4 -4.9 -3 -3.4 0.7 -7.6 -5 z"/><path id="hauts-de-france" data-name="Hauts-de-France" d="M450.3 82.6 l l 16.7 4.6 2.9 0.9 0.7 5.9 -1.3 3.5 1.3 3.1 -5 7.2 -2.7 0.3 0.3 14.3 -1 2.8 -5.3 -1.8 -8 4 -1.2 2.6 3.2 8 -5.5 2.3 1.6 2.4 -0.8 2.7 2.5 1.3 -7.7 10.2 -9.3 -6 -3.9 -4.2 0.7 -2.8 -1.8 -2.5 -2.6 -0.7 2.1 -1.7 -0.5 -2.8 -2.9 -1.1 -2.4 1.5 -0.7 -2.9 3 0.2 -2.9 -4.5 2.6 -1.7 2.4 -5.7 2.6 -1.1 -2.2 -1.8 0.8 -4.5 -0.4 -10.2 -2.3 -7 3.9 -8.1 0.4 -3.8 12.6 -0.6 2.6 -2.2 2.3 1.7 z M384.3 25.1 l l 0.9 -0.3 2 0.8 1.1 -2.1 7.9 -2.1 2.9 0.3 4.4 -1.9 v -0.1 l 1.2 4.8 2.3 3.7 -1.6 1.9 0.6 0.8 1.2 5.8 h 3.4 l 2.7 5.1 3.1 1.5 h 2.1 l 0.6 -2.4 8.1 -3 3.8 7.5 0.1 1 1.3 5.2 2 3.5 h 0.1 l 2.8 0.6 2.1 -1.4 2.4 -0.2 -0.5 2.2 2.2 -0.7 2.8 1 1.8 4.4 -0.6 2.3 0.7 2.3 1.4 1.9 1.1 -2.6 4.6 -0.3 2.4 1.1 4.3 -1.7 5.5 6 2.3 0.2 -2.1 2.4 -1.4 4.7 2.6 0.2 1.4 3.3 -3.5 3.9 0.2 2.5 -16.7 -4.6 -5.2 1.8 -2.3 -1.7 -2.6 2.2 -12.6 0.6 -3.3 -2.6 3.5 -10.6 -1.8 -2.4 -3 -0.4 0.7 -2.7 -3.9 -5.2 3.1 -1.6 -3.8 -5.3 -5.9 -1 1 -6.1 -1.3 -2.5 -1.7 2.2 -11.6 -0.5 -4.1 -4.2 0.6 -2.8 -5.5 -2.6 z M372.8 131.1 l l -3.5 -8.4 1.3 -8 -1.4 -8.7 3.1 -4.7 4.1 3.7 3.1 -1.2 14.4 2.2 12.8 6.7 8.6 -6.8 10.3 -1.5 0.4 10.2 -0.8 4.5 2.2 1.8 -2.6 1.1 -2.4 5.7 -2.6 1.7 2.9 4.5 -3 -0.2 0.7 2.9 2.4 -1.5 2.9 1.1 0.5 2.8 -2.1 1.7 -8.1 2.9 -2.5 -1.6 -2 2.2 -6.9 -1 -10.9 -6.4 -2.2 1.6 -9.2 -2.2 -6.3 1.8 -5.6 -1.1 -1.6 -3.2 z M379.8 68.9 l l 7.1 5.8 12 -2.5 -2.6 5.7 1.7 3.1 2.5 -3.1 8.4 3.5 0.8 -2.8 2.8 4.6 2.4 -1.7 0.8 3.2 8.6 -1.8 3.5 -10.6 -1.8 -2.4 -3 -0.4 0.7 -2.7 -3.9 -5.2 3.1 -1.6 -3.8 -5.3 -5.9 -1 1 -6.1 -1.3 -2.5 -1.7 2.2 -11.6 -0.5 -4.1 -4.2 0.6 -2.8 -5.5 -2.6 -6.3 -12.1 -11.7 3.4 -6.4 5.4 0.9 5.6 -1.7 4.6 0.6 6.7 2 4.2 -1.7 -1.4 -0.3 9.7 2.3 1.6 10.5 1 z M424.3 82.9 l l 3.3 2.6 -0.4 3.8 -3.9 8.1 2.3 7 -10.3 1.5 -8.6 6.8 -12.8 -6.7 -14.4 -2.2 -3.1 1.2 -4.1 -3.7 -3.4 -8.4 -11.8 -10 2.4 -1.9 3.4 -6.6 1.9 -1.1 0.1 -0.1 1.4 1.8 3.5 0.3 -5.6 -6 1.2 -5.1 2.9 0.7 10.5 1 1 3 7.1 5.8 12 -2.5 -2.6 5.7 1.7 3.1 2.5 -3.1 8.4 3.5 0.8 -2.8 2.8 4.6 2.4 -1.7 0.8 3.2 z"/><path id="ile-de-france" data-name="Île-de-France" d="M392.8 153 l l -3.2 -0.5 -2.5 1.7 3 3.5 5.3 -0.1 -1.8 -1.9 z M441.1 176.1 l l -2.9 0.8 0.4 8.5 -15.4 3 -0.2 5.8 -3.9 5.4 -11.2 2.7 -9.2 -0.7 2.6 -1.5 0.6 -2.7 -4.2 -4.3 -0.7 -3.1 3.4 -4.8 4 -17.2 -0.5 -1 1.1 -4.1 -0.3 -2.9 v -0.1 l -1.3 -4.7 1.3 -2.5 -1.7 -5.1 0.1 -0.1 1.7 -2.3 -0.2 -2 6.9 1 2 -2.2 2.5 1.6 8.1 -2.9 2.6 0.7 1.8 2.5 -0.7 2.8 3.9 4.2 9.3 6 -0.4 2 -2.6 2.2 3.5 8.3 2.6 1.7 z M364.1 158.1 l l -3.6 -6.6 -1.8 -5.8 2.3 -2.6 3.8 0.1 9.5 0.8 9 3.6 5.5 6.1 -2 3.1 3.2 5.2 -7.1 5.4 -1.6 2.6 0.7 2.9 -4.6 8.6 -3.1 0.7 -2.3 -2.2 -1.2 -5.6 -6.2 -5.4 z M401.6 164.8 l l 2.3 2.2 0.5 1 -4 17.2 -3.4 4.8 -3.7 -0.6 -2.8 1.8 -1.5 -2.7 -1.9 2.9 -6.9 0.7 -2.8 -10.6 4.6 -8.6 -0.7 -2.9 1.6 -2.6 7.1 -5.4 v -0.1 l 3.7 1.6 5.1 2.1 z M391.1 155.9 l l 3 3.5 -0.4 4.1 -3.7 -1.6 v 0.1 l -3.2 -5.2 2 -3.1 3.6 -2.6 1.3 2 -0.1 1.1 z M404.7 152.7 l l -1.3 2.5 1.3 4.7 v 0.1 l -7.1 -2.6 -0.8 -2.7 -3.2 -0.5 0.1 -1.1 -1.3 -2 3.3 -1.3 2.6 1.1 c 1.6 -1.1 3.2 -2.2 4.7 -3.3 z M404.7 160 l l 0.3 2.9 -1.1 4.1 -2.3 -2.2 -2.8 0.8 -5.1 -2.1 0.4 -4.1 5.3 -0.1 -1.8 -1.9 z M374.3 144 l l -9.5 -0.8 4 -9.5 1.6 3.2 5.6 1.1 6.3 -1.8 9.2 2.2 2.2 -1.6 10.9 6.4 0.2 2 -1.7 2.3 -0.1 0.1 c -1.5 1.1 -3.1 2.2 -4.7 3.3 l -2.6 -1.1 -3.3 1.3 -3.6 2.6 -5.5 -6.1 z"/><path id="centre-val-de-loire" data-name="Centre-Val de Loire" d="M385.3 235.4 l l 5 -2.4 13.5 3.1 3.9 4.8 9 -1.7 2 6.5 -1.7 5.8 2.7 2.1 3.1 7.6 0.3 5.9 2.2 2 -0.2 5.8 -1.3 8.9 h -0.1 -4 l -4.8 3.7 -8.4 2.9 -2.3 1.9 1.7 5.3 -1.7 2.4 -8.7 1 -3.5 5.9 v 0.1 l -4.9 -0.2 1.5 -3.5 -0.9 -8.9 -4.7 -7.9 1.4 -2.7 -2.3 -2.2 2.5 -5.1 -2.3 -11.7 -11.6 -1.6 2.8 -5.5 2.8 0.1 0.6 -2.8 9.7 -2 -2.1 -5.9 5.9 -4.1 z M333.1 200.9 l l -2.1 -3.8 -1.1 -7.5 7.5 -5.1 -0.5 -4.6 0.2 -4.5 -4.8 -4.4 -0.1 -3.2 2.4 -2.6 6 -1.1 5.3 -3.2 2.8 1.6 6 -1.3 -0.2 -2.8 6 -6.9 3.6 6.6 0.5 10.9 6.2 5.4 1.2 5.6 2.3 2.2 3.1 -0.7 2.8 10.6 -0.5 1.5 -4.8 10.8 -8.5 0.6 -6 2.8 0.2 2.8 -3.3 -1.9 -5.5 3.5 -12.8 -10.8 -6.3 1.3 z M357.8 308.5 l l -2.8 2.9 -1.7 -2.5 -5.8 1.1 -2.6 -1.1 1.5 -2.8 -2.5 -1.3 -2.6 -5.4 h -2.9 l -4.6 -4.4 0.8 -5.8 -2.1 -3 5.6 -0.5 -1 -2.7 3.3 -11.9 5.1 -2.7 2.3 1.7 2.6 -3.5 2.5 -2.1 -1 -4.9 6 -3.2 2.5 1.3 1.5 -2.6 6.4 -0.9 5.2 3.5 -2.8 5.5 11.6 1.6 2.3 11.7 -2.5 5.1 2.3 2.2 -1.4 2.7 4.7 7.9 0.9 8.9 -1.5 3.5 -2.7 0.8 -13.2 -2.7 -1.9 2.5 z M303.9 263 l l -5.5 -3.2 v -0.1 l 5.8 -15.3 1.7 -9.3 0.7 -2.4 6.1 2.6 -0.5 -3.3 2.8 0.3 7.7 -4.5 10.5 0.5 -0.2 5.5 2.2 -1.8 6 3.4 -0.7 2.7 3.4 5.1 -1.2 9.1 2.4 1.9 2.6 -1.3 4.2 6.7 1 4.9 -2.5 2.1 -2.6 3.5 -2.3 -1.7 -5.1 2.7 -3.3 11.9 1 2.7 -5.6 0.5 -7.1 -10 -0.3 -3.1 -5.3 -3 1.4 2.9 -10 0.4 -2.8 -1.4 -1.3 -6.1 -2.9 0.3 z M357.9 256.4 l l -6 3.2 -4.2 -6.7 -2.6 1.3 -2.4 -1.9 1.2 -9.1 -3.4 -5.1 0.7 -2.7 -6 -3.4 -2.2 1.8 0.2 -5.5 -10.5 -0.5 0.6 -3.5 3.2 -1.1 6.3 -10.6 -0.4 -5.5 -1.7 -2.2 2 -2.1 v -0.1 l 6.3 -1.3 12.8 10.8 5.5 -3.5 3.3 1.9 2.5 7.1 -1.8 3.2 1.7 5.6 3 -1.3 2.4 1.5 1.1 3.8 2.9 0.6 1.9 -2.3 15.2 1.6 0.8 2.6 -5 2.4 5.1 7.6 -5.9 4.1 2.1 5.9 -9.7 2 -0.6 2.8 -2.8 -0.1 -5.2 -3.5 -6.4 0.9 -1.5 2.6 z M393.3 189.4 l l 3.7 0.6 0.7 3.1 4.2 4.3 -0.6 2.7 -2.6 1.5 9.2 0.7 11.2 -2.7 6.7 7.5 0.4 5.8 -4.6 4.9 1.1 2.9 -1.6 2.4 -5.3 3.3 3 2.8 2.2 6.9 -2.8 0.7 -1.5 2.4 -9 1.7 -3.9 -4.8 -13.5 -3.1 -0.8 -2.6 -15.2 -1.6 -1.9 2.3 -2.9 -0.6 -1.1 -3.8 -2.4 -1.5 -3 1.3 -1.7 -5.6 1.8 -3.2 -2.5 -7.1 -0.2 -2.8 6 -2.8 8.5 -0.6 4.8 -10.8 0.5 -1.5 6.9 -0.7 1.9 -2.9 1.5 2.7 z"/><path id="pays-de-la-loire" data-name="Pays de la Loire" d="M213.1 265.2 l l 1.8 -1 -2.8 -4.1 -7.8 -3 3 -1.3 0.6 -2.2 -0.5 -2.5 1.4 -2.1 5.8 -1.1 -5.5 -0.7 -6.6 3.7 -4.1 -3.2 -2.2 1 -2.2 -1.2 -0.5 -4.9 0.9 -2.5 3 -0.5 -0.9 -2.2 -0.2 -0.3 13.2 -3.9 0.4 -6 5.2 -3.4 13.2 -0.4 1.6 -2.9 9 -3.9 6.8 3.6 7.2 13.3 -2.7 -0.4 -1.9 2.4 8.5 3.3 0.3 5.9 -14.3 2.1 -2.9 2.2 3 0.8 3.6 4.7 0.8 2.8 -2.8 4.5 2.8 1.4 0.4 3 -4.8 -3.5 -1.5 2.4 -3.2 0.7 0.5 3 -2.4 2.1 -2.3 -1.7 v -3.1 l -3.4 0.2 -0.2 9.5 -11.7 -5 z M270.6 269.2 l l -12.3 0.8 -10.6 -3.8 -0.4 -3 -2.8 -1.4 2.8 -4.5 -0.8 -2.8 -3.6 -4.7 -3 -0.8 2.9 -2.2 14.3 -2.1 -0.3 -5.9 -8.5 -3.3 1.9 -2.4 2.7 0.4 -7.2 -13.3 0.4 -2.2 10.5 3.5 2.1 -1.9 8.7 3.6 3 0.4 5.9 -2.7 5.1 1.7 0.6 2.7 6.7 -0.2 0.2 3.5 2 2 3.1 -1.3 5.2 3.3 7.4 0.1 -0.7 2.4 -1.7 9.3 -5.8 15.3 v 0.1 l -6.6 5.9 -2.3 -2.3 -9.6 0.2 -5.6 0.8 z M256.6 221.5 l l -10.5 -3.5 3.6 -8.6 5.5 -2.2 -1.9 -17.3 1.5 -2.4 0.1 -12.1 8.6 0.8 h 0.1 l 3.3 3.7 2.4 -1.6 2.5 1.7 6.7 -3.3 h 9.1 l 0.7 -2.7 2.7 0.2 1.9 6 3.3 1.6 v 2.9 0.1 l -4.3 2.7 0.3 6.9 -4.4 4 1.2 2.9 -5 4.6 1.4 3.4 -5.5 7.7 1.5 5.6 -5.1 -1.7 -5.9 2.7 -3 -0.4 -8.7 -3.6 z M312.7 235.3 l l -6.1 -2.6 -7.4 -0.1 -5.2 -3.3 -3.1 1.3 -2 -2 -0.2 -3.5 -6.7 0.2 -0.6 -2.7 -1.5 -5.6 5.5 -7.7 -1.4 -3.4 5 -4.6 -1.2 -2.9 4.4 -4 -0.3 -6.9 4.3 -2.7 3 0.1 11 -5.9 2.8 1.5 1.6 8.4 7.2 5 2.9 -1 3.1 3.5 3.2 0.7 2.1 3.8 -0.4 1.8 v 0.1 l -2 2.1 1.7 2.2 0.4 5.5 -6.3 10.6 -3.2 1.1 -0.6 3.5 -7.7 4.5 -2.8 -0.3 z M269.3 305.1 l l 0.2 -7.4 -4.7 -17.9 -4.2 -4.1 -2.3 -5.7 -10.6 -3.8 -4.8 -3.5 -1.5 2.4 -3.2 0.7 0.5 3 -2.4 2.1 -2.3 -1.7 v -3.1 l -3.4 0.2 -0.2 9.5 -11.7 -5 -5.6 -5.6 -0.3 0.1 -0.8 2.6 -3.4 4.3 -1.2 2.3 0.2 2.4 8.7 9.5 2.7 5.6 1.2 5.3 8 5.4 3.4 0.5 3.9 4.3 2.9 -0.1 2 1.2 1.8 2.5 -0.9 -2.1 3.9 3.3 0.5 -2.7 2.4 0.3 7.1 -2.7 -1.4 2.9 6.5 -0.3 2.4 1.8 9.1 -4.5 z"/><path id="nouvelle-aquitaine" data-name="Nouvelle-Aquitaine" d="M294.8 379.2 l l -2 2 v -0.1 l -6.3 -6.3 -6 -1.2 1.7 -3 -2.3 -2 2.4 -1.7 -1.5 -2.6 1.7 -2.6 -2.4 -1.7 -0.3 -3 -5 -3.1 2.2 -2.1 -3.2 -5.6 8.1 -3.3 2.3 2 2.7 -0.1 2.7 -11.6 2.7 -1.6 0.3 -3 5.8 -2.5 3.5 0.4 0.8 -0.8 h 0.1 l 9.1 3 2.9 -0.8 -1.4 -2.4 2.2 -1.8 4.1 3.9 3.8 -1.4 1.3 -2.5 4.8 0.6 -0.2 5.1 4.7 3.6 -0.6 3.2 -2.6 1.1 -4 8 -2.8 0.6 -3.4 3.8 h 0.1 l -5.7 6.1 -2.1 5.3 -7.9 5.9 -0.7 5.7 -4.1 5.8 z M242.8 341.1 l l -1.4 -5 -3.5 -3 -1.3 -2.3 1.5 -3.6 1.7 1.8 2.9 0.5 1.4 8.4 z M243.2 315.7 l l -5.8 -4.5 -4.4 -1.5 -0.6 2.9 2.7 0.1 4.8 3.3 z M284.5 371.9 l l -6 -1.2 1.7 -3 -2.3 -2 2.4 -1.7 -1.5 -2.6 1.7 -2.6 -2.4 -1.7 -0.3 -3 -5 -3.1 2.2 -2.1 -3.2 -5.6 8.1 -3.3 2.3 2 2.7 -0.1 2.7 -11.6 -3.6 -4.7 -17.4 -6.7 -5.9 -6.5 v -3.7 l -2.4 -1.8 -6.5 0.3 1.4 -2.9 -7.1 2.7 0.5 0.1 -0.6 3.4 -4.5 5.9 2.4 0.3 2.2 1.7 3 7.2 -1.5 1.9 -0.2 5.1 -3.3 3.1 -0.1 2.6 -2.2 0.4 -1.5 1.7 1.1 4.3 9 6.5 1.5 2.6 4.3 2.7 3.7 4.8 1.8 7.3 3.8 -0.5 0.7 2.8 6.4 1.7 0.6 5.8 6.1 4.3 9.4 1 2 -5 0.1 -0.4 v -0.1 z M363.6 392.3 l l -8.1 0.8 -3.5 -7 -3.2 -0.7 -0.2 -3 -2.3 -1.5 2 -1.8 -1.7 -3 3.6 -4.6 -2.9 -4.7 1.6 -2.7 2.5 1.2 4.7 -4 5.7 -1.3 4.9 -4.6 8.7 -4 7 -3.4 11.2 5.2 2.3 -2.6 2.7 0.8 2.4 -2.4 1.2 5.6 -1.7 2.4 1.2 7.9 0.7 6 -6.2 -2 -0.6 3.5 -7.6 9.5 1.8 2.2 -2.3 1.9 -0.3 3.5 -3.1 1.1 1.5 3.4 -3.2 1.9 h -0.1 l -6.7 -0.2 -5.3 2.7 z M396.6 343.5 l l 4.4 5.5 -2.4 2.4 -2.7 -0.8 -2.3 2.6 -11.2 -5.2 -7 3.4 -0.6 -5.9 -4.7 -3 -6.4 -0.5 -0.1 -2.8 -2.9 -1.5 0.9 -3.4 -1.8 -5.2 -6.6 -9.8 3 -5.3 -1.2 -2.6 2.8 -2.9 11.5 -1.1 1.9 -2.5 13.2 2.7 2.7 -0.8 4.9 0.2 1.1 3.9 c 2.5 1.6 4.9 3.2 7.4 4.8 l 3.6 8.4 -0.5 4.1 2.3 6.7 z M307.7 414.3 l l -2.8 -6.4 -1 -1.3 0.9 -2.9 -2.4 -2.6 -2 3.2 -9.8 -2.3 2 -2 0.2 -5.7 2.8 -5.5 -1.2 -2.8 -3.7 0.6 2 -5 0.1 -0.4 2 -2 5.5 -0.7 4.1 -5.8 0.7 -5.7 7.9 -5.9 2.1 -5.3 5.7 -6.1 6.2 3 -0.1 4.7 9.5 -1.1 7.2 5.6 -2 2.7 5.7 2.2 2.9 4.7 -3.6 4.6 1.7 3 -2 1.8 2.3 1.5 0.2 3 3.2 0.7 3.5 7 -0.7 5 -1.4 5.3 -4.5 3.2 0.6 3.6 -6 3.4 -4.7 6.5 -4.2 -4.2 -5.4 2.7 -1.5 -6 -6.1 1 -2.2 -1.8 -2.8 2 z M243.9 420.1 l l -5.8 2.6 v -4.6 l 2.2 -3.2 0.5 -2.3 1.9 -1.7 1.8 1.4 3.1 -0.2 -1.1 -4.6 -3.5 -3.4 -2.8 4 -1.2 3.8 6.2 -50 0.9 -2.8 3.3 -3.4 1.4 4.7 9 9 2.8 7.6 1.7 -3.1 -0.6 -2.4 3.8 -0.5 0.7 2.8 6.4 1.7 0.6 5.8 6.1 4.3 9.4 1 3.7 -0.6 1.2 2.8 -2.8 5.5 -0.2 5.7 -2 2 9.8 2.3 2 -3.2 2.4 2.6 -0.9 2.9 1 1.3 -3.1 -0.1 -1.2 2.5 -2.7 -0.9 -1.1 3.3 2.9 1.4 -8.5 8.6 -0.6 8.9 -3 2.3 1.5 2.5 -4.5 4 -2.1 -2.7 -1.6 3.6 h -6.4 l -0.6 -4.7 -11 -7.7 0.4 -2.8 -17.2 0.7 1.5 -5.4 z M222.3 481.2 l l 1.1 -1.5 3.9 -7.1 8.8 -37.8 2 -11.7 v -0.4 l 5.8 -2.6 3.7 1.3 -1.5 5.4 17.2 -0.7 -0.4 2.8 11 7.7 0.6 4.7 h 6.4 l 1.6 -3.6 2.1 2.7 0.4 4.6 11.7 2.9 -3.6 5.2 0.7 2.6 -0.4 2.9 -2.5 1.3 -0.6 -3 -9.4 2.7 0.5 6.4 -4.2 11.1 1.6 2.7 -8.6 1.5 -3.3 -1.1 -4.8 1.9 -2.2 -2 -2.3 1.5 -2.5 -2.3 -9.8 2 -1.6 2.2 -2.5 -1.4 -2.7 1.3 -1.2 -2.8 -11 2.5 z M293.8 455.6 l v 0.1 l -0.7 -2.6 3.6 -5.2 -11.7 -2.9 -0.4 -4.6 4.5 -4 -1.5 -2.5 3 -2.3 0.6 -8.9 8.5 -8.6 -2.9 -1.4 1.1 -3.3 2.7 0.9 1.2 -2.5 3.1 0.1 2.8 6.4 8.9 -0.5 2.8 -2 2.2 1.8 6.1 -1 1.5 6 5.4 -2.7 4.2 4.2 -3.4 3.1 2.7 9.1 -7.5 2 v 2.9 l 2.4 1.4 -4.4 5.5 1.3 2.7 -2.8 -0.2 -3.6 4.7 -2.7 1.3 -8.6 -1 -5 2.9 -8.3 -0.7 -1.4 2.5 z M276.9 513.4 l l 3.4 -0.8 -0.4 -2.9 8 -9.3 -0.8 -3.1 2.7 -1.4 -0.5 -7.2 h -2.9 l 1.5 -2.8 -2.5 -5.8 -6.6 -0.3 -8.6 1.5 -3.3 -1.1 -4.8 1.9 -2.2 -2 -2.3 1.5 -2.5 -2.3 -9.8 2 -1.6 2.2 -2.5 -1.4 -2.7 1.3 -1.2 -2.8 -11 2.5 -4 -1.9 -3.5 4.9 -2.7 1.9 -4.5 0.9 1.9 4.5 4.5 -0.2 0.2 2.2 2.4 1 2.2 -2.1 2.4 1.3 2.5 0.1 1.4 2.8 -2.5 6.7 -2.1 2.2 1.3 2.2 4.3 -0.1 0.7 -3.4 2.3 -0.1 -1.3 2.4 5.9 2.3 1.5 1.8 h 2.5 l 6.1 3.8 5.8 0.4 2.3 -1 1.4 2.1 0.3 2.8 2.7 1.3 3.9 4 2.1 0.9 1.1 -2.1 2.7 2.1 3.6 -1.1 0.2 -0.2 1.4 -9.3 z M292.3 331.6 l l -2.7 1.6 -3.6 -4.7 -17.4 -6.7 -5.9 -6.5 v -3.7 l 9.1 -4.5 -2.5 -2 0.2 -7.4 -4.7 -17.9 -4.2 -4.1 -2.3 -5.7 12.3 -0.8 3.7 -4.8 5.6 -0.8 9.6 -0.2 2.3 2.3 3.4 9 -0.8 3 2.7 1.2 -4.5 14.1 2.7 -0.9 1.5 3 -3.4 5.5 0.5 5.8 2.1 2 -0.1 2.8 6.4 0.2 -3.2 8.5 4.5 3 -0.8 2.8 h -0.1 l -0.8 0.8 -3.5 -0.4 -5.8 2.5 z M329.6 320.8 l v 3.5 l -4.8 -0.6 -1.3 2.5 -3.8 1.4 -4.1 -3.9 -2.2 1.8 1.4 2.4 -2.9 0.8 -9.1 -3 0.8 -2.8 -4.5 -3 3.2 -8.5 -6.4 -0.2 0.1 -2.8 -2.1 -2 -0.5 -5.8 3.4 -5.5 -1.5 -3 -2.7 0.9 4.5 -14.1 -2.7 -1.2 0.8 -3 -3.4 -9 6.6 -5.9 5.5 3.2 0.3 3.2 2.9 -0.3 1.3 6.1 2.8 1.4 10 -0.4 -1.4 -2.9 5.3 3 0.3 3.1 7.1 10 2.1 3 -0.8 5.8 4.6 4.4 h 2.9 l 2.6 5.4 2.5 1.3 -1.5 2.8 -0.8 -0.3 -1.3 2.4 -3.3 -0.9 -1.3 3 -5.6 2.7 z M348.9 364.1 l l -1.6 2.7 -5.7 -2.2 2 -2.7 -7.2 -5.6 -9.5 1.1 0.1 -4.7 -6.2 -3 h -0.1 l 3.4 -3.8 2.8 -0.6 4 -8 2.6 -1.1 0.6 -3.2 -4.7 -3.6 0.2 -5.1 v -3.5 l 3 -5 5.6 -2.7 1.3 -3 3.3 0.9 1.3 -2.4 0.8 0.3 2.6 1.1 5.8 -1.1 1.7 2.5 1.2 2.6 -3 5.3 6.6 9.8 1.8 5.2 -0.9 3.4 2.9 1.5 0.1 2.8 6.4 0.5 4.7 3 0.6 5.9 -8.7 4 -4.9 4.6 -5.7 1.3 -4.7 4 z"/><path id="occitanie" data-name="Occitanie" d="M369.8 543.6 l l 0.8 -0.9 -2.6 -1.1 -2 -2.1 -3.7 -0.1 -1.7 -1.7 -2.8 0.4 -1.3 2.1 -2.4 -0.8 -2.8 -5.9 -10 -0.6 -1.3 -2.8 -13.2 -3.9 -0.5 -1.4 3.8 -5.2 2.8 -1 v -5.9 l 3.9 -4 2.8 -1.1 6.2 4.1 -0.4 -5.6 5.4 -1.6 -3 -4.8 2.8 -1.1 3.4 5.5 2.8 -0.5 0.6 -2.8 5.7 2.2 2 -2.3 2.2 5.5 8.7 3.9 2.2 5.2 0.2 3.1 -2.2 2.3 2.4 2.5 -1.2 3 -3.2 0.6 0.8 5.7 3.4 1.5 3.3 -1.2 4.8 5.6 -7.4 0.2 -1.3 2.6 z M435.1 504.4 l l -1.5 1.5 -5.2 9.3 -0.9 3.5 0.1 9.6 -9.4 -5.6 -8.2 5.4 -13.6 -1 -2.7 1.4 1.4 6 -8.6 3.9 -4.8 -5.6 -3.3 1.2 -3.4 -1.5 -0.8 -5.7 3.2 -0.6 1.2 -3 -2.4 -2.5 2.2 -2.3 -0.2 -3.1 -2.2 -5.2 -8.7 -3.9 -2.2 -5.5 8.4 -10 1.4 2.7 5.2 -1.8 0.5 -0.8 1.8 2.3 6.3 0.9 1.1 -3.3 2.8 -0.5 12 1.4 -0.5 2.8 3.5 5 2.5 -1.6 1.4 2.9 3.1 -0.8 3.8 -5.3 1 2.9 13.8 4.7 1.7 2 z M430.8 440.7 l l 9.4 4.5 -2 3.9 -2.8 1.1 8.4 4.1 -4.3 5.3 0.3 1.5 -3.7 1 -3 5.3 -6.3 -1.3 -0.1 8.7 -5.7 -0.1 -1.3 -2.8 -11.1 -1.3 -4.2 -5 -4.3 -11.5 -4.8 -4.3 -10.3 -5.8 -6.1 2.8 -4.3 -3.6 2.3 -2.4 -3.1 -2.7 0.4 -3 -0.8 -9.1 7.6 -5 5.9 -1.4 1.7 -1.5 h 0.1 l 5.1 -3.2 6.4 1.5 3.8 -4.8 3 -9.1 4.7 -4.2 5.2 4 1.3 4.2 2.4 1.6 -0.5 3 2.6 5.1 v 0.1 l 4.2 4.5 2.9 8.8 -0.5 8.7 z M480 487.2 l l -2.8 -0.6 -1.9 -1.6 -1.1 -3.4 h -0.1 l 3.3 -4.4 -1.5 -3 -6.1 -6.7 -3 -0.2 -0.2 -3 -6.8 -1.4 0.9 -2.7 -1.9 -2.6 -3.9 0.6 -4.2 3.9 -0.1 2.8 -5.3 -2.5 -2.2 1.7 -0.4 -2.9 -2.9 -0.1 -0.3 -1.5 4.3 -5.3 -8.4 -4.1 2.8 -1.1 2 -3.9 7.8 3.4 3.9 -0.5 0.1 -3.3 8.7 2.2 6.3 -1.8 -1.4 -3 1.2 -2.9 -3.9 -7.7 3.6 -2.5 1.1 -2.1 2.7 5.9 7.8 5 7.1 -4.3 0.1 3.1 2.5 -2.3 h 2.8 l 6 3.5 2.6 4.4 0.2 5.5 6.3 6.4 -4.5 5 -3.9 4.1 -1.9 10.6 -3.3 -0.9 -4.2 4.8 1 2.7 -5.8 1.8 z M326.8 526.2 l l -5.5 -1.5 -1.2 2.4 0.2 7.6 -8.8 -0.7 -1.7 0.3 -0.6 -7 5.5 -3.2 2.6 -5.3 -0.8 -2.7 -3.1 0.3 0.6 -3.5 -4.6 -4 7.1 -11.2 3.1 -1.1 3.5 -5.3 11.4 2.5 0.7 -5.8 6.5 -6.1 -9.1 -13.3 9.9 -0.9 1.7 2.3 5.8 -2.5 -2.2 -2.3 11.7 -4.3 1.4 6.3 2.6 1.2 0.2 2.8 2.3 2.1 -0.7 5.4 14.3 9.3 1 2.8 -0.5 0.8 -5.2 1.8 -1.4 -2.7 -8.4 10 -2 2.3 -5.7 -2.2 -0.6 2.8 -2.8 0.5 -3.4 -5.5 -2.8 1.1 3 4.8 -5.4 1.6 0.4 5.6 -6.2 -4.1 -2.8 1.1 -3.9 4 v 5.9 l -2.8 1 -3.8 5.2 z M330.6 461.7 l l 2 6.9 9.1 13.3 -6.5 6.1 -0.7 5.8 -11.4 -2.5 -3.5 5.3 -3.1 1.1 -12.4 -2.2 -1.4 -3 -5.5 0.6 -2.6 -8.7 -3.3 -1.3 -2 -3.5 -3.9 0.5 -6.6 -0.3 -1.6 -2.7 4.2 -11.1 -0.5 -6.4 9.4 -2.7 0.6 3 2.5 -1.3 0.4 -2.9 v -0.1 l 3.7 0.7 1.4 -2.5 8.3 0.7 5 -2.9 8.6 1 2.7 -1.3 5.3 1.7 -3.3 4.6 z M474.1 481.6 l l -2.4 -0.1 -5.9 2.6 -3.6 3.2 -7.2 4.6 -4.3 4.2 2.1 -3.5 -4.3 6.6 h -6.8 l -5.5 4 -1.1 1.2 -0.2 -0.2 -1.7 -2 -13.8 -4.7 -1 -2.9 -3.8 5.3 -3.1 0.8 -1.4 -2.9 -2.5 1.6 -3.5 -5 0.5 -2.8 3.4 -2 0.8 -3 -0.7 -9.7 6.1 2.2 c 2.3 -1.5 4.6 -2.9 6.8 -4.4 l 5.7 0.1 0.1 -8.7 6.3 1.3 3 -5.3 3.7 -1 2.9 0.1 0.4 2.9 2.2 -1.7 5.3 2.5 0.1 -2.8 4.2 -3.9 3.9 -0.6 1.9 2.6 -0.9 2.7 6.8 1.4 0.2 3 3 0.2 6.1 6.7 1.5 3 z M385.4 413.1 l l 3.3 5 h -0.1 l -1.7 1.5 -5.9 1.4 -7.6 5 0.8 9.1 -6.2 0.8 -7.5 5.5 -2.6 -2.3 -8.7 2.5 -0.5 -4 -2.4 1.5 -2.7 -1 -4.5 -4 2.1 -2.3 -3.1 0.5 -2.7 -9.1 3.4 -3.1 4.7 -6.5 6 -3.4 -0.6 -3.6 4.5 -3.2 1.4 -5.3 0.7 -5 8.1 -0.8 6.7 6.1 5.3 -2.7 6.7 0.2 1 5.4 3.8 6 z M463.4 418.7 l l 4.2 8.3 -1.1 2.1 -3.6 2.5 3.9 7.7 -1.2 2.9 1.4 3 -6.3 1.8 -8.7 -2.2 -0.1 3.3 -3.9 0.5 -7.8 -3.4 -9.4 -4.5 -1.5 -2.4 0.5 -8.7 -2.9 -8.8 -4.2 -4.5 v -0.1 l 6.9 -15.9 1.7 2.3 6.8 -5.7 1 -1 2.3 1.7 1.5 5.7 6.4 1.2 0.1 -2.8 2.9 0.2 9 7.7 z M314.7 524.1 l l -5.5 3.2 0.6 7 -0.7 0.2 -2.3 -1.6 -2.4 1.8 -2.5 -0.5 -1.9 -1.7 -3.9 -0.3 -6.9 2.1 -2.2 -0.9 -2.1 -1.7 -1.1 -2.5 -7.8 -5.5 -2.1 1.8 1.4 -9.3 1.6 -2.8 3.4 -0.8 -0.4 -2.9 8 -9.3 -0.8 -3.1 2.7 -1.4 -0.5 -7.2 h -2.9 l 1.5 -2.8 -2.5 -5.8 3.9 -0.5 2 3.5 3.3 1.3 2.6 8.7 5.5 -0.6 1.4 3 12.4 2.2 -7.1 11.2 4.6 4 -0.6 3.5 3.1 -0.3 0.8 2.7 z M427.6 528.3 l l 0.3 15.6 3.9 3.3 1.9 3.8 h -2.3 l -8.1 -2.7 -6.9 3.9 -3 -0.2 -2.4 1.1 -0.6 2.4 -2.1 1.2 -2.4 -0.7 -2.9 1 -4 -3.1 -7 -2.9 -2.5 1.4 h -3 l -1 2.1 -4.6 2 -1.9 -1.7 -1.7 -4.8 -7.5 -2 -2 -2.1 2 -2.3 8 -2.4 1.3 -2.6 7.4 -0.2 8.6 -3.9 -1.4 -6 2.7 -1.4 13.6 1 8.2 -5.4 z M419.7 471.9 l l 1.3 2.8 c -2.2 1.5 -4.5 2.9 -6.8 4.4 l -6.1 -2.2 0.7 9.7 -0.8 3 -3.4 2 -12 -1.4 -2.8 0.5 -1.1 3.3 -6.3 -0.9 -1.8 -2.3 -1 -2.8 -14.3 -9.3 0.7 -5.4 -2.3 -2.1 -0.2 -2.8 -2.6 -1.2 -1.4 -6.3 0.5 -2.8 4.8 -3.2 1 -2.7 -1.8 -2.2 3 -1.1 2.7 1.1 9.2 -3.2 6.1 -2.8 10.3 5.8 4.8 4.3 4.3 11.5 4.2 5 z M360 458.1 l l -0.5 2.8 -11.7 4.3 2.2 2.3 -5.8 2.5 -1.7 -2.3 -9.9 0.9 -2 -6.9 -5.1 -4.1 3.3 -4.6 -5.3 -1.7 3.6 -4.7 2.8 0.2 -1.3 -2.7 4.4 -5.5 -2.4 -1.4 v -2.9 l 7.5 -2 3.1 -0.5 -2.1 2.3 4.5 4 2.7 1 2.4 -1.5 0.5 4 8.7 -2.5 2.6 2.3 7.5 -5.5 6.2 -0.8 -0.4 3 3.1 2.7 -2.3 2.4 4.3 3.6 -9.2 3.2 -2.7 -1.1 -3 1.1 1.8 2.2 -1 2.7 z"/><path id="grand-est" data-name="Grand Est" d="M469.9 88.1 l l 0.8 0.3 9.8 0.4 7.3 -3.2 1.1 -6 4 -3.8 2.8 -0.2 v 3.8 l -1.7 1.6 -0.6 5.2 3.3 4.5 -1 2.4 0.6 3.1 1.4 1.9 3.3 -0.9 4.3 2.4 2.8 3.8 4.9 0.6 2 1.7 -0.9 2.4 2.1 -0.1 -1.6 1.1 -2 2.7 -5.7 -2.1 -1.9 2 0.8 8.8 -3.2 5.1 1.4 2.5 -4.2 3.6 v 0.1 l -20.1 -1.9 -9.8 -6.6 -6.7 -0.9 -0.3 -14.3 2.7 -0.3 5 -7.2 -1.3 -3.1 1.3 -3.5 z M442.2 186.9 l l -3.6 -1.5 -0.4 -8.5 2.9 -0.8 3 -5 3.2 4.5 9 1.2 v -3.3 l 9.5 -7.6 6.5 -0.9 3.1 0.5 0.4 6.1 2.6 2 c 1.9 0.8 3.8 1.5 5.6 2.3 l 2.5 -1.5 3.3 1.1 -0.6 3.4 2.4 5.2 5.6 3 0.5 9.9 -0.1 2.7 -5.6 2.5 0.2 4.8 -3.9 -0.5 -4.7 3.9 -6.1 0.9 -2.2 2 -2.9 -1.4 -12.6 1.6 -5 -10.9 -3.6 -4.1 -2 2.2 -2.5 -8.3 z M440.6 158.9 l l 0.4 -2 7.7 -10.2 -2.5 -1.3 0.8 -2.7 -1.6 -2.4 5.5 -2.3 -3.2 -8 1.2 -2.6 8 -4 5.3 1.8 1 -2.8 6.7 0.9 9.8 6.6 20.1 1.9 2.2 9 -1 4.1 2.6 1.3 -0.6 3.9 -3.1 1.1 -1.1 5.8 3.2 4.6 0.5 4.1 -8.6 2.2 2.2 2.5 -2.3 2.2 0.7 2.9 h -4.7 l -3.3 -1.1 -2.5 1.5 c -1.8 -0.8 -3.7 -1.5 -5.6 -2.3 l -2.6 -2 -0.4 -6.1 -3.1 -0.5 -6.5 0.9 -9.5 7.6 v 3.3 l -9 -1.2 -3.2 -4.5 -2.6 -1.7 -3.5 -8.3 z M493.9 167.9 l l 8.6 -2.2 3.4 5.2 16.9 10.4 -2.4 2.3 12.7 9.5 -1.7 8.6 5.5 4.7 0.2 3.1 2.7 -1.1 1.3 2.5 v 0.1 l 0.2 1.4 -2.3 3.2 -2.9 -0.3 -2 2.4 -0.3 8.3 -3.2 1 -2.1 -1.8 -6.6 3.9 -1.2 2.5 -4.8 1.9 v -2.8 l -3 -1.6 -9.2 -2 -2.3 -4.8 2.8 -2.4 -1 -3.1 -1.8 -2.2 -2.9 -0.3 0.3 -2.9 -2.6 -1 -0.5 -2.7 -3.5 -0.7 -0.2 -4.8 5.6 -2.5 0.1 -2.7 -0.5 -9.9 -5.6 -3 -2.4 -5.2 0.6 -3.4 h 4.7 l -0.7 -2.9 2.3 -2.2 z M588.2 170.9 l l 1.9 1.3 -1.5 0.4 -10.6 7.6 -6.1 -1.6 -1.6 -2.7 -5.3 3.8 -6 1 -2.4 -1.8 -5.4 2 -1.1 2.8 -5.7 0.7 -4.1 -4.8 0.1 -2.9 -5.8 -0.6 0.2 -2.9 -2.5 -2 1.7 -2.8 -1.3 -8.6 2.2 -13.8 0.9 -2.7 -4.9 -11.5 1.5 -5.9 -1.2 -2.7 -4.4 -4.8 -5.3 2 -0.7 -5.3 4.8 -1.7 2 -1.9 h 6.8 l 2.5 2.3 2.7 10.2 2.5 1.6 1.2 3.6 -1.7 3.1 1 5.6 -2.8 0.1 4.3 7.5 11.5 4 -0.3 2.9 2.7 5.1 8.5 1.5 5.3 3.9 14.4 5.3 z M516.2 108 l l 1.2 -0.1 1.5 1.6 1.9 5.6 0.7 5.3 5.3 -2 4.4 4.8 1.2 2.7 -1.5 5.9 4.9 11.5 -0.9 2.7 -2.2 13.8 1.3 8.6 -1.7 2.8 2.5 2 -0.2 2.9 -1.9 2.3 -3 -0.5 -6.9 3.4 -16.9 -10.4 -3.4 -5.2 -0.5 -4.1 -3.2 -4.6 1.1 -5.8 3.1 -1.1 0.6 -3.9 -2.6 -1.3 1 -4.1 -2.2 -9 v -0.1 l 4.2 -3.6 -1.4 -2.5 3.2 -5.1 -0.8 -8.8 1.9 -2 5.7 2.1 2 -2.7 z M539.6 124 l l -2.6 -10.2 0.6 0.6 h 2.4 l 1.5 2.1 2.3 0.7 2.3 -0.5 1 -2.3 2 -1.2 2.2 -0.2 4.5 2.3 4.9 -0.1 3.1 3.8 2.3 1.9 -0.5 2 3.7 3.2 2.8 4.5 v 2.3 l 4.2 0.7 1.2 -1.9 -0.3 -2.4 2.6 -0.2 3.8 1.8 1.4 3.5 2.1 -1.5 2.5 1.9 5.8 -0.4 5.3 -4.2 2.2 1.4 0.5 2.1 2.4 2.4 3.2 1.5 -1.7 4.4 -1.4 2.6 -8.9 0.3 -9.1 -4.6 -0.8 -2.8 -5 10.8 5.5 2.4 -1.6 2.5 2.3 1.7 1.3 -2.5 3 0.3 4.3 3.4 -3 13.3 -2.3 1.8 -3.4 -0.3 -2 -2.7 -14.4 -5.3 -5.3 -3.9 -8.5 -1.5 -2.7 -5.1 0.3 -2.9 -11.5 -4 -4.3 -7.5 2.8 -0.1 -1 -5.6 1.7 -3.1 -1.2 -3.6 z M631.8 140.7 l l -2.8 9.4 -7.8 10.5 -2 1.5 -1.4 3.3 0.3 4.9 -2.4 7.2 0.7 3.6 -1.5 2 -1.2 5.5 -3.2 6.2 -4.6 -1.8 -0.3 -2.8 -8.5 -5.6 -3.1 -0.2 -5.2 -2.2 1.3 -10 -1.9 -1.3 3.4 0.3 2.3 -1.8 3 -13.3 -4.3 -3.4 -3 -0.3 -1.3 2.5 -2.3 -1.7 1.6 -2.5 -5.5 -2.4 5 -10.8 0.8 2.8 9.1 4.6 8.9 -0.3 1.4 -2.6 1.7 -4.4 8.9 0.6 2.4 -0.6 z M605.9 193 l l 4.6 1.8 v 0.1 5.3 l 1.6 1.9 0.2 3.4 -2.2 11.1 0.1 6.7 1.8 1.5 0.6 3.5 -2.2 2 -0.2 2.3 -3.1 0.9 0.5 2.2 -1.5 1.6 h -2.7 l -3.8 1.4 -3 -1.1 0.3 -2.5 -2.4 -1.1 -0.4 0.1 -2 -5 -2.8 0.2 -0.5 -9 -7.6 -5 2.8 -2.4 v -6.2 l 4.8 -7.8 4.1 -13.5 1.1 -1 3.1 0.2 8.5 5.6 z M520.4 183.6 l l 2.4 -2.3 6.9 -3.4 3 0.5 1.9 -2.3 5.8 0.6 -0.1 2.9 4.1 4.8 5.7 -0.7 1.1 -2.8 5.4 -2 2.4 1.8 6 -1 5.3 -3.8 1.6 2.7 6.1 1.6 10.6 -7.6 1.5 -0.4 -1.3 10 5.2 2.2 -1.1 1 -4.1 13.5 -4.8 7.8 v 6.2 l -2.8 2.4 -0.9 0.6 -8.4 -6.6 -5.1 2.2 -4.9 -3.6 -5.8 1.6 -7 -4.3 -8 5.8 v -0.1 l -1.3 -2.5 -2.7 1.1 -0.2 -3.1 -5.5 -4.7 1.7 -8.6 z"/><path id="bourgogne-franche-comte" data-name="Bourgogne-Franche-Comté" d="M523.6 241.7 l l 3.9 8.2 -1.2 1.3 -1.8 8.2 -6.2 6.8 -1.1 4.1 v -0.1 l -15 1.5 -8.8 4.2 -5.6 -6.3 -5.5 -1.9 -1.3 -2.6 -5.7 -1.7 -2.4 -2.6 v -0.8 l 0.4 -3.2 -3.7 -1.2 -1.3 -6 h 0.1 l -1.3 -2.7 1.3 -8.1 6.7 -10.4 -1.7 -2.3 2.8 -2.1 0.3 -3.7 -3.1 -3.9 1.9 -3.1 2.2 -2 6.1 -0.9 4.7 -3.9 3.9 0.5 3.5 0.7 0.5 2.7 2.6 1 -0.3 2.9 2.9 0.3 1.8 2.2 1 3.1 -2.8 2.4 2.3 4.8 9.2 2 3 1.6 v 2.8 l 4.8 -1.9 h 0.1 l 2.7 -1.6 2 3 0.1 3.2 -4.6 4.1 z M590.1 245.2 l l -2.4 2.2 0.4 3 -4.8 6.2 -4.8 4 -0.4 2.9 -2.5 2.7 -5.7 1.7 -0.3 0.3 -1.7 2.3 0.9 2.7 -0.7 4.5 0.5 2.5 -9.5 8.8 -2.9 5.2 -0.2 0.7 -3.7 -3.5 3.6 -7.4 2.1 -2.3 -4.2 -4.1 -2.9 -0.5 -5.8 -10.1 -3 0.8 -1.5 -2.5 -2 2.1 -1.2 -2.5 3 -5.1 -5.2 -7.8 22.3 -10.2 3 -4.7 5.6 -1.9 2.8 0.9 1.8 -2.2 3.2 -0.4 0.5 -2.8 5.9 0.8 0.2 -0.1 h 0.1 l 5.9 2.7 -1.4 2.5 1.4 2.4 0.4 -0.5 -0.1 0.2 -2.2 4.9 7 -0.7 z M552.3 291.4 l l 3.7 3.5 -2.6 8.1 -5.3 7.2 -5.5 3.2 -3.8 0.2 -0.4 -2.8 -3.4 -1.6 -4 4.4 -2.9 0.1 -0.1 -3 h -2.9 l -4.3 -7.7 2.8 -1.1 -0.8 -5.3 2.8 -5 -2.2 -8.7 -2.5 -1.6 5 -3.7 -8.3 -4.4 -0.4 -2.9 1.1 -4.1 6.2 -6.8 1.8 -8.2 1.2 -1.3 2.3 2 5.4 0.1 5.2 7.8 -3 5.1 1.2 2.5 2 -2.1 1.5 2.5 3 -0.8 5.8 10.1 2.9 0.5 4.2 4.1 -2.1 2.3 z M462.8 250 l l 5.5 -0.4 1.3 6 3.7 1.2 -0.4 3.2 v 0.8 l -1.1 0.3 -2.7 0.4 v 1.3 l -2.8 1 0.3 5.9 -2.1 1.7 4 7 -1.9 2.1 0.7 2.9 -11.3 5.7 -7 -2.8 -5.9 6 -4.4 -3.7 -2.8 1.7 -6.4 -0.2 -5.7 -6.3 1.3 -8.9 0.2 -5.8 -2.2 -2 -0.3 -5.9 -3.1 -7.6 -2.7 -2.1 1.7 -5.8 -2 -6.5 1.5 -2.4 2.8 -0.7 v 0.1 h 3.4 l 7.4 4.8 h 6 l 4.6 -4.3 3.9 5.6 5.5 3 5.8 -0.9 0.9 3.7 2.8 -0.9 z M579.1 225.9 l l 1.4 5.5 -0.2 0.1 -5.9 -0.8 -0.5 2.8 -3.2 0.4 -1.8 2.2 -2.8 -0.9 -5.6 1.9 -3 4.7 -22.3 10.2 -5.4 -0.1 -2.3 -2 -3.9 -8.2 -2.6 -1.4 4.6 -4.1 -0.1 -3.2 -2 -3 -2.7 1.6 h -0.1 l 1.2 -2.5 6.6 -3.9 2.1 1.8 3.2 -1 0.3 -8.3 2 -2.4 2.9 0.3 2.3 -3.2 -0.2 -1.4 8 -5.8 7 4.3 5.8 -1.6 4.9 3.6 5.1 -2.2 8.4 6.6 -2.3 5.7 z M517.2 270.2 l v 0.1 l 0.4 2.9 8.3 4.4 -5 3.7 2.5 1.6 2.2 8.7 -2.8 5 0.8 5.3 -2.8 1.1 -4.8 -3.3 -5.4 1.3 -5.9 -1.5 -5.9 20.9 -5.7 -7.7 -1.6 2.3 -2.5 -1.5 -2.2 1.6 -2.2 -1.7 -2.3 1.9 -0.3 2.9 v 0.1 l -5.7 3.8 -2.1 -2.1 -8 1.5 -5.2 -3.3 v -3 l 3.7 -4.6 0.5 -5.5 -1.6 -2.4 -7.9 -2.9 -6.7 -13.5 7 2.8 11.3 -5.7 -0.7 -2.9 1.9 -2.1 -4 -7 2.1 -1.7 -0.3 -5.9 2.8 -1 2.7 -1.7 1.1 -0.3 2.4 2.6 5.7 1.7 1.3 2.6 5.5 1.9 5.6 6.3 8.8 -4.2 z M425.8 207.1 l l -6.7 -7.5 3.9 -5.4 0.2 -5.8 15.4 -3 3.6 1.5 4.5 5.5 2.5 8.3 2 -2.2 3.6 4.1 5 10.9 12.6 -1.6 2.9 1.4 -1.9 3.1 3.1 3.9 -0.3 3.7 -2.8 2.1 1.7 2.3 -6.7 10.4 -1.3 8.1 1.3 2.7 h -0.1 l -5.5 0.4 -1.5 -2.8 -2.8 0.9 -0.9 -3.7 -5.8 0.9 -5.5 -3 -3.9 -5.6 -4.6 4.3 h -6 l -7.4 -4.8 h -3.4 v -0.1 l -2.2 -6.9 -3 -2.8 5.3 -3.3 1.6 -2.4 -1.1 -2.9 4.6 -4.9 z M580.3 215.9 l l 0.9 -0.6 7.6 5 0.5 9 2.8 -0.2 2 5 -0.1 0.1 -2.8 0.4 -1.1 -0.4 -3.2 4.3 -0.4 0.5 -1.4 -2.4 1.4 -2.5 -5.9 -2.7 h -0.1 l -1.4 -5.5 -1.1 -4.3 z"/><path id="auvergne-rhone-alpes" data-name="Auvergne-Rhône-Alpes" d="M542 347 l l -5.7 6.7 -11.2 -15.2 -2.8 0.7 -3 5.1 -6 -2 -6.4 0.5 -3.7 -5.7 -2.8 0.5 -3.1 -9.2 1.5 -8 5.9 -20.9 5.9 1.5 5.4 -1.3 4.8 3.3 4.3 7.7 h 2.9 l 0.1 3 2.9 -0.1 4 -4.4 3.4 1.6 0.4 2.8 3.8 -0.2 5.5 -3.2 5.3 -7.2 4.5 2.7 -1.8 4.7 0.3 2.5 -4.4 1.5 -1.9 2 0.2 2.8 0.5 0.2 -4.4 4.7 h -2.9 l 0.8 9.3 z M443.1 292.3 l l 5.9 -6 6.7 13.5 7.9 2.9 1.6 2.4 -0.5 5.5 -3.7 4.6 -3.9 1.3 -0.5 3 1.5 12.4 -5.5 4.8 -3.5 -4.3 -6.4 -0.4 -1.4 -3.2 -13.1 -0.5 -1.6 -2.5 -3.3 0.5 -4.4 -4.5 1.2 -2.8 -2.3 -1.7 -11.2 8 -2.5 -1.2 -3.6 -8.4 c -2.5 -1.6 -4.9 -3.2 -7.4 -4.8 l -1.1 -3.9 v -0.1 l 3.5 -5.9 8.7 -1 1.7 -2.4 -1.7 -5.3 2.3 -1.9 8.4 -2.9 4.8 -3.7 h 4 0.1 l 5.7 6.3 6.4 0.2 2.8 -1.7 z M496.5 434.2 l l 0.1 3.7 -6 -3.5 h -2.8 l -2.5 2.3 -0.1 -3.1 -7.1 4.3 -7.8 -5 -2.7 -5.9 -4.2 -8.3 -2.1 -9.1 6.7 -6.4 5.9 -1.9 3.4 -5.9 3.4 -0.4 -0.7 -2.8 2.6 -2.3 1.5 -5.2 2.6 1.2 v -3.1 l 0.9 -4.1 3.5 -0.8 3.2 -4.9 5 -2.7 2 4.2 0.5 10.3 3.8 11.3 -1.5 6.2 -3.5 4.5 1 7.1 -3 5.9 z M435.6 387.9 l l 3.5 8 -1 1 -6.8 5.7 -1.7 -2.3 -6.9 15.9 -2.6 -5.1 0.5 -3 -2.4 -1.6 -1.3 -4.2 -5.2 -4 -4.7 4.2 -3 9.1 -3.8 4.8 -6.4 -1.5 -5.1 3.2 -3.3 -5 1.7 -5.8 -3.8 -6 -1 -5.4 h 0.1 l 3.2 -1.9 -1.5 -3.4 3.1 -1.1 0.3 -3.5 2.3 -1.9 -1.8 -2.2 7.6 -9.5 0.6 -3.5 6.2 2 -0.7 -6 7.5 3.5 1.5 2.5 6.7 0.3 6.5 5.4 3.7 -4.1 v 3.9 l 5.5 1.5 3.3 8.7 2.6 1.1 z M535.1 404.4 l l -3 0.5 -0.8 -17.5 -3 1.7 -8.2 -1.9 -2.7 1 1.1 -6.3 -3.3 -7.8 -4.9 -2.7 -9 3.1 0.5 10.3 3.8 11.3 -1.5 6.2 -3.5 4.5 1 7.1 -3 5.9 -2.1 14.4 5.9 0.7 3.5 4.2 8.7 -3.9 2.4 1.4 2.5 -2.2 0.5 5.8 9.3 0.9 0.1 2.8 5.2 2.3 4.3 -4.8 2.3 -0.1 1 -0.2 0.2 -4.7 -10 -5.7 -1.5 -2.6 3.2 -5.1 4.2 1.4 2.5 -2.5 -3 -2.3 2.5 -6.7 5.8 -0.3 0.3 -3.4 -5.9 -0.8 z M513.6 349.4 l l -0.3 -7.1 6 2 3 -5.1 2.8 -0.7 11.2 15.2 6.5 10.5 6.2 0.2 0.3 -2.8 9.4 2.1 2.7 6.3 -2.3 5.5 1 5.4 5.2 1.5 -1.6 3.8 1.8 4.2 4.4 3.1 -0.4 5.8 -3.1 -1.1 -12.6 3.9 -0.9 2.8 -5.5 1.2 -1 3.1 -5.9 -0.8 -5.4 -4 -3 0.5 -0.8 -17.5 -3 1.7 -8.2 -1.9 -2.7 1 1.1 -6.3 -3.3 -7.8 -4.9 -2.7 -9 3.1 -2 -4.2 v -4.4 l -0.2 -1.1 h 0.1 l 4.4 -3.9 -1.9 -2.5 2.5 -2.5 6.9 -1.5 z M499.3 365.9 l v 4.4 l -5 2.7 -3.2 4.9 -3.5 0.8 -2.2 -2.4 -2.6 1 -0.7 -5.5 -6 -2.2 -6.2 3 -2.8 0.4 -2.3 -2 -2.8 0.8 3 -7.1 -2.7 -7.5 -4.6 -3.8 -4.7 -7.7 2.1 -6.3 -2.5 -2.7 5.5 -4.8 -1.5 -12.4 0.5 -3 3.9 -1.3 v 3 l 5.2 3.3 8 -1.5 2.1 2.1 5.7 -3.8 v -0.1 l 2.1 3 -4.9 3.5 -1.6 8.6 5.2 6.7 -1.7 5.9 2.3 1.6 -1.3 2.5 1.1 3 4.6 4.1 5.9 2.1 0.9 3 4.6 2.6 h -0.1 z M485.4 376.3 l l 2.2 2.4 -0.9 4.1 v 3.1 l -2.6 -1.2 -1.5 5.2 -2.6 2.3 0.7 2.8 -3.4 0.4 -3.4 5.9 -5.9 1.9 -6.7 6.4 -9 -7.7 -2.9 -0.2 -0.1 2.8 -6.4 -1.2 -1.5 -5.7 -2.3 -1.7 -3.5 -8 3.4 -0.2 -2.6 -1.1 -3.3 -8.7 -5.5 -1.5 v -3.9 -0.1 l 9.6 -3.2 8.5 0.1 5.2 3.2 11.1 -0.7 2.8 -0.8 2.3 2 2.8 -0.4 6.2 -3 6 2.2 0.7 5.5 z M449.1 332.4 l l 3.5 4.3 2.5 2.7 -2.1 6.3 4.7 7.7 4.6 3.8 2.7 7.5 -3 7.1 -11.1 0.7 -5.2 -3.2 -8.5 -0.1 -9.6 3.2 v 0.1 l -3.7 4.1 -6.5 -5.4 -6.7 -0.3 -1.5 -2.5 -7.5 -3.5 -1.2 -7.9 1.7 -2.4 -1.2 -5.6 -4.4 -5.5 9.3 -8.6 -2.3 -6.7 0.5 -4.1 2.5 1.2 11.2 -8 2.3 1.7 -1.2 2.8 4.4 4.5 3.3 -0.5 1.6 2.5 13.1 0.5 1.4 3.2 z M493.1 312.7 l l 5.7 7.7 -1.5 8 3.1 9.2 2.8 -0.5 3.7 5.7 6.4 -0.5 0.3 7.1 -2.5 5 -6.9 1.5 -2.5 2.5 1.9 2.5 -4.4 3.9 -4.6 -2.6 -0.9 -3 -5.9 -2.1 -4.6 -4.1 -1.1 -3 1.3 -2.5 -2.3 -1.6 1.7 -5.9 -5.2 -6.7 1.6 -8.6 4.9 -3.5 -2.1 -3 0.3 -2.9 2.3 -1.9 2.2 1.7 2.2 -1.6 2.5 1.5 z M603.7 362 l l -1 10.3 -3.1 1.4 -2.2 0.7 -4.5 3.4 -1.5 2.4 -2.5 -1.4 -5.1 1.3 -2 1.8 v 0.1 l -6.8 1.9 -2 2 -7.7 -3.5 -5.2 -1.5 -1 -5.4 2.3 -5.5 -2.7 -6.3 -9.4 -2.1 -0.3 2.8 -6.2 -0.2 -6.5 -10.5 5.7 -6.7 2.3 -13.6 2.7 6.7 2.7 0.9 1.3 2.5 3 1.7 2.6 -1.6 3.2 0.8 4.6 3.6 9.4 -13.9 2.4 1.6 -0.6 3 2.3 1.8 6.2 2.3 2.2 -1.5 0.6 -0.8 1.9 4.7 2.7 1.1 1.5 1.9 2.8 0.4 -0.7 3 1.3 5.2 5.1 4 z M547 340.1 l l -2.7 -6.7 -0.8 -9.3 h 2.9 l 4.4 -4.7 2.2 0.9 2.3 -1 2.3 0.1 3.4 -3.5 2.1 -1 1 -2.3 -2.8 -1.3 1.8 -5.1 2.4 -0.8 2.3 1 3.6 -2.9 9.5 -1.3 3.2 0.6 -0.5 2.7 4.2 4.1 -2.1 6.4 -0.6 1.5 4.6 1.7 -0.1 4.8 2 -1.4 4.6 6.6 -1.3 5 -2.5 1.7 -4.9 0.9 -0.6 3.7 -0.6 0.8 -2.2 1.5 -6.2 -2.3 -2.3 -1.8 0.6 -3 -2.4 -1.6 -9.4 13.9 -4.6 -3.6 -3.2 -0.8 -2.6 1.6 -3 -1.7 -1.3 -2.5 z"/><path id="provence-alpes-cote-d-azur" data-name="Provence-Alpes-Côte d'Azur" d="M596.5 409.9 l l 0.6 -0.5 -0.4 4.5 -2.2 1.5 -0.6 2.9 3.5 4 -1.8 4.8 0.2 0.2 -6.8 7.8 -2 5.3 4.3 8.5 7 7.7 -5.2 -0.6 -5.2 3.8 1.2 2.6 -3 1.4 -9.8 0.4 -1.2 3.5 -5.9 -3.6 -10.1 8.5 -4 -4.8 -2.7 1.8 -5.3 -0.2 -6.1 -6 -3.4 -1.1 1.7 -2.5 -3.7 -5.2 1.2 -3 -2.2 -5.4 4.3 -4.8 2.3 -0.1 1 -0.2 5.9 -1.4 3.8 1 -3.4 -4.9 3.9 1.1 1.4 -8.6 5.3 -4 3.3 -0.7 3.5 4.5 0.7 -3.8 3.8 -4.2 11.1 3.3 9 -10.2 z M597.1 409 l v 0.4 l -0.6 0.5 -6 3.3 -9 10.2 -11.1 -3.3 -3.8 4.2 -0.7 3.8 -3.5 -4.5 -3.3 0.7 -5.3 4 -1.4 8.6 -3.9 -1.1 3.4 4.9 -3.8 -1 -5.9 1.4 0.2 -4.7 -10 -5.7 -1.5 -2.6 3.2 -5.1 4.2 1.4 2.5 -2.5 -3 -2.3 2.5 -6.7 5.8 -0.3 0.3 -3.4 1 -3.1 5.5 -1.2 0.9 -2.8 12.6 -3.9 3.1 1.1 0.4 -5.8 -4.4 -3.1 -1.8 -4.2 1.6 -3.8 7.7 3.5 2 -2 6.8 -1.9 1.8 4.5 2.4 0.6 1.1 2 0.4 3 1.2 2.2 3 2.3 5.7 0.5 2.2 1.3 -0.7 2.1 3.2 4.7 -3 1.5 z M605.3 477.1 l l -3.2 -0.1 -1.3 1.8 -0.1 2.2 -0.4 0.8 -2.2 -4 0.8 -2.9 -5.6 -2.6 -1.7 -5.6 -5.5 -2.9 3 -1.4 -1.2 -2.6 5.2 -3.8 5.2 0.6 -7 -7.7 -4.3 -8.5 2 -5.3 6.8 -7.8 6.9 7.8 6.9 1.6 4.2 2.8 2.5 -0.4 1.8 1.4 10.3 -2.4 2.7 -1.8 -0.3 2.6 1.5 2.2 0.3 3.2 -1.6 1.9 -0.2 2.3 -2.7 1.6 -3.3 5 -0.5 1.6 1.1 2.7 -1.1 2.7 -3.5 2.9 -2.3 0.5 -0.9 2.4 -3 -0.9 -1.5 2.1 -2.3 0.5 -1.8 2.4 0.1 2.8 -2.4 0.6 z M545 500.2 l l 2.5 -2 -2.2 -6.3 1.1 -2.6 2.7 -0.5 -5.5 -9.1 2 -5.3 3.3 -0.8 -1.9 -3.8 -0.1 -0.1 -6.6 4.3 -3.2 0.2 -12 -4.8 -3.5 0.7 -4.5 -2.3 -5.5 -5.7 -10.4 -2.9 -3.9 4.1 -1.9 10.6 -3.3 -0.9 -4.2 4.8 1 2.7 -5.8 1.8 -3.1 4.9 0.2 0.1 h 13.2 l 2.2 0.9 1 2.2 -1.6 1.5 2.2 1.4 7.4 0.1 3.2 1.3 1.8 -1.7 -1.5 -2.8 0.4 -2.4 4.9 1 3 5.3 10 -0.8 2.6 -1.1 1.8 2 -0.2 2.5 1 2 -1.2 2.2 h 9.2 l 1.3 2 2.2 -0.8 1.7 0.2 z M600.3 481.8 l l -1.4 2.5 -6.8 1.7 -0.7 2.5 -5.5 5.7 5 0.7 -2 4.8 -4 0.2 -4.8 2.5 -3.5 1.1 0.1 2.7 -4.9 -1.5 -2.7 0.5 -1.6 1.6 -0.4 2.3 -2.2 1.6 1.4 -1.8 -2.4 -1.7 -2.2 0.7 -1.6 -1.6 -3.1 0.1 0.9 2.2 -2.3 -0.4 -1.5 1.7 -3 -1.1 0.6 -2.3 -6.4 -4.1 -0.5 -0.1 0.2 -2.1 2.5 -2 -2.2 -6.3 1.1 -2.6 2.7 -0.5 -5.5 -9.1 2 -5.3 3.3 -0.8 -1.9 -3.8 0.1 -0.4 5.3 0.2 2.7 -1.8 4 4.8 10.1 -8.5 5.9 3.6 1.2 -3.5 9.8 -0.4 5.5 2.9 1.7 5.6 5.6 2.6 -0.8 2.9 z M541 463.4 l l 6.1 6 -0.1 0.4 -0.1 -0.1 -6.6 4.3 -3.2 0.2 -12 -4.8 -3.5 0.7 -4.5 -2.3 -5.5 -5.7 -10.4 -2.9 4.5 -5 -6.3 -6.4 -0.2 -5.5 -2.6 -4.4 -0.1 -3.7 5.9 0.7 3.5 4.2 8.7 -3.9 2.4 1.4 2.5 -2.2 0.5 5.8 9.3 0.9 0.1 2.8 5.2 2.3 2.2 5.4 -1.2 3 3.7 5.2 -1.7 2.5 z"/><path id="corse" data-name="Corse" d="M640.5 554.2 l l 3.2 -1.7 0.7 8.4 -0.1 0.5 -1.9 4.9 -2.7 1.9 3.3 0.4 -5.8 14.7 -3.1 -1.2 -1.2 -2.8 -11.2 -3.4 -4.8 -4.4 0.2 -3 4.9 -3.3 -9.5 -1.9 2.7 -7 -0.9 -5.8 -7.3 2.6 3 -8.4 2.6 -1.6 -7.9 -4.4 -1.1 -5.5 5.3 -3.8 -3.8 -4.2 -2.6 1 0.5 -2.7 13.6 2.1 1.2 3.5 6 3.4 6 5.9 0.5 3.2 2.7 1.1 3.7 11 z M643.7 551.5 l v 1 l -3.2 1.7 -3.8 -0.5 -3.7 -11 -2.7 -1.1 -0.5 -3.2 -6 -5.9 -6 -3.4 -1.2 -3.5 -13.6 -2.1 v -0.2 l 3.9 -5 -0.3 -3.4 2.2 -2.8 2.8 -0.3 0.9 -2.9 10.7 -4.2 3.5 -4.9 8.6 1.3 -0.5 -17.4 2.4 -2 2.9 1.1 0.2 0.9 1.5 8.2 -0.5 10.6 4 5.6 3.8 26 -5.4 11.9 v 5.5 z"/></svg>