<svg xmlns="http://www.w3.org/2000/svg" viewBox="105 18 568 567" role="img" aria-label="Carte des régions de France"><path id="bretagne" data-name="Bretagne" d="M208.7 188.9 L203.8 196.0 L200.9 197.1 L199.4 194.4 L195.9 193.5 L189.7 201.0 L187.9 195.0 L184.9 195.9 L172.0 189.4 L164.1 192.4 L151.6 189.1 L153.7 185.0 L151.2 175.7 L153.7 167.4 L150.1 162.7 L151.2 158.4 L152.4 159.8 L155.6 159.4 L156.7 151.7 L158.2 150.1 L160.4 149.5 L162.3 150.9 L164.8 150.9 L166.9 149.9 L169.1 150.2 L170.6 148.4 L171.5 150.4 L170.0 153.0 L173.0 149.4 L175.9 148.6 L175.8 150.9 L174.6 155.3 L176.3 152.2 L178.9 151.7 L177.8 153.7 L185.0 161.5 L187.2 166.9 L190.2 168.9 L191.0 172.6 L191.7 170.4 L194.7 169.4 L197.1 166.7 L205.2 163.4 L207.9 163.2 L205.9 165.7 L208.8 164.6 L210.6 169.0 L211.9 167.1 L214.4 167.3 L214.4 167.2 L216.0 171.2 L215.7 171.2 L216.0 171.2 L218.5 171.5 L219.2 171.7 L219.6 173.4 L217.7 186.4 Z M151.6 210.1 L153.6 213.5 L152.8 214.9 L147.3 213.7 L146.1 211.8 L148.3 211.1 L145.3 211.9 L145.0 209.2 L145.0 211.9 L142.5 212.6 L140.3 211.6 L136.1 205.5 L135.3 208.0 L133.0 208.2 L129.5 205.1 L131.1 200.5 L128.7 204.8 L130.0 206.7 L127.8 207.7 L126.8 210.5 L120.9 210.3 L118.8 208.7 L120.3 207.1 L118.8 201.6 L116.4 198.5 L113.6 196.7 L115.2 195.0 L113.1 196.4 L105.6 194.2 L107.8 192.9 L120.3 191.1 L122.1 192.9 L124.1 191.6 L124.8 189.1 L123.2 185.5 L116.4 183.0 L114.9 185.6 L112.3 181.4 L113.6 179.6 L113.3 177.4 L115.0 179.7 L119.9 180.7 L124.5 179.9 L126.6 183.0 L132.0 184.0 L128.3 183.1 L125.5 181.1 L127.7 180.6 L123.5 178.6 L125.5 177.1 L122.9 176.9 L120.2 177.7 L119.4 175.5 L126.5 171.0 L122.1 173.2 L119.8 173.3 L112.3 176.2 L109.6 175.0 L106.9 176.2 L105.4 174.4 L106.0 169.1 L108.5 167.5 L106.3 166.6 L107.1 164.0 L108.9 162.4 L111.0 161.6 L116.1 163.1 L114.2 162.0 L116.7 160.8 L118.3 162.2 L116.4 160.5 L117.6 158.6 L120.5 158.5 L124.3 156.5 L126.6 159.1 L133.3 156.0 L136.3 157.6 L137.3 155.4 L140.2 154.9 L140.6 159.9 L142.8 158.4 L144.1 160.9 L145.3 156.4 L150.0 156.7 L151.2 158.4 L150.1 162.7 L153.7 167.4 L151.2 175.7 L153.7 185.0 L151.6 189.1 L151.6 189.2 L144.8 192.4 L145.3 195.9 L148.7 201.4 L156.8 202.7 L156.9 208.1 L154.4 210.9 Z M255.2 207.2 L249.7 209.4 L246.1 218.0 L245.7 220.2 L238.9 216.6 L229.9 220.5 L228.3 223.4 L215.1 223.8 L209.9 227.2 L208.9 221.4 L211.9 220.7 L209.1 219.2 L211.5 217.0 L212.5 213.8 L210.1 212.1 L211.7 209.5 L210.5 207.0 L205.4 204.2 L204.9 201.4 L208.4 200.5 L204.8 200.4 L203.8 196.0 L208.7 188.9 L217.7 186.4 L219.6 173.4 L219.2 171.7 L218.5 171.5 L216.0 171.2 L214.4 167.2 L214.5 166.4 L214.5 165.5 L215.2 165.4 L217.3 165.4 L217.3 165.5 L219.0 169.9 L220.3 171.9 L219.8 174.0 L221.2 171.9 L218.9 166.8 L219.6 164.3 L221.8 162.8 L224.1 162.2 L226.3 163.2 L224.8 165.5 L227.7 167.9 L235.0 167.3 L239.7 176.9 L242.4 177.9 L249.5 173.1 L254.9 175.4 L254.8 187.5 L253.3 189.9 Z M167.7 242.6 L170.6 243.8 L169.5 245.9 L164.4 244.7 L163.1 242.0 L163.5 239.0 L165.6 240.4 Z M209.8 218.5 L206.8 219.2 L207.8 225.0 L207.4 231.0 L194.2 234.9 L192.8 232.5 L196.2 232.4 L193.1 230.9 L180.2 231.8 L176.4 228.5 L181.2 228.1 L183.3 228.7 L184.3 226.5 L182.2 224.1 L177.4 224.6 L175.3 223.1 L173.9 221.1 L174.6 226.1 L169.5 226.0 L167.3 224.4 L166.8 228.2 L168.0 231.2 L165.9 230.1 L166.8 227.3 L166.2 223.8 L164.1 221.2 L165.7 218.1 L164.0 220.6 L162.4 219.6 L162.3 219.5 L159.1 217.6 L161.4 218.2 L159.2 216.8 L161.7 212.6 L159.8 214.3 L158.1 212.6 L157.5 210.2 L158.3 215.3 L156.8 217.0 L154.5 217.2 L151.6 212.8 L151.5 211.3 L149.5 207.9 L152.3 208.7 L154.8 205.9 L154.7 200.5 L146.6 199.2 L143.2 193.7 L142.7 190.2 L149.5 187.0 L149.5 186.9 L162.0 190.2 L169.9 187.2 L182.8 193.7 L185.8 192.8 L187.6 198.8 L193.8 191.3 L197.3 192.2 L198.8 194.9 L201.7 193.8 L202.7 198.2 L206.3 198.3 L202.8 199.2 L203.3 202.0 L208.4 204.8 L209.6 207.3 L208.0 209.9 L210.4 211.6 L209.4 214.8 L207.0 217.0 Z"/><path id="normandie" data-name="Normandie" d="M316.9 148 l l -0.7 2.2 -5.6 -1 -7 1.7 -7.2 5.4 -2.9 0.3 -5.7 -1.1 -2.6 1.7 -4.9 -3 -6.4 2.3 -2.7 -1.3 -0.9 2.7 -5.4 2.9 -9.7 -2.1 -1.8 -2.4 4.5 -5.3 -1.6 -2.3 8.1 -4.9 -2.2 -8.2 2 -2.6 -8.4 -3.1 -0.5 -6.6 v -0.1 l 0.1 -0.7 1.8 0.8 1.9 -2.1 3.4 -0.3 9.4 3.3 13.9 1.5 6.9 3.4 5.7 -0.7 4.7 -2.5 4.1 -3.7 5.1 -1.1 0.3 8.3 h 2.9 l -2.3 2.1 2.8 9.4 -1.4 3 z M316.4 153.4 l l -0.2 -3.2 0.7 -2.2 -2.3 -4.1 1.4 -3 -2.8 -9.4 2.3 -2.1 h -2.9 l -0.3 -8.3 1.7 -0.4 0.3 -0.1 h 1.5 l -0.9 -0.2 0.8 -0.3 -1.3 -0.3 5.9 -2.4 7.6 5 3.4 -0.7 4.9 3 -1.9 2.4 2.1 2.1 5.4 2.4 1.4 -2.7 8.2 -2.5 4.8 -7 13.1 3.3 3.5 8.4 -4 2.6 -4 9.5 -3.8 -0.1 -2.3 2.6 1.8 5.8 -6 6.9 0.2 2.8 -6 1.3 -2.8 -1.6 -5.3 3.2 -6 1.1 -2.4 2.6 -3.4 -2.1 1.7 -2.3 -7.8 -9.5 z M255.2 158.7 l l 9.7 2.1 4.1 4.2 -1.8 6.7 -3.6 4.5 h -0.1 l -8.6 -0.8 -5.4 -2.3 -7.1 4.8 -2.7 -1 -4.7 -9.6 1.9 -0.2 4.8 0.4 2.5 -1.1 0.5 -2.2 -2.4 1.3 -5.1 -5.6 -0.3 -5.3 2 -6.1 -0.3 -4.9 -1.8 -3.6 0.4 -7.4 1.5 -2 -2.5 0.3 -2 -5 0.3 -2.2 -2.4 -1.2 -2.9 -4.1 -0.7 -5.9 -1.4 -1.9 1.8 -1.8 0.1 -2.8 -0.5 -2.3 -2.2 -1.1 -1 -2.5 2.1 -0.2 11.9 4.2 h 2.4 l 4 -2.6 5.1 0.6 1.8 1.7 0.9 2.7 -3.2 5.2 4 6.5 1.1 4.3 -0.1 0.7 v 0.1 l 0.5 6.6 8.4 3.1 -2 2.6 2.2 8.2 -8.1 4.9 1.6 2.3 -4.5 5.3 z M266.9 179.9 l l -3.3 -3.7 3.6 -4.5 1.8 -6.7 -4.1 -4.2 5.4 -2.9 0.9 -2.7 2.7 1.3 6.4 -2.3 4.9 3 2.6 -1.7 5.7 1.1 2.9 -0.3 7.2 -5.4 7 -1.7 5.6 1 0.2 3.2 6.3 0.5 7.8 9.5 -1.7 2.3 3.4 2.1 0.1 3.2 4.8 4.4 -0.2 4.5 0.5 4.6 -7.5 5.1 1.1 7.5 -3.2 -0.7 -3.1 -3.5 -2.9 1 -7.2 -5 -1.6 -8.4 -2.8 -1.5 -11 5.9 -3 -0.1 v -0.1 -2.9 l -3.3 -1.6 -1.9 -6 -2.7 -0.2 -0.7 2.7 h -9.1 l -6.7 3.3 -2.5 -1.7 z M314.4 119.8 l l -7.6 -1.8 -1.2 -2 -0.1 -2.3 4.4 -9.7 13.8 -7.4 2.3 -1.6 10.3 -2.1 4.8 -1.8 2.4 0.3 8.5 -4.4 5.1 -4.1 11.8 10 3.4 8.4 -3.1 4.7 1.4 8.7 -1.3 8 -13.1 -3.3 -4.8 7 -8.2 2.5 -1.4 2.7 -5.4 -2.4 -2.1 -2.1 1.9 -2.4 -4.9 -3 -3.4 0.7 -7.6 -5 z"/><path id="hauts-de-france" data-name="Hauts-de-France" d="M450.3 82.6 L467.0 87.2 L469.9 88.1 L470.6 94.0 L469.3 97.5 L470.6 100.6 L465.6 107.8 L462.9 108.1 L463.2 122.4 L462.2 125.2 L456.9 123.4 L448.9 127.4 L447.7 130.0 L450.9 138.0 L445.4 140.3 L447.0 142.7 L446.2 145.4 L448.7 146.7 L441.0 156.9 L431.7 150.9 L427.8 146.7 L428.5 143.9 L426.7 141.4 L424.1 140.7 L426.2 139.0 L425.7 136.2 L422.8 135.1 L420.4 136.6 L419.7 133.7 L422.7 133.9 L419.8 129.4 L422.4 127.7 L424.8 122.0 L427.4 120.9 L425.2 119.1 L426.0 114.6 L425.6 104.4 L423.3 97.4 L427.2 89.3 L427.6 85.5 L440.2 84.9 L442.8 82.7 L445.1 84.4 Z M384.3 25.1 L385.2 24.8 L387.2 25.6 L388.3 23.5 L396.2 21.4 L399.1 21.7 L403.5 19.8 L403.5 19.7 L404.7 24.5 L407.0 28.2 L405.4 30.1 L406.0 30.9 L407.2 36.7 L410.6 36.7 L413.3 41.8 L416.4 43.3 L418.5 43.3 L419.1 40.9 L427.2 37.9 L431.0 45.4 L431.1 46.4 L432.4 51.6 L434.4 55.1 L434.5 55.1 L437.3 55.7 L439.4 54.3 L441.8 54.1 L441.3 56.3 L443.5 55.6 L446.3 56.6 L448.1 61.0 L447.5 63.3 L448.2 65.6 L449.6 67.5 L450.7 64.9 L455.3 64.6 L457.7 65.7 L462.0 64.0 L467.5 70.0 L469.8 70.2 L467.7 72.6 L466.3 77.3 L468.9 77.5 L470.3 80.8 L466.8 84.7 L467.0 87.2 L450.3 82.6 L445.1 84.4 L442.8 82.7 L440.2 84.9 L427.6 85.5 L424.3 82.9 L427.8 72.3 L426.0 69.9 L423.0 69.5 L423.7 66.8 L419.8 61.6 L422.9 60.0 L419.1 54.7 L413.2 53.7 L414.2 47.6 L412.9 45.1 L411.2 47.3 L399.6 46.8 L395.5 42.6 L396.1 39.8 L390.6 37.2 Z M372.8 131.1 L369.3 122.7 L370.6 114.7 L369.2 106.0 L372.3 101.3 L376.4 105.0 L379.5 103.8 L393.9 106.0 L406.7 112.7 L415.3 105.9 L425.6 104.4 L426.0 114.6 L425.2 119.1 L427.4 120.9 L424.8 122.0 L422.4 127.7 L419.8 129.4 L422.7 133.9 L419.7 133.7 L420.4 136.6 L422.8 135.1 L425.7 136.2 L426.2 139.0 L424.1 140.7 L416.0 143.6 L413.5 142.0 L411.5 144.2 L404.6 143.2 L393.7 136.8 L391.5 138.4 L382.3 136.2 L376.0 138.0 L370.4 136.9 L368.8 133.7 Z M378.8 65.9 L368.3 64.9 L366.0 63.3 L366.3 53.6 L368.0 55.0 L366.0 50.8 L365.4 44.1 L367.1 39.5 L366.2 33.9 L372.6 28.5 L384.3 25.1 L390.6 37.2 L396.1 39.8 L395.5 42.6 L399.6 46.8 L411.2 47.3 L412.9 45.1 L414.2 47.6 L413.2 53.7 L419.1 54.7 L422.9 60.0 L419.8 61.6 L423.7 66.8 L423.0 69.5 L426.0 69.9 L427.8 72.3 L424.3 82.9 L415.7 84.7 L414.9 81.5 L412.5 83.2 L409.7 78.6 L408.9 81.4 L400.5 77.9 L398.0 81.0 L396.3 77.9 L398.9 72.2 L386.9 74.7 L379.8 68.9 Z M424.3 82.9 L427.6 85.5 L427.2 89.3 L423.3 97.4 L425.6 104.4 L415.3 105.9 L406.7 112.7 L393.9 106.0 L379.5 103.8 L376.4 105.0 L372.3 101.3 L368.9 92.9 L357.1 82.9 L359.5 81.0 L362.9 74.4 L364.8 73.3 L364.9 73.2 L366.3 75.0 L369.8 75.3 L364.2 69.3 L365.4 64.2 L368.3 64.9 L378.8 65.9 L379.8 68.9 L386.9 74.7 L398.9 72.2 L396.3 77.9 L398.0 81.0 L400.5 77.9 L408.9 81.4 L409.7 78.6 L412.5 83.2 L414.9 81.5 L415.7 84.7 Z"/><path id="ile-de-france" data-name="Île-de-France" d="M441.1 176.1 L438.2 176.9 L438.6 185.4 L423.2 188.4 L423.0 194.2 L419.1 199.6 L407.9 202.3 L398.7 201.6 L401.3 200.1 L401.9 197.4 L397.7 193.1 L397.0 190.0 L400.4 185.2 L404.4 168.0 L403.9 167.0 L405.0 162.9 L404.7 160.0 L404.7 159.9 L403.4 155.2 L404.7 152.7 L403.0 147.6 L403.1 147.5 L404.8 145.2 L404.6 143.2 L411.5 144.2 L413.5 142.0 L416.0 143.6 L424.1 140.7 L426.7 141.4 L428.5 143.9 L427.8 146.7 L431.7 150.9 L441.0 156.9 L440.6 158.9 L438.0 161.1 L441.5 169.4 L444.1 171.1 Z M364.1 158.1 L360.5 151.5 L358.7 145.7 L361.0 143.1 L364.8 143.2 L374.3 144.0 L383.3 147.6 L388.8 153.7 L386.8 156.8 L390.0 162.0 L382.9 167.4 L381.3 170.0 L382.0 172.9 L377.4 181.5 L374.3 182.2 L372.0 180.0 L370.8 174.4 L364.6 169.0 Z M401.6 164.8 L403.9 167.0 L404.4 168.0 L400.4 185.2 L397.0 190.0 L393.3 189.4 L390.5 191.2 L389.0 188.5 L387.1 191.4 L380.2 192.1 L377.4 181.5 L382.0 172.9 L381.3 170.0 L382.9 167.4 L390.0 162.0 L390.0 161.9 L393.7 163.5 L398.8 165.6 Z M391.1 155.9 L394.1 159.4 L393.7 163.5 L390.0 161.9 L390.0 162.0 L386.8 156.8 L388.8 153.7 L392.4 151.1 L393.7 153.1 L393.6 154.2 Z M404.7 152.7 L403.4 155.2 L404.7 159.9 L404.7 160.0 L397.6 157.4 L396.8 154.7 L393.6 154.2 L393.7 153.1 L392.4 151.1 L395.7 149.8 L398.3 150.9 L399.3 150.2 L400.2 149.6 L401.2 148.9 L402.1 148.3 L403.0 147.6 Z M404.7 160.0 L405.0 162.9 L403.9 167.0 L401.6 164.8 L398.8 165.6 L393.7 163.5 L394.1 159.4 L399.4 159.3 L397.6 157.4 Z M374.3 144.0 L364.8 143.2 L368.8 133.7 L370.4 136.9 L376.0 138.0 L382.3 136.2 L391.5 138.4 L393.7 136.8 L404.6 143.2 L404.8 145.2 L403.1 147.5 L403.0 147.6 L402.1 148.3 L401.2 148.9 L400.2 149.6 L399.3 150.2 L398.3 150.9 L395.7 149.8 L392.4 151.1 L388.8 153.7 L383.3 147.6 Z"/><path id="centre-val-de-loire" data-name="Centre-Val de Loire" d="M385.3 235.4 l l 5 -2.4 13.5 3.1 3.9 4.8 9 -1.7 2 6.5 -1.7 5.8 2.7 2.1 3.1 7.6 0.3 5.9 2.2 2 -0.2 5.8 -1.3 8.9 h -0.1 -4 l -4.8 3.7 -8.4 2.9 -2.3 1.9 1.7 5.3 -1.7 2.4 -8.7 1 -3.5 5.9 v 0.1 l -4.9 -0.2 1.5 -3.5 -0.9 -8.9 -4.7 -7.9 1.4 -2.7 -2.3 -2.2 2.5 -5.1 -2.3 -11.7 -11.6 -1.6 2.8 -5.5 2.8 0.1 0.6 -2.8 9.7 -2 -2.1 -5.9 5.9 -4.1 z M333.1 200.9 l l -2.1 -3.8 -1.1 -7.5 7.5 -5.1 -0.5 -4.6 0.2 -4.5 -4.8 -4.4 -0.1 -3.2 2.4 -2.6 6 -1.1 5.3 -3.2 2.8 1.6 6 -1.3 -0.2 -2.8 6 -6.9 3.6 6.6 0.5 10.9 6.2 5.4 1.2 5.6 2.3 2.2 3.1 -0.7 2.8 10.6 -0.5 1.5 -4.8 10.8 -8.5 0.6 -6 2.8 0.2 2.8 -3.3 -1.9 -5.5 3.5 -12.8 -10.8 -6.3 1.3 z M357.8 308.5 l l -2.8 2.9 -1.7 -2.5 -5.8 1.1 -2.6 -1.1 1.5 -2.8 -2.5 -1.3 -2.6 -5.4 h -2.9 l -4.6 -4.4 0.8 -5.8 -2.1 -3 5.6 -0.5 -1 -2.7 3.3 -11.9 5.1 -2.7 2.3 1.7 2.6 -3.5 2.5 -2.1 -1 -4.9 6 -3.2 2.5 1.3 1.5 -2.6 6.4 -0.9 5.2 3.5 -2.8 5.5 11.6 1.6 2.3 11.7 -2.5 5.1 2.3 2.2 -1.4 2.7 4.7 7.9 0.9 8.9 -1.5 3.5 -2.7 0.8 -13.2 -2.7 -1.9 2.5 z M303.9 263 l l -5.5 -3.2 v -0.1 l 5.8 -15.3 1.7 -9.3 0.7 -2.4 6.1 2.6 -0.5 -3.3 2.8 0.3 7.7 -4.5 10.5 0.5 -0.2 5.5 2.2 -1.8 6 3.4 -0.7 2.7 3.4 5.1 -1.2 9.1 2.4 1.9 2.6 -1.3 4.2 6.7 1 4.9 -2.5 2.1 -2.6 3.5 -2.3 -1.7 -5.1 2.7 -3.3 11.9 1 2.7 -5.6 0.5 -7.1 -10 -0.3 -3.1 -5.3 -3 1.4 2.9 -10 0.4 -2.8 -1.4 -1.3 -6.1 -2.9 0.3 z M357.9 256.4 l l -6 3.2 -4.2 -6.7 -2.6 1.3 -2.4 -1.9 1.2 -9.1 -3.4 -5.1 0.7 -2.7 -6 -3.4 -2.2 1.8 0.2 -5.5 -10.5 -0.5 0.6 -3.5 3.2 -1.1 6.3 -10.6 -0.4 -5.5 -1.7 -2.2 2 -2.1 v -0.1 l 6.3 -1.3 12.8 10.8 5.5 -3.5 3.3 1.9 2.5 7.1 -1.8 3.2 1.7 5.6 3 -1.3 2.4 1.5 1.1 3.8 2.9 0.6 1.9 -2.3 15.2 1.6 0.8 2.6 -5 2.4 5.1 7.6 -5.9 4.1 2.1 5.9 -9.7 2 -0.6 2.8 -2.8 -0.1 -5.2 -3.5 -6.4 0.9 -1.5 2.6 z M393.3 189.4 l l 3.7 0.6 0.7 3.1 4.2 4.3 -0.6 2.7 -2.6 1.5 9.2 0.7 11.2 -2.7 6.7 7.5 0.4 5.8 -4.6 4.9 1.1 2.9 -1.6 2.4 -5.3 3.3 3 2.8 2.2 6.9 -2.8 0.7 -1.5 2.4 -9 1.7 -3.9 -4.8 -13.5 -3.1 -0.8 -2.6 -15.2 -1.6 -1.9 2.3 -2.9 -0.6 -1.1 -3.8 -2.4 -1.5 -3 1.3 -1.7 -5.6 1.8 -3.2 -2.5 -7.1 -0.2 -2.8 6 -2.8 8.5 -0.6 4.8 -10.8 0.5 -1.5 6.9 -0.7 1.9 -2.9 1.5 2.7 z"/><path id="pays-de-la-loire" data-name="Pays de la Loire" d="M213.1 265.2 L214.9 264.2 L212.1 260.1 L204.3 257.1 L207.3 255.8 L207.9 253.6 L207.4 251.1 L208.8 249.0 L214.6 247.9 L209.1 247.2 L202.5 250.9 L198.4 247.7 L196.2 248.7 L194.0 247.5 L193.5 242.6 L194.4 240.1 L197.4 239.6 L196.5 237.4 L196.3 237.1 L209.5 233.2 L209.9 227.2 L215.1 223.8 L228.3 223.4 L229.9 220.5 L238.9 216.6 L245.7 220.2 L252.9 233.5 L250.2 233.1 L248.3 235.5 L256.8 238.8 L257.1 244.7 L242.8 246.8 L239.9 249.0 L242.9 249.8 L246.5 254.5 L247.3 257.3 L244.5 261.8 L247.3 263.2 L247.7 266.2 L242.9 262.7 L241.4 265.1 L238.2 265.8 L238.7 268.8 L236.3 270.9 L234.0 269.2 L234.0 266.1 L230.6 266.3 L230.4 275.8 L218.7 270.8 Z M270.6 269.2 L258.3 270.0 L247.7 266.2 L247.3 263.2 L244.5 261.8 L247.3 257.3 L246.5 254.5 L242.9 249.8 L239.9 249.0 L242.8 246.8 L257.1 244.7 L256.8 238.8 L248.3 235.5 L250.2 233.1 L252.9 233.5 L245.7 220.2 L246.1 218.0 L256.6 221.5 L258.7 219.6 L267.4 223.2 L270.4 223.6 L276.3 220.9 L281.4 222.6 L282.0 225.3 L288.7 225.1 L288.9 228.6 L290.9 230.6 L294.0 229.3 L299.2 232.6 L306.6 232.7 L305.9 235.1 L304.2 244.4 L298.4 259.7 L298.4 259.8 L291.8 265.7 L289.5 263.4 L279.9 263.6 L274.3 264.4 Z M256.6 221.5 L246.1 218.0 L249.7 209.4 L255.2 207.2 L253.3 189.9 L254.8 187.5 L254.9 175.4 L263.5 176.2 L263.6 176.2 L266.9 179.9 L269.3 178.3 L271.8 180.0 L278.5 176.7 L287.6 176.7 L288.3 174.0 L291.0 174.2 L292.9 180.2 L296.2 181.8 L296.2 184.7 L296.2 184.8 L291.9 187.5 L292.2 194.4 L287.8 198.4 L289.0 201.3 L284.0 205.9 L285.4 209.3 L279.9 217.0 L281.4 222.6 L276.3 220.9 L270.4 223.6 L267.4 223.2 L258.7 219.6 Z M312.7 235.3 L306.6 232.7 L299.2 232.6 L294.0 229.3 L290.9 230.6 L288.9 228.6 L288.7 225.1 L282.0 225.3 L281.4 222.6 L279.9 217.0 L285.4 209.3 L284.0 205.9 L289.0 201.3 L287.8 198.4 L292.2 194.4 L291.9 187.5 L296.2 184.8 L299.2 184.9 L310.2 179.0 L313.0 180.5 L314.6 188.9 L321.8 193.9 L324.7 192.9 L327.8 196.4 L331.0 197.1 L333.1 200.9 L332.7 202.7 L332.7 202.8 L330.7 204.9 L332.4 207.1 L332.8 212.6 L326.5 223.2 L323.3 224.3 L322.7 227.8 L315.0 232.3 L312.2 232.0 Z M271.8 307.1 L262.7 311.6 L260.3 309.8 L253.8 310.1 L255.2 307.2 L248.1 309.9 L245.7 309.6 L245.2 312.3 L241.3 309.0 L242.2 311.1 L240.4 308.6 L238.4 307.4 L235.5 307.5 L231.6 303.2 L228.2 302.7 L220.2 297.3 L219.0 292.0 L216.3 286.4 L207.6 276.9 L207.4 274.5 L208.6 272.2 L212.0 267.9 L212.8 265.3 L213.1 265.2 L218.7 270.8 L230.4 275.8 L230.6 266.3 L234.0 266.1 L234.0 269.2 L236.3 270.9 L238.7 268.8 L238.2 265.8 L241.4 265.1 L242.9 262.7 L247.7 266.2 L258.3 270.0 L260.6 275.7 L264.8 279.8 L269.5 297.7 L269.3 305.1 Z"/><path id="nouvelle-aquitaine" data-name="Nouvelle-Aquitaine" d="M294.8 379.2 L292.8 381.2 L292.8 381.1 L286.5 374.8 L280.5 373.6 L282.2 370.6 L279.9 368.6 L282.3 366.9 L280.8 364.3 L282.5 361.7 L280.1 360.0 L279.8 357.0 L274.8 353.9 L277.0 351.8 L273.8 346.2 L281.9 342.9 L284.2 344.9 L286.9 344.8 L289.6 333.2 L292.3 331.6 L292.6 328.6 L298.4 326.1 L301.9 326.5 L302.7 325.7 L302.8 325.7 L311.9 328.7 L314.8 327.9 L313.4 325.5 L315.6 323.7 L319.7 327.6 L323.5 326.2 L324.8 323.7 L329.6 324.3 L329.4 329.4 L334.1 333.0 L333.5 336.2 L330.9 337.3 L326.9 345.3 L324.1 345.9 L320.7 349.7 L320.8 349.7 L315.1 355.8 L313.0 361.1 L305.1 367.0 L304.4 372.7 L300.3 378.5 Z M242.8 341.1 L241.4 336.1 L237.9 333.1 L236.6 330.8 L238.1 327.2 L239.8 329.0 L242.7 329.5 L244.1 337.9 Z M290.8 378.2 L290.8 378.3 L290.7 378.7 L288.7 383.7 L279.3 382.7 L273.2 378.4 L272.6 372.6 L266.2 370.9 L265.5 368.1 L261.7 368.6 L259.9 361.3 L256.2 356.5 L251.9 353.8 L250.4 351.2 L241.4 344.7 L240.3 340.4 L241.8 338.7 L244.0 338.3 L244.1 335.7 L247.4 332.6 L247.6 327.5 L249.1 325.6 L246.1 318.4 L243.9 316.7 L241.5 316.4 L246.0 310.5 L246.6 307.1 L246.1 307.0 L253.2 304.3 L251.8 307.2 L258.3 306.9 L260.7 308.7 L260.7 312.4 L266.6 318.9 L284.0 325.6 L287.6 330.3 L284.9 341.9 L282.2 342.0 L279.9 340.0 L271.8 343.3 L275.0 348.9 L272.8 351.0 L277.8 354.1 L278.1 357.1 L280.5 358.8 L278.8 361.4 L280.3 364.0 L277.9 365.7 L280.2 367.7 L278.5 370.7 L284.5 371.9 Z M363.6 392.3 L355.5 393.1 L352.0 386.1 L348.8 385.4 L348.6 382.4 L346.3 380.9 L348.3 379.1 L346.6 376.1 L350.2 371.5 L347.3 366.8 L348.9 364.1 L351.4 365.3 L356.1 361.3 L361.8 360.0 L366.7 355.4 L375.4 351.4 L382.4 348.0 L393.6 353.2 L395.9 350.6 L398.6 351.4 L401.0 349.0 L402.2 354.6 L400.5 357.0 L401.7 364.9 L402.4 370.9 L396.2 368.9 L395.6 372.4 L388.0 381.9 L389.8 384.1 L387.5 386.0 L387.2 389.5 L384.1 390.6 L385.6 394.0 L382.4 395.9 L382.3 395.9 L375.6 395.7 L370.3 398.4 Z M396.6 343.5 L401.0 349.0 L398.6 351.4 L395.9 350.6 L393.6 353.2 L382.4 348.0 L375.4 351.4 L374.8 345.5 L370.1 342.5 L363.7 342.0 L363.6 339.2 L360.7 337.7 L361.6 334.3 L359.8 329.1 L353.2 319.3 L356.2 314.0 L355.0 311.4 L357.8 308.5 L369.3 307.4 L371.2 304.9 L384.4 307.6 L387.1 306.8 L392.0 307.0 L393.1 310.9 L394.6 311.9 L396.1 312.8 L397.5 313.8 L399.0 314.7 L400.5 315.7 L404.1 324.1 L403.6 328.2 L405.9 334.9 Z M307.7 414.3 L304.9 407.9 L303.9 406.6 L304.8 403.7 L302.4 401.1 L300.4 404.3 L290.6 402.0 L292.6 400.0 L292.8 394.3 L295.6 388.8 L294.4 386.0 L290.7 386.6 L292.7 381.6 L292.8 381.2 L294.8 379.2 L300.3 378.5 L304.4 372.7 L305.1 367.0 L313.0 361.1 L315.1 355.8 L320.8 349.7 L327.0 352.7 L326.9 357.4 L336.4 356.3 L343.6 361.9 L341.6 364.6 L347.3 366.8 L350.2 371.5 L346.6 376.1 L348.3 379.1 L346.3 380.9 L348.6 382.4 L348.8 385.4 L352.0 386.1 L355.5 393.1 L354.8 398.1 L353.4 403.4 L348.9 406.6 L349.5 410.2 L343.5 413.6 L338.8 420.1 L334.6 415.9 L329.2 418.6 L327.7 412.6 L321.6 413.6 L319.4 411.8 L316.6 413.8 Z M243.9 420.1 L238.1 422.7 L238.1 418.1 L240.3 414.9 L240.8 412.6 L242.7 410.9 L244.5 412.3 L247.6 412.1 L246.5 407.5 L243.0 404.1 L240.2 408.1 L239.0 411.9 L245.2 361.9 L246.1 359.1 L249.4 355.7 L250.8 360.4 L259.8 369.4 L262.6 377.0 L264.3 373.9 L263.7 371.5 L267.5 371.0 L268.2 373.8 L274.6 375.5 L275.2 381.3 L281.3 385.6 L290.7 386.6 L294.4 386.0 L295.6 388.8 L292.8 394.3 L292.6 400.0 L290.6 402.0 L300.4 404.3 L302.4 401.1 L304.8 403.7 L303.9 406.6 L304.9 407.9 L301.8 407.8 L300.6 410.3 L297.9 409.4 L296.8 412.7 L299.7 414.1 L291.2 422.7 L290.6 431.6 L287.6 433.9 L289.1 436.4 L284.6 440.4 L282.5 437.7 L280.9 441.3 L274.5 441.3 L273.9 436.6 L262.9 428.9 L263.3 426.1 L246.1 426.8 L247.6 421.4 Z M222.3 481.2 L223.4 479.7 L227.3 472.6 L236.1 434.8 L238.1 423.1 L238.1 422.7 L243.9 420.1 L247.6 421.4 L246.1 426.8 L263.3 426.1 L262.9 428.9 L273.9 436.6 L274.5 441.3 L280.9 441.3 L282.5 437.7 L284.6 440.4 L285.0 445.0 L296.7 447.9 L293.1 453.1 L293.8 455.7 L293.4 458.6 L290.9 459.9 L290.3 456.9 L280.9 459.6 L281.4 466.0 L277.2 477.1 L278.8 479.8 L270.2 481.3 L266.9 480.2 L262.1 482.1 L259.9 480.1 L257.6 481.6 L255.1 479.3 L245.3 481.3 L243.7 483.5 L241.2 482.1 L238.5 483.4 L237.3 480.6 L226.3 483.1 Z M293.8 455.6 L293.8 455.7 L293.1 453.1 L296.7 447.9 L285.0 445.0 L284.6 440.4 L289.1 436.4 L287.6 433.9 L290.6 431.6 L291.2 422.7 L299.7 414.1 L296.8 412.7 L297.9 409.4 L300.6 410.3 L301.8 407.8 L304.9 407.9 L307.7 414.3 L316.6 413.8 L319.4 411.8 L321.6 413.6 L327.7 412.6 L329.2 418.6 L334.6 415.9 L338.8 420.1 L335.4 423.2 L338.1 432.3 L330.6 434.3 L330.6 437.2 L333.0 438.6 L328.6 444.1 L329.9 446.8 L327.1 446.6 L323.5 451.3 L320.8 452.6 L312.2 451.6 L307.2 454.5 L298.9 453.8 L297.5 456.3 Z M275.3 516.2 L273.9 525.5 L273.7 525.7 L270.1 526.8 L267.4 524.7 L266.3 526.8 L264.2 525.9 L260.3 521.9 L257.6 520.6 L257.3 517.8 L255.9 515.7 L253.6 516.7 L247.8 516.3 L241.7 512.5 L239.2 512.5 L237.7 510.7 L231.8 508.4 L233.1 506.0 L230.8 506.1 L230.1 509.5 L225.8 509.6 L224.5 507.4 L226.6 505.2 L229.1 498.5 L227.7 495.7 L225.2 495.6 L222.8 494.3 L220.6 496.4 L218.2 495.4 L218.0 493.2 L213.5 493.4 L211.6 488.9 L216.1 488.0 L218.8 486.1 L222.3 481.2 L226.3 483.1 L237.3 480.6 L238.5 483.4 L241.2 482.1 L243.7 483.5 L245.3 481.3 L255.1 479.3 L257.6 481.6 L259.9 480.1 L262.1 482.1 L266.9 480.2 L270.2 481.3 L278.8 479.8 L285.4 480.1 L287.9 485.9 L286.4 488.7 L289.3 488.7 L289.8 495.9 L287.1 497.3 L287.9 500.4 L279.9 509.7 L280.3 512.6 L276.9 513.4 Z M292.3 331.6 L289.6 333.2 L286.0 328.5 L268.6 321.8 L262.7 315.3 L262.7 311.6 L271.8 307.1 L269.3 305.1 L269.5 297.7 L264.8 279.8 L260.6 275.7 L258.3 270.0 L270.6 269.2 L274.3 264.4 L279.9 263.6 L289.5 263.4 L291.8 265.7 L295.2 274.7 L294.4 277.7 L297.1 278.9 L292.6 293.0 L295.3 292.1 L296.8 295.1 L293.4 300.6 L293.9 306.4 L296.0 308.4 L295.9 311.2 L302.3 311.4 L299.1 319.9 L303.6 322.9 L302.8 325.7 L302.7 325.7 L301.9 326.5 L298.4 326.1 L292.6 328.6 Z M329.6 320.8 L329.6 324.3 L324.8 323.7 L323.5 326.2 L319.7 327.6 L315.6 323.7 L313.4 325.5 L314.8 327.9 L311.9 328.7 L302.8 325.7 L303.6 322.9 L299.1 319.9 L302.3 311.4 L295.9 311.2 L296.0 308.4 L293.9 306.4 L293.4 300.6 L296.8 295.1 L295.3 292.1 L292.6 293.0 L297.1 278.9 L294.4 277.7 L295.2 274.7 L291.8 265.7 L298.4 259.8 L303.9 263.0 L304.2 266.2 L307.1 265.9 L308.4 272.0 L311.2 273.4 L321.2 273.0 L319.8 270.1 L325.1 273.1 L325.4 276.2 L332.5 286.2 L334.6 289.2 L333.8 295.0 L338.4 299.4 L341.3 299.4 L343.9 304.8 L346.4 306.1 L344.9 308.9 L344.1 308.6 L342.8 311.0 L339.5 310.1 L338.2 313.1 L332.6 315.8 Z M348.9 364.1 L347.3 366.8 L341.6 364.6 L343.6 361.9 L336.4 356.3 L326.9 357.4 L327.0 352.7 L320.8 349.7 L320.7 349.7 L324.1 345.9 L326.9 345.3 L330.9 337.3 L333.5 336.2 L334.1 333.0 L329.4 329.4 L329.6 324.3 L329.6 320.8 L332.6 315.8 L338.2 313.1 L339.5 310.1 L342.8 311.0 L344.1 308.6 L344.9 308.9 L347.5 310.0 L353.3 308.9 L355.0 311.4 L356.2 314.0 L353.2 319.3 L359.8 329.1 L361.6 334.3 L360.7 337.7 L363.6 339.2 L363.7 342.0 L370.1 342.5 L374.8 345.5 L375.4 351.4 L366.7 355.4 L361.8 360.0 L356.1 361.3 L351.4 365.3 Z"/><path id="occitanie" data-name="Occitanie" d="M369.8 543.6 l l 0.8 -0.9 -2.6 -1.1 -2 -2.1 -3.7 -0.1 -1.7 -1.7 -2.8 0.4 -1.3 2.1 -2.4 -0.8 -2.8 -5.9 -10 -0.6 -1.3 -2.8 -13.2 -3.9 -0.5 -1.4 3.8 -5.2 2.8 -1 v -5.9 l 3.9 -4 2.8 -1.1 6.2 4.1 -0.4 -5.6 5.4 -1.6 -3 -4.8 2.8 -1.1 3.4 5.5 2.8 -0.5 0.6 -2.8 5.7 2.2 2 -2.3 2.2 5.5 8.7 3.9 2.2 5.2 0.2 3.1 -2.2 2.3 2.4 2.5 -1.2 3 -3.2 0.6 0.8 5.7 3.4 1.5 3.3 -1.2 4.8 5.6 -7.4 0.2 -1.3 2.6 z M435.1 504.4 l l -1.5 1.5 -5.2 9.3 -0.9 3.5 0.1 9.6 -9.4 -5.6 -8.2 5.4 -13.6 -1 -2.7 1.4 1.4 6 -8.6 3.9 -4.8 -5.6 -3.3 1.2 -3.4 -1.5 -0.8 -5.7 3.2 -0.6 1.2 -3 -2.4 -2.5 2.2 -2.3 -0.2 -3.1 -2.2 -5.2 -8.7 -3.9 -2.2 -5.5 8.4 -10 1.4 2.7 5.2 -1.8 0.5 -0.8 1.8 2.3 6.3 0.9 1.1 -3.3 2.8 -0.5 12 1.4 -0.5 2.8 3.5 5 2.5 -1.6 1.4 2.9 3.1 -0.8 3.8 -5.3 1 2.9 13.8 4.7 1.7 2 z M430.8 440.7 l l 9.4 4.5 -2 3.9 -2.8 1.1 8.4 4.1 -4.3 5.3 0.3 1.5 -3.7 1 -3 5.3 -6.3 -1.3 -0.1 8.7 -5.7 -0.1 -1.3 -2.8 -11.1 -1.3 -4.2 -5 -4.3 -11.5 -4.8 -4.3 -10.3 -5.8 -6.1 2.8 -4.3 -3.6 2.3 -2.4 -3.1 -2.7 0.4 -3 -0.8 -9.1 7.6 -5 5.9 -1.4 1.7 -1.5 h 0.1 l 5.1 -3.2 6.4 1.5 3.8 -4.8 3 -9.1 4.7 -4.2 5.2 4 1.3 4.2 2.4 1.6 -0.5 3 2.6 5.1 v 0.1 l 4.2 4.5 2.9 8.8 -0.5 8.7 z M480 487.2 l l -2.8 -0.6 -1.9 -1.6 -1.1 -3.4 h -0.1 l 3.3 -4.4 -1.5 -3 -6.1 -6.7 -3 -0.2 -0.2 -3 -6.8 -1.4 0.9 -2.7 -1.9 -2.6 -3.9 0.6 -4.2 3.9 -0.1 2.8 -5.3 -2.5 -2.2 1.7 -0.4 -2.9 -2.9 -0.1 -0.3 -1.5 4.3 -5.3 -8.4 -4.1 2.8 -1.1 2 -3.9 7.8 3.4 3.9 -0.5 0.1 -3.3 8.7 2.2 6.3 -1.8 -1.4 -3 1.2 -2.9 -3.9 -7.7 3.6 -2.5 1.1 -2.1 2.7 5.9 7.8 5 7.1 -4.3 0.1 3.1 2.5 -2.3 h 2.8 l 6 3.5 2.6 4.4 0.2 5.5 6.3 6.4 -4.5 5 -3.9 4.1 -1.9 10.6 -3.3 -0.9 -4.2 4.8 1 2.7 -5.8 1.8 z M326.8 526.2 l l -5.5 -1.5 -1.2 2.4 0.2 7.6 -8.8 -0.7 -1.7 0.3 -0.6 -7 5.5 -3.2 2.6 -5.3 -0.8 -2.7 -3.1 0.3 0.6 -3.5 -4.6 -4 7.1 -11.2 3.1 -1.1 3.5 -5.3 11.4 2.5 0.7 -5.8 6.5 -6.1 -9.1 -13.3 9.9 -0.9 1.7 2.3 5.8 -2.5 -2.2 -2.3 11.7 -4.3 1.4 6.3 2.6 1.2 0.2 2.8 2.3 2.1 -0.7 5.4 14.3 9.3 1 2.8 -0.5 0.8 -5.2 1.8 -1.4 -2.7 -8.4 10 -2 2.3 -5.7 -2.2 -0.6 2.8 -2.8 0.5 -3.4 -5.5 -2.8 1.1 3 4.8 -5.4 1.6 0.4 5.6 -6.2 -4.1 -2.8 1.1 -3.9 4 v 5.9 l -2.8 1 -3.8 5.2 z M330.6 461.7 l l 2 6.9 9.1 13.3 -6.5 6.1 -0.7 5.8 -11.4 -2.5 -3.5 5.3 -3.1 1.1 -12.4 -2.2 -1.4 -3 -5.5 0.6 -2.6 -8.7 -3.3 -1.3 -2 -3.5 -3.9 0.5 -6.6 -0.3 -1.6 -2.7 4.2 -11.1 -0.5 -6.4 9.4 -2.7 0.6 3 2.5 -1.3 0.4 -2.9 v -0.1 l 3.7 0.7 1.4 -2.5 8.3 0.7 5 -2.9 8.6 1 2.7 -1.3 5.3 1.7 -3.3 4.6 z M474.1 481.6 l l -2.4 -0.1 -5.9 2.6 -3.6 3.2 -7.2 4.6 -4.3 4.2 2.1 -3.5 -4.3 6.6 h -6.8 l -5.5 4 -1.1 1.2 -0.2 -0.2 -1.7 -2 -13.8 -4.7 -1 -2.9 -3.8 5.3 -3.1 0.8 -1.4 -2.9 -2.5 1.6 -3.5 -5 0.5 -2.8 3.4 -2 0.8 -3 -0.7 -9.7 6.1 2.2 c 2.3 -1.5 4.6 -2.9 6.8 -4.4 l 5.7 0.1 0.1 -8.7 6.3 1.3 3 -5.3 3.7 -1 2.9 0.1 0.4 2.9 2.2 -1.7 5.3 2.5 0.1 -2.8 4.2 -3.9 3.9 -0.6 1.9 2.6 -0.9 2.7 6.8 1.4 0.2 3 3 0.2 6.1 6.7 1.5 3 z M385.4 413.1 l l 3.3 5 h -0.1 l -1.7 1.5 -5.9 1.4 -7.6 5 0.8 9.1 -6.2 0.8 -7.5 5.5 -2.6 -2.3 -8.7 2.5 -0.5 -4 -2.4 1.5 -2.7 -1 -4.5 -4 2.1 -2.3 -3.1 0.5 -2.7 -9.1 3.4 -3.1 4.7 -6.5 6 -3.4 -0.6 -3.6 4.5 -3.2 1.4 -5.3 0.7 -5 8.1 -0.8 6.7 6.1 5.3 -2.7 6.7 0.2 1 5.4 3.8 6 z M463.4 418.7 l l 4.2 8.3 -1.1 2.1 -3.6 2.5 3.9 7.7 -1.2 2.9 1.4 3 -6.3 1.8 -8.7 -2.2 -0.1 3.3 -3.9 0.5 -7.8 -3.4 -9.4 -4.5 -1.5 -2.4 0.5 -8.7 -2.9 -8.8 -4.2 -4.5 v -0.1 l 6.9 -15.9 1.7 2.3 6.8 -5.7 1 -1 2.3 1.7 1.5 5.7 6.4 1.2 0.1 -2.8 2.9 0.2 9 7.7 z M314.7 524.1 l l -5.5 3.2 0.6 7 -0.7 0.2 -2.3 -1.6 -2.4 1.8 -2.5 -0.5 -1.9 -1.7 -3.9 -0.3 -6.9 2.1 -2.2 -0.9 -2.1 -1.7 -1.1 -2.5 -7.8 -5.5 -2.1 1.8 1.4 -9.3 1.6 -2.8 3.4 -0.8 -0.4 -2.9 8 -9.3 -0.8 -3.1 2.7 -1.4 -0.5 -7.2 h -2.9 l 1.5 -2.8 -2.5 -5.8 3.9 -0.5 2 3.5 3.3 1.3 2.6 8.7 5.5 -0.6 1.4 3 12.4 2.2 -7.1 11.2 4.6 4 -0.6 3.5 3.1 -0.3 0.8 2.7 z M427.6 528.3 l l 0.3 15.6 3.9 3.3 1.9 3.8 h -2.3 l -8.1 -2.7 -6.9 3.9 -3 -0.2 -2.4 1.1 -0.6 2.4 -2.1 1.2 -2.4 -0.7 -2.9 1 -4 -3.1 -7 -2.9 -2.5 1.4 h -3 l -1 2.1 -4.6 2 -1.9 -1.7 -1.7 -4.8 -7.5 -2 -2 -2.1 2 -2.3 8 -2.4 1.3 -2.6 7.4 -0.2 8.6 -3.9 -1.4 -6 2.7 -1.4 13.6 1 8.2 -5.4 z M419.7 471.9 l l 1.3 2.8 c -2.2 1.5 -4.5 2.9 -6.8 4.4 l -6.1 -2.2 0.7 9.7 -0.8 3 -3.4 2 -12 -1.4 -2.8 0.5 -1.1 3.3 -6.3 -0.9 -1.8 -2.3 -1 -2.8 -14.3 -9.3 0.7 -5.4 -2.3 -2.1 -0.2 -2.8 -2.6 -1.2 -1.4 -6.3 0.5 -2.8 4.8 -3.2 1 -2.7 -1.8 -2.2 3 -1.1 2.7 1.1 9.2 -3.2 6.1 -2.8 10.3 5.8 4.8 4.3 4.3 11.5 4.2 5 z M360 458.1 l l -0.5 2.8 -11.7 4.3 2.2 2.3 -5.8 2.5 -1.7 -2.3 -9.9 0.9 -2 -6.9 -5.1 -4.1 3.3 -4.6 -5.3 -1.7 3.6 -4.7 2.8 0.2 -1.3 -2.7 4.4 -5.5 -2.4 -1.4 v -2.9 l 7.5 -2 3.1 -0.5 -2.1 2.3 4.5 4 2.7 1 2.4 -1.5 0.5 4 8.7 -2.5 2.6 2.3 7.5 -5.5 6.2 -0.8 -0.4 3 3.1 2.7 -2.3 2.4 4.3 3.6 -9.2 3.2 -2.7 -1.1 -3 1.1 1.8 2.2 -1 2.7 z"/><path id="grand-est" data-name="Grand Est" d="M469.9 88.1 l l 0.8 0.3 9.8 0.4 7.3 -3.2 1.1 -6 4 -3.8 2.8 -0.2 v 3.8 l -1.7 1.6 -0.6 5.2 3.3 4.5 -1 2.4 0.6 3.1 1.4 1.9 3.3 -0.9 4.3 2.4 2.8 3.8 4.9 0.6 2 1.7 -0.9 2.4 2.1 -0.1 -1.6 1.1 -2 2.7 -5.7 -2.1 -1.9 2 0.8 8.8 -3.2 5.1 1.4 2.5 -4.2 3.6 v 0.1 l -20.1 -1.9 -9.8 -6.6 -6.7 -0.9 -0.3 -14.3 2.7 -0.3 5 -7.2 -1.3 -3.1 1.3 -3.5 z M442.2 186.9 l l -3.6 -1.5 -0.4 -8.5 2.9 -0.8 3 -5 3.2 4.5 9 1.2 v -3.3 l 9.5 -7.6 6.5 -0.9 3.1 0.5 0.4 6.1 2.6 2 c 1.9 0.8 3.8 1.5 5.6 2.3 l 2.5 -1.5 3.3 1.1 -0.6 3.4 2.4 5.2 5.6 3 0.5 9.9 -0.1 2.7 -5.6 2.5 0.2 4.8 -3.9 -0.5 -4.7 3.9 -6.1 0.9 -2.2 2 -2.9 -1.4 -12.6 1.6 -5 -10.9 -3.6 -4.1 -2 2.2 -2.5 -8.3 z M440.6 158.9 l l 0.4 -2 7.7 -10.2 -2.5 -1.3 0.8 -2.7 -1.6 -2.4 5.5 -2.3 -3.2 -8 1.2 -2.6 8 -4 5.3 1.8 1 -2.8 6.7 0.9 9.8 6.6 20.1 1.9 2.2 9 -1 4.1 2.6 1.3 -0.6 3.9 -3.1 1.1 -1.1 5.8 3.2 4.6 0.5 4.1 -8.6 2.2 2.2 2.5 -2.3 2.2 0.7 2.9 h -4.7 l -3.3 -1.1 -2.5 1.5 c -1.8 -0.8 -3.7 -1.5 -5.6 -2.3 l -2.6 -2 -0.4 -6.1 -3.1 -0.5 -6.5 0.9 -9.5 7.6 v 3.3 l -9 -1.2 -3.2 -4.5 -2.6 -1.7 -3.5 -8.3 z M493.9 167.9 l l 8.6 -2.2 3.4 5.2 16.9 10.4 -2.4 2.3 12.7 9.5 -1.7 8.6 5.5 4.7 0.2 3.1 2.7 -1.1 1.3 2.5 v 0.1 l 0.2 1.4 -2.3 3.2 -2.9 -0.3 -2 2.4 -0.3 8.3 -3.2 1 -2.1 -1.8 -6.6 3.9 -1.2 2.5 -4.8 1.9 v -2.8 l -3 -1.6 -9.2 -2 -2.3 -4.8 2.8 -2.4 -1 -3.1 -1.8 -2.2 -2.9 -0.3 0.3 -2.9 -2.6 -1 -0.5 -2.7 -3.5 -0.7 -0.2 -4.8 5.6 -2.5 0.1 -2.7 -0.5 -9.9 -5.6 -3 -2.4 -5.2 0.6 -3.4 h 4.7 l -0.7 -2.9 2.3 -2.2 z M588.2 170.9 l l 1.9 1.3 -1.5 0.4 -10.6 7.6 -6.1 -1.6 -1.6 -2.7 -5.3 3.8 -6 1 -2.4 -1.8 -5.4 2 -1.1 2.8 -5.7 0.7 -4.1 -4.8 0.1 -2.9 -5.8 -0.6 0.2 -2.9 -2.5 -2 1.7 -2.8 -1.3 -8.6 2.2 -13.8 0.9 -2.7 -4.9 -11.5 1.5 -5.9 -1.2 -2.7 -4.4 -4.8 -5.3 2 -0.7 -5.3 4.8 -1.7 2 -1.9 h 6.8 l 2.5 2.3 2.7 10.2 2.5 1.6 1.2 3.6 -1.7 3.1 1 5.6 -2.8 0.1 4.3 7.5 11.5 4 -0.3 2.9 2.7 5.1 8.5 1.5 5.3 3.9 14.4 5.3 z M516.2 108 l l 1.2 -0.1 1.5 1.6 1.9 5.6 0.7 5.3 5.3 -2 4.4 4.8 1.2 2.7 -1.5 5.9 4.9 11.5 -0.9 2.7 -2.2 13.8 1.3 8.6 -1.7 2.8 2.5 2 -0.2 2.9 -1.9 2.3 -3 -0.5 -6.9 3.4 -16.9 -10.4 -3.4 -5.2 -0.5 -4.1 -3.2 -4.6 1.1 -5.8 3.1 -1.1 0.6 -3.9 -2.6 -1.3 1 -4.1 -2.2 -9 v -0.1 l 4.2 -3.6 -1.4 -2.5 3.2 -5.1 -0.8 -8.8 1.9 -2 5.7 2.1 2 -2.7 z M539.6 124 l l -2.6 -10.2 0.6 0.6 h 2.4 l 1.5 2.1 2.3 0.7 2.3 -0.5 1 -2.3 2 -1.2 2.2 -0.2 4.5 2.3 4.9 -0.1 3.1 3.8 2.3 1.9 -0.5 2 3.7 3.2 2.8 4.5 v 2.3 l 4.2 0.7 1.2 -1.9 -0.3 -2.4 2.6 -0.2 3.8 1.8 1.4 3.5 2.1 -1.5 2.5 1.9 5.8 -0.4 5.3 -4.2 2.2 1.4 0.5 2.1 2.4 2.4 3.2 1.5 -1.7 4.4 -1.4 2.6 -8.9 0.3 -9.1 -4.6 -0.8 -2.8 -5 10.8 5.5 2.4 -1.6 2.5 2.3 1.7 1.3 -2.5 3 0.3 4.3 3.4 -3 13.3 -2.3 1.8 -3.4 -0.3 -2 -2.7 -14.4 -5.3 -5.3 -3.9 -8.5 -1.5 -2.7 -5.1 0.3 -2.9 -11.5 -4 -4.3 -7.5 2.8 -0.1 -1 -5.6 1.7 -3.1 -1.2 -3.6 z M631.8 140.7 l l -2.8 9.4 -7.8 10.5 -2 1.5 -1.4 3.3 0.3 4.9 -2.4 7.2 0.7 3.6 -1.5 2 -1.2 5.5 -3.2 6.2 -4.6 -1.8 -0.3 -2.8 -8.5 -5.6 -3.1 -0.2 -5.2 -2.2 1.3 -10 -1.9 -1.3 3.4 0.3 2.3 -1.8 3 -13.3 -4.3 -3.4 -3 -0.3 -1.3 2.5 -2.3 -1.7 1.6 -2.5 -5.5 -2.4 5 -10.8 0.8 2.8 9.1 4.6 8.9 -0.3 1.4 -2.6 1.7 -4.4 8.9 0.6 2.4 -0.6 z M605.9 193 l l 4.6 1.8 v 0.1 5.3 l 1.6 1.9 0.2 3.4 -2.2 11.1 0.1 6.7 1.8 1.5 0.6 3.5 -2.2 2 -0.2 2.3 -3.1 0.9 0.5 2.2 -1.5 1.6 h -2.7 l -3.8 1.4 -3 -1.1 0.3 -2.5 -2.4 -1.1 -0.4 0.1 -2 -5 -2.8 0.2 -0.5 -9 -7.6 -5 2.8 -2.4 v -6.2 l 4.8 -7.8 4.1 -13.5 1.1 -1 3.1 0.2 8.5 5.6 z M520.4 183.6 l l 2.4 -2.3 6.9 -3.4 3 0.5 1.9 -2.3 5.8 0.6 -0.1 2.9 4.1 4.8 5.7 -0.7 1.1 -2.8 5.4 -2 2.4 1.8 6 -1 5.3 -3.8 1.6 2.7 6.1 1.6 10.6 -7.6 1.5 -0.4 -1.3 10 5.2 2.2 -1.1 1 -4.1 13.5 -4.8 7.8 v 6.2 l -2.8 2.4 -0.9 0.6 -8.4 -6.6 -5.1 2.2 -4.9 -3.6 -5.8 1.6 -7 -4.3 -8 5.8 v -0.1 l -1.3 -2.5 -2.7 1.1 -0.2 -3.1 -5.5 -4.7 1.7 -8.6 z"/><path id="bourgogne-franche-comte" data-name="Bourgogne-Franche-Comté" d="M523.6 241.7 l l 3.9 8.2 -1.2 1.3 -1.8 8.2 -6.2 6.8 -1.1 4.1 v -0.1 l -15 1.5 -8.8 4.2 -5.6 -6.3 -5.5 -1.9 -1.3 -2.6 -5.7 -1.7 -2.4 -2.6 v -0.8 l 0.4 -3.2 -3.7 -1.2 -1.3 -6 h 0.1 l -1.3 -2.7 1.3 -8.1 6.7 -10.4 -1.7 -2.3 2.8 -2.1 0.3 -3.7 -3.1 -3.9 1.9 -3.1 2.2 -2 6.1 -0.9 4.7 -3.9 3.9 0.5 3.5 0.7 0.5 2.7 2.6 1 -0.3 2.9 2.9 0.3 1.8 2.2 1 3.1 -2.8 2.4 2.3 4.8 9.2 2 3 1.6 v 2.8 l 4.8 -1.9 h 0.1 l 2.7 -1.6 2 3 0.1 3.2 -4.6 4.1 z M590.1 245.2 l l -2.4 2.2 0.4 3 -4.8 6.2 -4.8 4 -0.4 2.9 -2.5 2.7 -5.7 1.7 -0.3 0.3 -1.7 2.3 0.9 2.7 -0.7 4.5 0.5 2.5 -9.5 8.8 -2.9 5.2 -0.2 0.7 -3.7 -3.5 3.6 -7.4 2.1 -2.3 -4.2 -4.1 -2.9 -0.5 -5.8 -10.1 -3 0.8 -1.5 -2.5 -2 2.1 -1.2 -2.5 3 -5.1 -5.2 -7.8 22.3 -10.2 3 -4.7 5.6 -1.9 2.8 0.9 1.8 -2.2 3.2 -0.4 0.5 -2.8 5.9 0.8 0.2 -0.1 h 0.1 l 5.9 2.7 -1.4 2.5 1.4 2.4 0.4 -0.5 -0.1 0.2 -2.2 4.9 7 -0.7 z M552.3 291.4 l l 3.7 3.5 -2.6 8.1 -5.3 7.2 -5.5 3.2 -3.8 0.2 -0.4 -2.8 -3.4 -1.6 -4 4.4 -2.9 0.1 -0.1 -3 h -2.9 l -4.3 -7.7 2.8 -1.1 -0.8 -5.3 2.8 -5 -2.2 -8.7 -2.5 -1.6 5 -3.7 -8.3 -4.4 -0.4 -2.9 1.1 -4.1 6.2 -6.8 1.8 -8.2 1.2 -1.3 2.3 2 5.4 0.1 5.2 7.8 -3 5.1 1.2 2.5 2 -2.1 1.5 2.5 3 -0.8 5.8 10.1 2.9 0.5 4.2 4.1 -2.1 2.3 z M462.8 250 l l 5.5 -0.4 1.3 6 3.7 1.2 -0.4 3.2 v 0.8 l -1.1 0.3 -2.7 0.4 v 1.3 l -2.8 1 0.3 5.9 -2.1 1.7 4 7 -1.9 2.1 0.7 2.9 -11.3 5.7 -7 -2.8 -5.9 6 -4.4 -3.7 -2.8 1.7 -6.4 -0.2 -5.7 -6.3 1.3 -8.9 0.2 -5.8 -2.2 -2 -0.3 -5.9 -3.1 -7.6 -2.7 -2.1 1.7 -5.8 -2 -6.5 1.5 -2.4 2.8 -0.7 v 0.1 h 3.4 l 7.4 4.8 h 6 l 4.6 -4.3 3.9 5.6 5.5 3 5.8 -0.9 0.9 3.7 2.8 -0.9 z M579.1 225.9 l l 1.4 5.5 -0.2 0.1 -5.9 -0.8 -0.5 2.8 -3.2 0.4 -1.8 2.2 -2.8 -0.9 -5.6 1.9 -3 4.7 -22.3 10.2 -5.4 -0.1 -2.3 -2 -3.9 -8.2 -2.6 -1.4 4.6 -4.1 -0.1 -3.2 -2 -3 -2.7 1.6 h -0.1 l 1.2 -2.5 6.6 -3.9 2.1 1.8 3.2 -1 0.3 -8.3 2 -2.4 2.9 0.3 2.3 -3.2 -0.2 -1.4 8 -5.8 7 4.3 5.8 -1.6 4.9 3.6 5.1 -2.2 8.4 6.6 -2.3 5.7 z M517.2 270.2 l v 0.1 l 0.4 2.9 8.3 4.4 -5 3.7 2.5 1.6 2.2 8.7 -2.8 5 0.8 5.3 -2.8 1.1 -4.8 -3.3 -5.4 1.3 -5.9 -1.5 -5.9 20.9 -5.7 -7.7 -1.6 2.3 -2.5 -1.5 -2.2 1.6 -2.2 -1.7 -2.3 1.9 -0.3 2.9 v 0.1 l -5.7 3.8 -2.1 -2.1 -8 1.5 -5.2 -3.3 v -3 l 3.7 -4.6 0.5 -5.5 -1.6 -2.4 -7.9 -2.9 -6.7 -13.5 7 2.8 11.3 -5.7 -0.7 -2.9 1.9 -2.1 -4 -7 2.1 -1.7 -0.3 -5.9 2.8 -1 2.7 -1.7 1.1 -0.3 2.4 2.6 5.7 1.7 1.3 2.6 5.5 1.9 5.6 6.3 8.8 -4.2 z M425.8 207.1 l l -6.7 -7.5 3.9 -5.4 0.2 -5.8 15.4 -3 3.6 1.5 4.5 5.5 2.5 8.3 2 -2.2 3.6 4.1 5 10.9 12.6 -1.6 2.9 1.4 -1.9 3.1 3.1 3.9 -0.3 3.7 -2.8 2.1 1.7 2.3 -6.7 10.4 -1.3 8.1 1.3 2.7 h -0.1 l -5.5 0.4 -1.5 -2.8 -2.8 0.9 -0.9 -3.7 -5.8 0.9 -5.5 -3 -3.9 -5.6 -4.6 4.3 h -6 l -7.4 -4.8 h -3.4 v -0.1 l -2.2 -6.9 -3 -2.8 5.3 -3.3 1.6 -2.4 -1.1 -2.9 4.6 -4.9 z M580.3 215.9 l l 0.9 -0.6 7.6 5 0.5 9 2.8 -0.2 2 5 -0.1 0.1 -2.8 0.4 -1.1 -0.4 -3.2 4.3 -0.4 0.5 -1.4 -2.4 1.4 -2.5 -5.9 -2.7 h -0.1 l -1.4 -5.5 -1.1 -4.3 z"/><path id="auvergne-rhone-alpes" data-name="Auvergne-Rhône-Alpes" d="M542.0 347.0 L536.3 353.7 L525.1 338.5 L522.3 339.2 L519.3 344.3 L513.3 342.3 L506.9 342.8 L503.2 337.1 L500.4 337.6 L497.3 328.4 L498.8 320.4 L504.7 299.5 L510.6 301.0 L516.0 299.7 L520.8 303.0 L525.1 310.7 L528.0 310.7 L528.1 313.7 L531.0 313.6 L535.0 309.2 L538.4 310.8 L538.8 313.6 L542.6 313.4 L548.1 310.2 L553.4 303.0 L557.9 305.7 L556.1 310.4 L556.4 312.9 L552.0 314.4 L550.1 316.4 L550.3 319.2 L550.8 319.4 L546.4 324.1 L543.5 324.1 L544.3 333.4 Z M443.1 292.3 L449.0 286.3 L455.7 299.8 L463.6 302.7 L465.2 305.1 L464.7 310.6 L461.0 315.2 L457.1 316.5 L456.6 319.5 L458.1 331.9 L452.6 336.7 L449.1 332.4 L442.7 332.0 L441.3 328.8 L428.2 328.3 L426.6 325.8 L423.3 326.3 L418.9 321.8 L420.1 319.0 L417.8 317.3 L406.6 325.3 L404.1 324.1 L400.5 315.7 L399.0 314.7 L397.5 313.8 L396.1 312.8 L394.6 311.9 L393.1 310.9 L392.0 307.0 L392.0 306.9 L395.5 301.0 L404.2 300.0 L405.9 297.6 L404.2 292.3 L406.5 290.4 L414.9 287.5 L419.7 283.8 L423.7 283.8 L423.8 283.8 L429.5 290.1 L435.9 290.3 L438.7 288.6 Z M496.5 434.2 L496.6 437.9 L490.6 434.4 L487.8 434.4 L485.3 436.7 L485.2 433.6 L478.1 437.9 L470.3 432.9 L467.6 427.0 L463.4 418.7 L461.3 409.6 L468.0 403.2 L473.9 401.3 L477.3 395.4 L480.7 395.0 L480.0 392.2 L482.6 389.9 L484.1 384.7 L486.7 385.9 L486.7 382.8 L487.6 378.7 L491.1 377.9 L494.3 373.0 L499.3 370.3 L501.3 374.5 L501.8 384.8 L505.6 396.1 L504.1 402.3 L500.6 406.8 L501.6 413.9 L498.6 419.8 Z M435.6 387.9 L439.1 395.9 L438.1 396.9 L431.3 402.6 L429.6 400.3 L422.7 416.2 L420.1 411.1 L420.6 408.1 L418.2 406.5 L416.9 402.3 L411.7 398.3 L407.0 402.5 L404.0 411.6 L400.2 416.4 L393.8 414.9 L388.7 418.1 L385.4 413.1 L387.1 407.3 L383.3 401.3 L382.3 395.9 L382.4 395.9 L385.6 394.0 L384.1 390.6 L387.2 389.5 L387.5 386.0 L389.8 384.1 L388.0 381.9 L395.6 372.4 L396.2 368.9 L402.4 370.9 L401.7 364.9 L409.2 368.4 L410.7 370.9 L417.4 371.2 L423.9 376.6 L427.6 372.5 L427.6 376.4 L433.1 377.9 L436.4 386.6 L439.0 387.7 Z M540.5 408.4 L546.4 409.2 L546.1 412.6 L540.3 412.9 L537.8 419.6 L540.8 421.9 L538.3 424.4 L534.1 423.0 L530.9 428.1 L532.4 430.7 L542.4 436.4 L542.2 441.1 L541.2 441.3 L538.9 441.4 L534.6 446.2 L529.4 443.9 L529.3 441.1 L520.0 440.2 L519.5 434.4 L517.0 436.6 L514.6 435.2 L505.9 439.1 L502.4 434.9 L496.5 434.2 L498.6 419.8 L501.6 413.9 L500.6 406.8 L504.1 402.3 L505.6 396.1 L501.8 384.8 L501.3 374.5 L510.3 371.4 L515.2 374.1 L518.5 381.9 L517.4 388.2 L520.1 387.2 L528.3 389.1 L531.3 387.4 L532.1 404.9 L535.1 404.4 Z M513.6 349.4 L513.3 342.3 L519.3 344.3 L522.3 339.2 L525.1 338.5 L536.3 353.7 L542.8 364.2 L549.0 364.4 L549.3 361.6 L558.7 363.7 L561.4 370.0 L559.1 375.5 L560.1 380.9 L565.3 382.4 L563.7 386.2 L565.5 390.4 L569.9 393.5 L569.5 399.3 L566.4 398.2 L553.8 402.1 L552.9 404.9 L547.4 406.1 L546.4 409.2 L540.5 408.4 L535.1 404.4 L532.1 404.9 L531.3 387.4 L528.3 389.1 L520.1 387.2 L517.4 388.2 L518.5 381.9 L515.2 374.1 L510.3 371.4 L501.3 374.5 L499.3 370.3 L499.3 365.9 L499.1 364.8 L499.2 364.8 L503.6 360.9 L501.7 358.4 L504.2 355.9 L511.1 354.4 Z M499.3 365.9 L499.3 370.3 L494.3 373.0 L491.1 377.9 L487.6 378.7 L485.4 376.3 L482.8 377.3 L482.1 371.8 L476.1 369.6 L469.9 372.6 L467.1 373.0 L464.8 371.0 L462.0 371.8 L465.0 364.7 L462.3 357.2 L457.7 353.4 L453.0 345.7 L455.1 339.4 L452.6 336.7 L458.1 331.9 L456.6 319.5 L457.1 316.5 L461.0 315.2 L461.0 318.2 L466.2 321.5 L474.2 320.0 L476.3 322.1 L482.0 318.3 L482.0 318.2 L484.1 321.2 L479.2 324.7 L477.6 333.3 L482.8 340.0 L481.1 345.9 L483.4 347.5 L482.1 350.0 L483.2 353.0 L487.8 357.1 L493.7 359.2 L494.6 362.2 L499.2 364.8 L499.1 364.8 Z M485.4 376.3 L487.6 378.7 L486.7 382.8 L486.7 385.9 L484.1 384.7 L482.6 389.9 L480.0 392.2 L480.7 395.0 L477.3 395.4 L473.9 401.3 L468.0 403.2 L461.3 409.6 L452.3 401.9 L449.4 401.7 L449.3 404.5 L442.9 403.3 L441.4 397.6 L439.1 395.9 L435.6 387.9 L439.0 387.7 L436.4 386.6 L433.1 377.9 L427.6 376.4 L427.6 372.5 L427.6 372.4 L437.2 369.2 L445.7 369.3 L450.9 372.5 L462.0 371.8 L464.8 371.0 L467.1 373.0 L469.9 372.6 L476.1 369.6 L482.1 371.8 L482.8 377.3 Z M449.1 332.4 L452.6 336.7 L455.1 339.4 L453.0 345.7 L457.7 353.4 L462.3 357.2 L465.0 364.7 L462.0 371.8 L450.9 372.5 L445.7 369.3 L437.2 369.2 L427.6 372.4 L427.6 372.5 L423.9 376.6 L417.4 371.2 L410.7 370.9 L409.2 368.4 L401.7 364.9 L400.5 357.0 L402.2 354.6 L401.0 349.0 L396.6 343.5 L405.9 334.9 L403.6 328.2 L404.1 324.1 L406.6 325.3 L417.8 317.3 L420.1 319.0 L418.9 321.8 L423.3 326.3 L426.6 325.8 L428.2 328.3 L441.3 328.8 L442.7 332.0 Z M493.1 312.7 L498.8 320.4 L497.3 328.4 L500.4 337.6 L503.2 337.1 L506.9 342.8 L513.3 342.3 L513.6 349.4 L511.1 354.4 L504.2 355.9 L501.7 358.4 L503.6 360.9 L499.2 364.8 L494.6 362.2 L493.7 359.2 L487.8 357.1 L483.2 353.0 L482.1 350.0 L483.4 347.5 L481.1 345.9 L482.8 340.0 L477.6 333.3 L479.2 324.7 L484.1 321.2 L482.0 318.2 L482.3 315.3 L484.6 313.4 L486.8 315.1 L489.0 313.5 L491.5 315.0 Z M603.7 362.0 L602.7 372.3 L599.6 373.7 L597.4 374.4 L592.9 377.8 L591.4 380.2 L588.9 378.8 L583.8 380.1 L581.8 381.9 L581.8 382.0 L575.0 383.9 L573.0 385.9 L565.3 382.4 L560.1 380.9 L559.1 375.5 L561.4 370.0 L558.7 363.7 L549.3 361.6 L549.0 364.4 L542.8 364.2 L536.3 353.7 L542.0 347.0 L544.3 333.4 L547.0 340.1 L549.7 341.0 L551.0 343.5 L554.0 345.2 L556.6 343.6 L559.8 344.4 L564.4 348.0 L573.8 334.1 L576.2 335.7 L575.6 338.7 L577.9 340.5 L584.1 342.8 L586.3 341.3 L586.9 340.5 L588.8 345.2 L591.5 346.3 L593.0 348.2 L595.8 348.6 L595.1 351.6 L596.4 356.8 L601.5 360.8 Z M547.0 340.1 L544.3 333.4 L543.5 324.1 L546.4 324.1 L550.8 319.4 L553.0 320.3 L555.3 319.3 L557.6 319.4 L561.0 315.9 L563.1 314.9 L564.1 312.6 L561.3 311.3 L563.1 306.2 L565.5 305.4 L567.8 306.4 L571.4 303.5 L580.9 302.2 L584.1 302.8 L583.6 305.5 L587.8 309.6 L585.7 316.0 L585.1 317.5 L589.7 319.2 L589.6 324.0 L591.6 322.6 L596.2 329.2 L594.9 334.2 L592.4 335.9 L587.5 336.8 L586.9 340.5 L586.3 341.3 L584.1 342.8 L577.9 340.5 L575.6 338.7 L576.2 335.7 L573.8 334.1 L564.4 348.0 L559.8 344.4 L556.6 343.6 L554.0 345.2 L551.0 343.5 L549.7 341.0 Z"/><path id="provence-alpes-cote-d-azur" data-name="Provence-Alpes-Côte d'Azur" d="M596.5 409.9 L597.1 409.4 L596.7 413.9 L594.5 415.4 L593.9 418.3 L597.4 422.3 L595.6 427.1 L595.8 427.3 L589.0 435.1 L587.0 440.4 L591.3 448.9 L598.3 456.6 L593.1 456.0 L587.9 459.8 L589.1 462.4 L586.1 463.8 L576.3 464.2 L575.1 467.7 L569.2 464.1 L559.1 472.6 L555.1 467.8 L552.4 469.6 L547.1 469.4 L541.0 463.4 L537.6 462.3 L539.3 459.8 L535.6 454.6 L536.8 451.6 L534.6 446.2 L538.9 441.4 L541.2 441.3 L542.2 441.1 L548.1 439.7 L551.9 440.7 L548.5 435.8 L552.4 436.9 L553.8 428.3 L559.1 424.3 L562.4 423.6 L565.9 428.1 L566.6 424.3 L570.4 420.1 L581.5 423.4 L590.5 413.2 Z M597.1 409.0 L597.1 409.4 L596.5 409.9 L590.5 413.2 L581.5 423.4 L570.4 420.1 L566.6 424.3 L565.9 428.1 L562.4 423.6 L559.1 424.3 L553.8 428.3 L552.4 436.9 L548.5 435.8 L551.9 440.7 L548.1 439.7 L542.2 441.1 L542.4 436.4 L532.4 430.7 L530.9 428.1 L534.1 423.0 L538.3 424.4 L540.8 421.9 L537.8 419.6 L540.3 412.9 L546.1 412.6 L546.4 409.2 L547.4 406.1 L552.9 404.9 L553.8 402.1 L566.4 398.2 L569.5 399.3 L569.9 393.5 L565.5 390.4 L563.7 386.2 L565.3 382.4 L573.0 385.9 L575.0 383.9 L581.8 382.0 L583.6 386.5 L586.0 387.1 L587.1 389.1 L587.5 392.1 L588.7 394.3 L591.7 396.6 L597.4 397.1 L599.6 398.4 L598.9 400.5 L602.1 405.2 L599.1 406.7 Z M605.3 477.1 L602.1 477.0 L600.8 478.8 L600.7 481.0 L600.3 481.8 L598.1 477.8 L598.9 474.9 L593.3 472.3 L591.6 466.7 L586.1 463.8 L589.1 462.4 L587.9 459.8 L593.1 456.0 L598.3 456.6 L591.3 448.9 L587.0 440.4 L589.0 435.1 L595.8 427.3 L602.7 435.1 L609.6 436.7 L613.8 439.5 L616.3 439.1 L618.1 440.5 L628.4 438.1 L631.1 436.3 L630.8 438.9 L632.3 441.1 L632.6 444.3 L631.0 446.2 L630.8 448.5 L628.1 450.1 L624.8 455.1 L624.3 456.7 L625.4 459.4 L624.3 462.1 L620.8 465.0 L618.5 465.5 L617.6 467.9 L614.6 467.0 L613.1 469.1 L610.8 469.6 L609.0 472.0 L609.1 474.8 L606.7 475.4 Z M544.8 502.3 L543.1 502.1 L540.9 502.9 L539.6 500.9 L530.4 500.9 L531.6 498.7 L530.6 496.7 L530.8 494.2 L529.0 492.2 L526.4 493.3 L516.4 494.1 L513.4 488.8 L508.5 487.8 L508.1 490.2 L509.6 493.0 L507.8 494.7 L504.6 493.4 L497.2 493.3 L495.0 491.9 L496.6 490.4 L495.6 488.2 L493.4 487.3 L480.2 487.3 L480.0 487.2 L483.1 482.3 L488.9 480.5 L487.9 477.8 L492.1 473.0 L495.4 473.9 L497.3 463.3 L501.2 459.2 L511.6 462.1 L517.1 467.8 L521.6 470.1 L525.1 469.4 L537.1 474.2 L540.3 474.0 L546.9 469.7 L547.0 469.8 L548.9 473.6 L545.6 474.4 L543.6 479.7 L549.1 488.8 L546.4 489.3 L545.3 491.9 L547.5 498.2 L545.0 500.2 Z M600.3 481.8 L598.9 484.3 L592.1 486.0 L591.4 488.5 L585.9 494.2 L590.9 494.9 L588.9 499.7 L584.9 499.9 L580.1 502.4 L576.6 503.5 L576.7 506.2 L571.8 504.7 L569.1 505.2 L567.5 506.8 L567.1 509.1 L564.9 510.7 L566.3 508.9 L563.9 507.2 L561.7 507.9 L560.1 506.3 L557.0 506.4 L557.9 508.6 L555.6 508.2 L554.1 509.9 L551.1 508.8 L551.7 506.5 L545.3 502.4 L544.8 502.3 L545.0 500.2 L547.5 498.2 L545.3 491.9 L546.4 489.3 L549.1 488.8 L543.6 479.7 L545.6 474.4 L548.9 473.6 L547.0 469.8 L547.1 469.4 L552.4 469.6 L555.1 467.8 L559.1 472.6 L569.2 464.1 L575.1 467.7 L576.3 464.2 L586.1 463.8 L591.6 466.7 L593.3 472.3 L598.9 474.9 L598.1 477.8 Z M541.0 463.4 L547.1 469.4 L547.0 469.8 L546.9 469.7 L540.3 474.0 L537.1 474.2 L525.1 469.4 L521.6 470.1 L517.1 467.8 L511.6 462.1 L501.2 459.2 L505.7 454.2 L499.4 447.8 L499.2 442.3 L496.6 437.9 L496.5 434.2 L502.4 434.9 L505.9 439.1 L514.6 435.2 L517.0 436.6 L519.5 434.4 L520.0 440.2 L529.3 441.1 L529.4 443.9 L534.6 446.2 L536.8 451.6 L535.6 454.6 L539.3 459.8 L537.6 462.3 Z"/><path id="corse" data-name="Corse" d="M640.5 554.2 l l 3.2 -1.7 0.7 8.4 -0.1 0.5 -1.9 4.9 -2.7 1.9 3.3 0.4 -5.8 14.7 -3.1 -1.2 -1.2 -2.8 -11.2 -3.4 -4.8 -4.4 0.2 -3 4.9 -3.3 -9.5 -1.9 2.7 -7 -0.9 -5.8 -7.3 2.6 3 -8.4 2.6 -1.6 -7.9 -4.4 -1.1 -5.5 5.3 -3.8 -3.8 -4.2 -2.6 1 0.5 -2.7 13.6 2.1 1.2 3.5 6 3.4 6 5.9 0.5 3.2 2.7 1.1 3.7 11 z M643.7 551.5 l v 1 l -3.2 1.7 -3.8 -0.5 -3.7 -11 -2.7 -1.1 -0.5 -3.2 -6 -5.9 -6 -3.4 -1.2 -3.5 -13.6 -2.1 v -0.2 l 3.9 -5 -0.3 -3.4 2.2 -2.8 2.8 -0.3 0.9 -2.9 10.7 -4.2 3.5 -4.9 8.6 1.3 -0.5 -17.4 2.4 -2 2.9 1.1 0.2 0.9 1.5 8.2 -0.5 10.6 4 5.6 3.8 26 -5.4 11.9 v 5.5 z"/></svg>