<svg xmlns="http://www.w3.org/2000/svg" viewBox="105 18 568 567" role="img" aria-label="Carte des régions de France"><path id="bretagne" data-name="Bretagne" d="m208.7 188.9-4.9 7.1-2.9 1.1-1.5-2.7-3.5-.9-6.2 7.5-1.8-6-3 .9-12.9-6.5-7.9 3-12.5-3.3 2.1-4.1-2.5-9.3 2.5-8.3-3.6-4.7 1.1-4.3 1.2 1.4 3.2-.4 1.1-7.7 1.5-1.6 2.2-.6 1.9 1.4h2.5l2.1-1 2.2.3 1.5-1.8.9 2-1.5 2.6 3-3.6 2.9-.8-.1 2.3-1.2 4.4 1.7-3.1 2.6-.5-1.1 2 7.2 7.8 2.2 5.4 3 2 .8 3.7.7-2.2 3-1 2.4-2.7 8.1-3.3 2.7-.2-2 2.5 2.9-1.1 1.8 4.4 1.3-1.9 2.5.2v-.1l1.6 4h-.3.3l2.5.3.7.2.4 1.7-1.9 13zm-57.1 21.2 2 3.4-.8 1.4-5.5-1.2-1.2-1.9 2.2-.7-3 .8-.3-2.7v2.7l-2.5.7-2.2-1-4.2-6.1-.8 2.5-2.3.2-3.5-3.1 1.6-4.6-2.4 4.3 1.3 1.9-2.2 1-1 2.8-5.9-.2-2.1-1.6 1.5-1.6-1.5-5.5-2.4-3.1-2.8-1.8 1.6-1.7-2.1 1.4-7.5-2.2 2.2-1.3 12.5-1.8 1.8 1.8 2-1.3.7-2.5-1.6-3.6-6.8-2.5-1.5 2.6-2.6-4.2 1.3-1.8-.3-2.2 1.7 2.3 4.9 1 4.6-.8 2.1 3.1 5.4 1-3.7-.9-2.8-2 2.2-.5-4.2-2 2-1.5-2.6-.2-2.7.8-.8-2.2 7.1-4.5-4.4 2.2-2.3.1-7.5 2.9-2.7-1.2-2.7 1.2-1.5-1.8.6-5.3 2.5-1.6-2.2-.9.8-2.6 1.8-1.6 2.1-.8 5.1 1.5-1.9-1.1 2.5-1.2 1.6 1.4-1.9-1.7 1.2-1.9 2.9-.1 3.8-2 2.3 2.6 6.7-3.1 3 1.6 1-2.2 2.9-.5.4 5 2.2-1.5 1.3 2.5 1.2-4.5 4.7.3 1.2 1.7-1.1 4.3 3.6 4.7-2.5 8.3 2.5 9.3-2.1 4.1v.1l-6.8 3.2.5 3.5 3.4 5.5 8.1 1.3.1 5.4-2.5 2.8zm103.6-2.9-5.5 2.2-3.6 8.6-.4 2.2-6.8-3.6-9 3.9-1.6 2.9-13.2.4-5.2 3.4-1-5.8 3-.7-2.8-1.5 2.4-2.2 1-3.2-2.4-1.7 1.6-2.6-1.2-2.5-5.1-2.8-.5-2.8 3.5-.9-3.6-.1-1-4.4 4.9-7.1 9-2.5 1.9-13-.4-1.7-.7-.2-2.5-.3-1.6-4 .1-.8v-.9l.7-.1h2.1v.1l1.7 4.4 1.3 2-.5 2.1 1.4-2.1-2.3-5.1.7-2.5 2.2-1.5 2.3-.6 2.2 1-1.5 2.3 2.9 2.4 7.3-.6 4.7 9.6 2.7 1 7.1-4.8 5.4 2.3-.1 12.1-1.5 2.4zm-87.5 35.4 2.9 1.2-1.1 2.1-5.1-1.2-1.3-2.7.4-3 2.1 1.4zm41.4-23.4 2.4-2.2 1-3.2-2.4-1.7 1.6-2.6-1.2-2.5-5.1-2.8-.5-2.8 3.5-.9-3.6-.1-1-4.4-2.9 1.1-1.5-2.7-3.5-.9-6.2 7.5-1.8-6-3 .9-12.9-6.5-7.9 3-12.5-3.3v.1l-6.8 3.2.5 3.5 3.4 5.5 8.1 1.3.1 5.4-2.5 2.8-2.8-.8 2 3.4.1 1.5 2.9 4.4 2.3-.2 1.5-1.7-.8-5.1.6 2.4 1.7 1.7 1.9-1.7-2.5 4.2 2.2 1.4-2.3-.6 3.2 1.9.1.1 1.6 1 1.7-2.5-1.6 3.1 2.1 2.6.6 3.5-.9 2.8 2.1 1.1-1.2-3 .5-3.8 2.2 1.6 5.1.1-.7-5 1.4 2 2.1 1.5 4.8-.5 2.1 2.4-1 2.2-2.1-.6-4.8.4 3.8 3.3 12.9-.9 3.1 1.5-3.4.1 1.4 2.4 13.2-3.9.4-6-1-5.8 3-.7z" /><path id="normandie" data-name="Normandie" d="m316.9 148-.7 2.2-5.6-1-7 1.7-7.2 5.4-2.9.3-5.7-1.1-2.6 1.7-4.9-3-6.4 2.3-2.7-1.3-.9 2.7-5.4 2.9-9.7-2.1-1.8-2.4 4.5-5.3-1.6-2.3 8.1-4.9-2.2-8.2 2-2.6-8.4-3.1-.5-6.6v-.1l.1-.7 1.8.8 1.9-2.1 3.4-.3 9.4 3.3 13.9 1.5 6.9 3.4 5.7-.7 4.7-2.5 4.1-3.7 5.1-1.1.3 8.3h2.9l-2.3 2.1 2.8 9.4-1.4 3zm-.5 5.4-.2-3.2.7-2.2-2.3-4.1 1.4-3-2.8-9.4 2.3-2.1h-2.9l-.3-8.3 1.7-.4.3-.1h1.5l-.9-.2.8-.3-1.3-.3 5.9-2.4 7.6 5 3.4-.7 4.9 3-1.9 2.4 2.1 2.1 5.4 2.4 1.4-2.7 8.2-2.5 4.8-7 13.1 3.3 3.5 8.4-4 2.6-4 9.5-3.8-.1-2.3 2.6 1.8 5.8-6 6.9.2 2.8-6 1.3-2.8-1.6-5.3 3.2-6 1.1-2.4 2.6-3.4-2.1 1.7-2.3-7.8-9.5zm-61.2 5.3 9.7 2.1 4.1 4.2-1.8 6.7-3.6 4.5h-.1l-8.6-.8-5.4-2.3-7.1 4.8-2.7-1-4.7-9.6 1.9-.2 4.8.4 2.5-1.1.5-2.2-2.4 1.3-5.1-5.6-.3-5.3 2-6.1-.3-4.9-1.8-3.6.4-7.4 1.5-2-2.5.3-2-5 .3-2.2-2.4-1.2-2.9-4.1-.7-5.9-1.4-1.9 1.8-1.8.1-2.8-.5-2.3-2.2-1.1-1-2.5 2.1-.2 11.9 4.2h2.4l4-2.6 5.1.6 1.8 1.7.9 2.7-3.2 5.2 4 6.5 1.1 4.3-.1.7v.1l.5 6.6 8.4 3.1-2 2.6 2.2 8.2-8.1 4.9 1.6 2.3-4.5 5.3zm11.7 21.2-3.3-3.7 3.6-4.5 1.8-6.7-4.1-4.2 5.4-2.9.9-2.7 2.7 1.3 6.4-2.3 4.9 3 2.6-1.7 5.7 1.1 2.9-.3 7.2-5.4 7-1.7 5.6 1 .2 3.2 6.3.5 7.8 9.5-1.7 2.3 3.4 2.1.1 3.2 4.8 4.4-.2 4.5.5 4.6-7.5 5.1 1.1 7.5-3.2-.7-3.1-3.5-2.9 1-7.2-5-1.6-8.4-2.8-1.5-11 5.9-3-.1v-3l-3.3-1.6-1.9-6-2.7-.2-.7 2.7h-9.1l-6.7 3.3-2.5-1.7zm47.5-60.1-7.6-1.8-1.2-2-.1-2.3 4.4-9.7 13.8-7.4L326 95l10.3-2.1 4.8-1.8 2.4.3L352 87l5.1-4.1 11.8 10 3.4 8.4-3.1 4.7 1.4 8.7-1.3 8-13.1-3.3-4.8 7-8.2 2.5-1.4 2.7-5.4-2.4-2.1-2.1 1.9-2.4-4.9-3-3.4.7-7.6-5z" /><path id="hauts-de-france" data-name="Hauts-de-France" d="m450.3 82.6 16.7 4.6 2.9.9.7 5.9-1.3 3.5 1.3 3.1-5 7.2-2.7.3.3 14.3-1 2.8-5.3-1.8-8 4-1.2 2.6 3.2 8-5.5 2.3 1.6 2.4-.8 2.7 2.5 1.3-7.7 10.2-9.3-6-3.9-4.2.7-2.8-1.8-2.5-2.6-.7 2.1-1.7-.5-2.8-2.9-1.1-2.4 1.5-.7-2.9 3 .2-2.9-4.5 2.6-1.7 2.4-5.7 2.6-1.1-2.2-1.8.8-4.5-.4-10.2-2.3-7 3.9-8.1.4-3.8 12.6-.6 2.6-2.2 2.3 1.7zm-66-57.5.9-.3 2 .8 1.1-2.1 7.9-2.1 2.9.3 4.4-1.9v-.1l1.2 4.8 2.3 3.7-1.6 1.9.6.8 1.2 5.8h3.4l2.7 5.1 3.1 1.5h2.1l.6-2.4 8.1-3 3.8 7.5.1 1 1.3 5.2 2 3.5h.1l2.8.6 2.1-1.4 2.4-.2-.5 2.2 2.2-.7 2.8 1 1.8 4.4-.6 2.3.7 2.3 1.4 1.9 1.1-2.6 4.6-.3 2.4 1.1L462 64l5.5 6 2.3.2-2.1 2.4-1.4 4.7 2.6.2 1.4 3.3-3.5 3.9.2 2.5-16.7-4.6-5.2 1.8-2.3-1.7-2.6 2.2-12.6.6-3.3-2.6 3.5-10.6-1.8-2.4-3-.4.7-2.7-3.9-5.2 3.1-1.6-3.8-5.3-5.9-1 1-6.1-1.3-2.5-1.7 2.2-11.6-.5-4.1-4.2.6-2.8-5.5-2.6zm-11.5 106-3.5-8.4 1.3-8-1.4-8.7 3.1-4.7 4.1 3.7 3.1-1.2 14.4 2.2 12.8 6.7 8.6-6.8 10.3-1.5.4 10.2-.8 4.5 2.2 1.8-2.6 1.1-2.4 5.7-2.6 1.7 2.9 4.5-3-.2.7 2.9 2.4-1.5 2.9 1.1.5 2.8-2.1 1.7-8.1 2.9-2.5-1.6-2 2.2-6.9-1-10.9-6.4-2.2 1.6-9.2-2.2-6.3 1.8-5.6-1.1-1.6-3.2zm7-62.2 7.1 5.8 12-2.5-2.6 5.7L398 81l2.5-3.1 8.4 3.5.8-2.8 2.8 4.6 2.4-1.7.8 3.2 8.6-1.8 3.5-10.6-1.8-2.4-3-.4.7-2.7-3.9-5.2 3.1-1.6-3.8-5.3-5.9-1 1-6.1-1.3-2.5-1.7 2.2-11.6-.5-4.1-4.2.6-2.8-5.5-2.6-6.3-12.1-11.7 3.4-6.4 5.4.9 5.6-1.7 4.6.6 6.7 2 4.2-1.7-1.4-.3 9.7 2.3 1.6 10.5 1zm44.5 14 3.3 2.6-.4 3.8-3.9 8.1 2.3 7-10.3 1.5-8.6 6.8-12.8-6.7-14.4-2.2-3.1 1.2-4.1-3.7-3.4-8.4-11.8-10 2.4-1.9 3.4-6.6 1.9-1.1.1-.1 1.4 1.8 3.5.3-5.6-6 1.2-5.1 2.9.7 10.5 1 1 3 7.1 5.8 12-2.5-2.6 5.7L398 81l2.5-3.1 8.4 3.5.8-2.8 2.8 4.6 2.4-1.7.8 3.2z" /><path id="ile-de-france" data-name="Île-de-France" d="m641.8 78.3-.2 3.8-1 2.6-8.3-1.7-6-.6-5.2 3h-4l-2.5-.3-.4-.1-13.5-5-3-3.8-4.3-1.9-.5-.2.4-1.9 1.3-3.1 2.7-2.1 2.9-1.1 3.9.5h.1l.9-2.2 7.1-4.6 14-.1 1.8 3.6 1.8 2.4.6.9.1.4.5 1.2.4 5.4.4 1.8v.1l-.3.8.1 3.6.6-.5 1.6-1.6 2-.5 2-.5zm-245 76.4-3.2-.5-2.5 1.7 3 3.5 5.3-.1-1.8-1.9zm44.3 21.4-2.9.8.4 8.5-15.4 3-.2 5.8-3.9 5.4-11.2 2.7-9.2-.7 2.6-1.5.6-2.7-4.2-4.3-.7-3.1 3.4-4.8 4-17.2-.5-1 1.1-4.1-.3-2.9v-.1l-1.3-4.7 1.3-2.5-1.7-5.1.1-.1 1.7-2.3-.2-2 6.9 1 2-2.2 2.5 1.6 8.1-2.9 2.6.7 1.8 2.5-.7 2.8 3.9 4.2 9.3 6-.4 2-2.6 2.2 3.5 8.3 2.6 1.7zm-77-18-3.6-6.6-1.8-5.8 2.3-2.6 3.8.1 9.5.8 9 3.6 5.5 6.1-2 3.1 3.2 5.2-7.1 5.4-1.6 2.6.7 2.9-4.6 8.6-3.1.7-2.3-2.2-1.2-5.6-6.2-5.4zm37.5 6.7 2.3 2.2.5 1-4 17.2-3.4 4.8-3.7-.6-2.8 1.8-1.5-2.7-1.9 2.9-6.9.7-2.8-10.6 4.6-8.6-.7-2.9 1.6-2.6 7.1-5.4v-.1l3.7 1.6 5.1 2.1zm-10.5-8.9 3 3.5-.4 4.1-3.7-1.6v.1l-3.2-5.2 2-3.1 3.6-2.6 1.3 2-.1 1.1zM612.6 54.1l1.6-.7.7-1.9.5-1.8-.1-1.1-.2-1.4-4.6-1.9-4.6-.9-4 1.3-7.6 5.6-6.1 5.8-5.3 3-1 1-3.7 7.4 1.7 7.2v.1l-2.7 3.2.6 2.5 2.5 4.8 3.3-.5 1 5.2 3.9-.3 1.4 3.5 3.4 1.6.5 2.1 5.3 4.2 4.3 1.3-.1 4.9 5.7 3.5 3.2-5.9-.7-5.5.7-1.2.4-1.3.7-2.1-1.4-1.9.3-1.2.8-2.8-1-2.6.5-.3.5-.3.9-.5.7-1.1-.4-.1-13.5-5-3-3.8-4.3-1.9-.5-.2.3-1.9 1.4-3.1 2.7-2.1 2.8-1.1h.1l3.9.5.9-2.2 7.2-4.6-.7-2-.6-2 1.4-.7zm-207.9 98.6-1.3 2.5 1.3 4.7v.1l-7.1-2.6-.8-2.7-3.2-.5.1-1.1-1.3-2 3.3-1.3 2.6 1.1 4.7-3.3zm258.5-78.8.1-.1h-.1l2.7-3.4-4-.3-1.6-5.9.1-.1h-.1l6.4-6.6.1-5.4 1.1-4-1.2-3.4-5.1-8 .1-.1h-.1l2.7-3.4-.9-4-4.5-2.9-4.1 1.7-6.4 8.8-8.2 6.2-.7-.2-7.8-1.1-1.9 1-5.1-4.6-1.3-.2-1.9-.7-5.1 3-1.6 2.7-1-1.2-5.9-2.1-2 2.2v.2l.7 2.5 3.9.8 4.7 1.9.1 1.4.1 1.1-.2.9-.3.9-.7 1.9-1.6.7-.3.8-1.4.7.6 2 .7 2 13.9-.2.1.1 1.8 3.6 1.8 2.4.6.8.1.5.5 1.2.4 5.4.4 1.8 5.9-.5.5-.3h.2l6.3-2.8 2.9.4.7 1.3 3 1.5 4 2.9.2.2.7.5 6 6.2.8.6.3.1 3.6 2.6v-.1l.5-1.3.2-.7-1.8-6zM404.7 160l.3 2.9-1.1 4.1-2.3-2.2-2.8.8-5.1-2.1.4-4.1 5.3-.1-1.8-1.9zm263.4-57.8 3.3-.2-1.5-3.6-3.7-2.4.8-8h-.1l-3.6-2.6-.3-.1-.8-.6-6-6.2-.7-.5-.2-.2-4-2.9-3-1.5-.7-1.3-2.9-.4-6.3 2.8h-.2l-.5.3-5.9.5v.1l-.3.8.1 3.6.6-.5 1.6-1.7 2-.4 2-.5 4 1.7-.2 3.8-1 2.6-8.3-1.7-6-.6-5.2 3h-4l-2.5-.3-.6 1.1h-.1l-.9.5-.5.3-.5.3 1 2.5v.1l-.8 2.8-.3 1.2 1.4 1.9-.7 2.1-.4 1.3-.7 1.2.8 5.4 2.1.2 4.7 2.8 3.1-2.2.1 5.5 3.3 2.4 4.9-1.8.7 2.5 5.2-2.3.5 1.3 1.7 1.7 4.6-3.6 2.1-.5 5.2-1.8 1.9 6.8 1.7 2.5 3.3 1.8 5.5 1.9-.7-5.1.1-.1h-.1l2.5-4.2 2.8-2.8-1.4-3.6.1-.1h-.1l2.4-2zM374.3 144l-9.5-.8 4-9.5 1.6 3.2 5.6 1.1 6.3-1.8 9.2 2.2 2.2-1.6 10.9 6.4.2 2-1.7 2.3-.1.1-4.7 3.3-2.6-1.1-3.3 1.3-3.6 2.6-5.5-6.1z" /><path id="centre-val-de-loire" data-name="Centre-Val de Loire" d="m385.3 235.4 5-2.4 13.5 3.1 3.9 4.8 9-1.7 2 6.5-1.7 5.8 2.7 2.1 3.1 7.6.3 5.9 2.2 2-.2 5.8-1.3 8.9h-4.1l-4.8 3.7-8.4 2.9-2.3 1.9 1.7 5.3-1.7 2.4-8.7 1-3.5 5.9v.1l-4.9-.2 1.5-3.5-.9-8.9-4.7-7.9 1.4-2.7-2.3-2.2 2.5-5.1-2.3-11.7-11.6-1.6 2.8-5.5 2.8.1.6-2.8 9.7-2-2.1-5.9 5.9-4.1zm-52.2-34.5-2.1-3.8-1.1-7.5 7.5-5.1-.5-4.6.2-4.5-4.8-4.4-.1-3.2 2.4-2.6 6-1.1 5.3-3.2 2.8 1.6 6-1.3-.2-2.8 6-6.9 3.6 6.6.5 10.9 6.2 5.4 1.2 5.6 2.3 2.2 3.1-.7 2.8 10.6-.5 1.5-4.8 10.8-8.5.6-6 2.8.2 2.8-3.3-1.9-5.5 3.5-12.8-10.8-6.3 1.3zm24.7 107.6-2.8 2.9-1.7-2.5-5.8 1.1-2.6-1.1 1.5-2.8-2.5-1.3-2.6-5.4h-2.9l-4.6-4.4.8-5.8-2.1-3 5.6-.5-1-2.7 3.3-11.9 5.1-2.7 2.3 1.7 2.6-3.5 2.5-2.1-1-4.9 6-3.2 2.5 1.3 1.5-2.6 6.4-.9 5.2 3.5-2.8 5.5 11.6 1.6 2.3 11.7-2.5 5.1 2.3 2.2-1.4 2.7 4.7 7.9.9 8.9-1.5 3.5-2.7.8-13.2-2.7-1.9 2.5zM303.9 263l-5.5-3.2v-.1l5.8-15.3 1.7-9.3.7-2.4 6.1 2.6-.5-3.3 2.8.3 7.7-4.5 10.5.5-.2 5.5 2.2-1.8 6 3.4-.7 2.7 3.4 5.1-1.2 9.1 2.4 1.9 2.6-1.3 4.2 6.7 1 4.9-2.5 2.1-2.6 3.5-2.3-1.7-5.1 2.7-3.3 11.9 1 2.7-5.6.5-7.1-10-.3-3.1-5.3-3 1.4 2.9-10 .4-2.8-1.4-1.3-6.1-2.9.3zm54-6.6-6 3.2-4.2-6.7-2.6 1.3-2.4-1.9 1.2-9.1-3.4-5.1.7-2.7-6-3.4-2.2 1.8.2-5.5-10.5-.5.6-3.5 3.2-1.1 6.3-10.6-.4-5.5-1.7-2.2 2-2.1v-.1l6.3-1.3 12.8 10.8 5.5-3.5 3.3 1.9 2.5 7.1-1.8 3.2 1.7 5.6 3-1.3 2.4 1.5 1.1 3.8 2.9.6 1.9-2.3 15.2 1.6.8 2.6-5 2.4 5.1 7.6-5.9 4.1 2.1 5.9-9.7 2-.6 2.8-2.8-.1-5.2-3.5-6.4.9-1.5 2.6zm35.4-67 3.7.6.7 3.1 4.2 4.3-.6 2.7-2.6 1.5 9.2.7 11.2-2.7 6.7 7.5.4 5.8-4.6 4.9 1.1 2.9-1.6 2.4-5.3 3.3 3 2.8 2.2 6.9-2.8.7-1.5 2.4-9 1.7-3.9-4.8-13.5-3.1-.8-2.6-15.2-1.6-1.9 2.3-2.9-.6-1.1-3.8-2.4-1.5-3 1.3-1.7-5.6 1.8-3.2-2.5-7.1-.2-2.8 6-2.8 8.5-.6 4.8-10.8.5-1.5 6.9-.7 1.9-2.9 1.5 2.7z" /><path id="pays-de-la-loire" data-name="Pays de la Loire" d="m213.1 265.2 1.8-1-2.8-4.1-7.8-3 3-1.3.6-2.2-.5-2.5 1.4-2.1 5.8-1.1-5.5-.7-6.6 3.7-4.1-3.2-2.2 1-2.2-1.2-.5-4.9.9-2.5 3-.5-.9-2.2-.2-.3 13.2-3.9.4-6 5.2-3.4 13.2-.4 1.6-2.9 9-3.9 6.8 3.6 7.2 13.3-2.7-.4-1.9 2.4 8.5 3.3.3 5.9-14.3 2.1-2.9 2.2 3 .8 3.6 4.7.8 2.8-2.8 4.5 2.8 1.4.4 3-4.8-3.5-1.5 2.4-3.2.7.5 3-2.4 2.1-2.3-1.7v-3.1l-3.4.2-.2 9.5-11.7-5zm57.5 4-12.3.8-10.6-3.8-.4-3-2.8-1.4 2.8-4.5-.8-2.8-3.6-4.7-3-.8 2.9-2.2 14.3-2.1-.3-5.9-8.5-3.3 1.9-2.4 2.7.4-7.2-13.3.4-2.2 10.5 3.5 2.1-1.9 8.7 3.6 3 .4 5.9-2.7 5.1 1.7.6 2.7 6.7-.2.2 3.5 2 2 3.1-1.3 5.2 3.3 7.4.1-.7 2.4-1.7 9.3-5.8 15.3v.1l-6.6 5.9-2.3-2.3-9.6.2-5.6.8zm-14-47.7-10.5-3.5 3.6-8.6 5.5-2.2-1.9-17.3 1.5-2.4.1-12.1 8.6.8h.1l3.3 3.7 2.4-1.6 2.5 1.7 6.7-3.3h9.1l.7-2.7 2.7.2 1.9 6 3.3 1.6v3l-4.3 2.7.3 6.9-4.4 4 1.2 2.9-5 4.6 1.4 3.4-5.5 7.7 1.5 5.6-5.1-1.7-5.9 2.7-3-.4-8.7-3.6zm56.1 13.8-6.1-2.6-7.4-.1-5.2-3.3-3.1 1.3-2-2-.2-3.5-6.7.2-.6-2.7-1.5-5.6 5.5-7.7-1.4-3.4 5-4.6-1.2-2.9 4.4-4-.3-6.9 4.3-2.7 3 .1 11-5.9 2.8 1.5 1.6 8.4 7.2 5 2.9-1 3.1 3.5 3.2.7 2.1 3.8-.4 1.8v.1l-2 2.1 1.7 2.2.4 5.5-6.3 10.6-3.2 1.1-.6 3.5-7.7 4.5-2.8-.3zm-43.4 69.8.2-7.4-4.7-17.9-4.2-4.1-2.3-5.7-10.6-3.8-4.8-3.5-1.5 2.4-3.2.7.5 3-2.4 2.1-2.3-1.7v-3.1l-3.4.2-.2 9.5-11.7-5-5.6-5.6-.3.1-.8 2.6-3.4 4.3-1.2 2.3.2 2.4 8.7 9.5 2.7 5.6 1.2 5.3 8 5.4 3.4.5 3.9 4.3 2.9-.1 2 1.2 1.8 2.5-.9-2.1 3.9 3.3.5-2.7 2.4.3 7.1-2.7-1.4 2.9 6.5-.3 2.4 1.8 9.1-4.5z" /><path id="bourgogne-franche-comte" data-name="Bourgogne-Franche-Comté" d="m523.6 241.7 3.9 8.2-1.2 1.3-1.8 8.2-6.2 6.8-1.1 4.1v-.1l-15 1.5-8.8 4.2-5.6-6.3-5.5-1.9-1.3-2.6-5.7-1.7-2.4-2.6v-.8l.4-3.2-3.7-1.2-1.3-6h.1l-1.3-2.7 1.3-8.1 6.7-10.4-1.7-2.3 2.8-2.1.3-3.7-3.1-3.9 1.9-3.1 2.2-2 6.1-.9 4.7-3.9 3.9.5 3.5.7.5 2.7 2.6 1-.3 2.9 2.9.3 1.8 2.2 1 3.1-2.8 2.4 2.3 4.8 9.2 2 3 1.6v2.8l4.8-1.9h.1l2.7-1.6 2 3 .1 3.2-4.6 4.1zm66.5 3.5-2.4 2.2.4 3-4.8 6.2-4.8 4-.4 2.9-2.5 2.7-5.7 1.7-.3.3-1.7 2.3.9 2.7-.7 4.5.5 2.5-9.5 8.8-2.9 5.2-.2.7-3.7-3.5 3.6-7.4 2.1-2.3-4.2-4.1-2.9-.5-5.8-10.1-3 .8-1.5-2.5-2 2.1-1.2-2.5 3-5.1-5.2-7.8 22.3-10.2 3-4.7 5.6-1.9 2.8.9 1.8-2.2 3.2-.4.5-2.8 5.9.8.2-.1h.1l5.9 2.7-1.4 2.5 1.4 2.4.4-.5-.1.2-2.2 4.9 7-.7zm-37.8 46.2 3.7 3.5-2.6 8.1-5.3 7.2-5.5 3.2-3.8.2-.4-2.8-3.4-1.6-4 4.4-2.9.1-.1-3h-2.9l-4.3-7.7 2.8-1.1-.8-5.3 2.8-5-2.2-8.7-2.5-1.6 5-3.7-8.3-4.4-.4-2.9 1.1-4.1 6.2-6.8 1.8-8.2 1.2-1.3 2.3 2 5.4.1 5.2 7.8-3 5.1 1.2 2.5 2-2.1 1.5 2.5 3-.8 5.8 10.1 2.9.5 4.2 4.1-2.1 2.3zM462.8 250l5.5-.4 1.3 6 3.7 1.2-.4 3.2v.8l-1.1.3-2.7.4v1.3l-2.8 1 .3 5.9-2.1 1.7 4 7-1.9 2.1.7 2.9-11.3 5.7-7-2.8-5.9 6-4.4-3.7-2.8 1.7-6.4-.2-5.7-6.3 1.3-8.9.2-5.8-2.2-2-.3-5.9-3.1-7.6-2.7-2.1 1.7-5.8-2-6.5 1.5-2.4 2.8-.7v.1h3.4l7.4 4.8h6l4.6-4.3 3.9 5.6 5.5 3 5.8-.9.9 3.7 2.8-.9zm116.3-24.1 1.4 5.5-.2.1-5.9-.8-.5 2.8-3.2.4-1.8 2.2-2.8-.9-5.6 1.9-3 4.7-22.3 10.2-5.4-.1-2.3-2-3.9-8.2-2.6-1.4 4.6-4.1-.1-3.2-2-3-2.7 1.6h-.1l1.2-2.5 6.6-3.9 2.1 1.8 3.2-1 .3-8.3 2-2.4 2.9.3 2.3-3.2-.2-1.4 8-5.8 7 4.3 5.8-1.6 4.9 3.6 5.1-2.2 8.4 6.6-2.3 5.7zm-61.9 44.3v.1l.4 2.9 8.3 4.4-5 3.7 2.5 1.6 2.2 8.7-2.8 5 .8 5.3-2.8 1.1-4.8-3.3-5.4 1.3-5.9-1.5-5.9 20.9-5.7-7.7-1.6 2.3-2.5-1.5-2.2 1.6-2.2-1.7-2.3 1.9-.3 2.9v.1l-5.7 3.8-2.1-2.1-8 1.5-5.2-3.3v-3l3.7-4.6.5-5.5-1.6-2.4-7.9-2.9-6.7-13.5 7 2.8 11.3-5.7-.7-2.9 1.9-2.1-4-7 2.1-1.7-.3-5.9 2.8-1 2.7-1.7 1.1-.3 2.4 2.6 5.7 1.7 1.3 2.6 5.5 1.9 5.6 6.3 8.8-4.2zm-91.4-63.1-6.7-7.5 3.9-5.4.2-5.8 15.4-3 3.6 1.5 4.5 5.5 2.5 8.3 2-2.2 3.6 4.1 5 10.9 12.6-1.6 2.9 1.4-1.9 3.1 3.1 3.9-.3 3.7-2.8 2.1 1.7 2.3-6.7 10.4-1.3 8.1 1.3 2.7h-.1l-5.5.4-1.5-2.8-2.8.9-.9-3.7-5.8.9-5.5-3-3.9-5.6-4.6 4.3h-6l-7.4-4.8H421v-.1l-2.2-6.9-3-2.8 5.3-3.3 1.6-2.4-1.1-2.9 4.6-4.9zm154.5 8.8.9-.6 7.6 5 .5 9 2.8-.2 2 5-.1.1-2.8.4-1.1-.4-3.2 4.3-.4.5-1.4-2.4 1.4-2.5-5.9-2.7h-.1l-1.4-5.5-1.1-4.3z" /><path id="grand-est" data-name="Grand Est" d="m469.9 88.1.8.3 9.8.4 7.3-3.2 1.1-6 4-3.8 2.8-.2v3.8L494 81l-.6 5.2 3.3 4.5-1 2.4.6 3.1 1.4 1.9 3.3-.9 4.3 2.4 2.8 3.8 4.9.6 2 1.7-.9 2.4 2.1-.1-1.6 1.1-2 2.7-5.7-2.1-1.9 2 .8 8.8-3.2 5.1 1.4 2.5-4.2 3.6v.1l-20.1-1.9-9.8-6.6-6.7-.9-.3-14.3 2.7-.3 5-7.2-1.3-3.1 1.3-3.5zm-27.7 98.8-3.6-1.5-.4-8.5 2.9-.8 3-5 3.2 4.5 9 1.2v-3.3l9.5-7.6 6.5-.9 3.1.5.4 6.1 2.6 2 5.6 2.3 2.5-1.5 3.3 1.1-.6 3.4 2.4 5.2 5.6 3 .5 9.9-.1 2.7-5.6 2.5.2 4.8-3.9-.5-4.7 3.9-6.1.9-2.2 2-2.9-1.4-12.6 1.6-5-10.9-3.6-4.1-2 2.2-2.5-8.3zm-1.6-28 .4-2 7.7-10.2-2.5-1.3.8-2.7-1.6-2.4 5.5-2.3-3.2-8 1.2-2.6 8-4 5.3 1.8 1-2.8 6.7.9 9.8 6.6 20.1 1.9 2.2 9-1 4.1 2.6 1.3-.6 3.9-3.1 1.1-1.1 5.8 3.2 4.6.5 4.1-8.6 2.2 2.2 2.5-2.3 2.2.7 2.9h-4.7l-3.3-1.1-2.5 1.5-5.6-2.3-2.6-2-.4-6.1-3.1-.5-6.5.9-9.5 7.6v3.3l-9-1.2-3.2-4.5-2.6-1.7-3.5-8.3zm53.3 9 8.6-2.2 3.4 5.2 16.9 10.4-2.4 2.3 12.7 9.5-1.7 8.6 5.5 4.7.2 3.1 2.7-1.1 1.3 2.5v.1l.2 1.4-2.3 3.2-2.9-.3-2 2.4-.3 8.3-3.2 1-2.1-1.8-6.6 3.9-1.2 2.5-4.8 1.9v-2.8l-3-1.6-9.2-2-2.3-4.8 2.8-2.4-1-3.1-1.8-2.2-2.9-.3.3-2.9-2.6-1-.5-2.7-3.5-.7-.2-4.8 5.6-2.5.1-2.7-.5-9.9-5.6-3-2.4-5.2.6-3.4h4.7l-.7-2.9 2.3-2.2zm94.3 3 1.9 1.3-1.5.4-10.6 7.6-6.1-1.6-1.6-2.7-5.3 3.8-6 1-2.4-1.8-5.4 2-1.1 2.8-5.7.7-4.1-4.8.1-2.9-5.8-.6.2-2.9-2.5-2 1.7-2.8-1.3-8.6 2.2-13.8.9-2.7-4.9-11.5 1.5-5.9-1.2-2.7-4.4-4.8-5.3 2-.7-5.3 4.8-1.7 2-1.9h6.8l2.5 2.3 2.7 10.2 2.5 1.6 1.2 3.6-1.7 3.1 1 5.6-2.8.1 4.3 7.5 11.5 4-.3 2.9 2.7 5.1 8.5 1.5 5.3 3.9 14.4 5.3zm-72-62.9 1.2-.1 1.5 1.6 1.9 5.6.7 5.3 5.3-2 4.4 4.8 1.2 2.7-1.5 5.9 4.9 11.5-.9 2.7-2.2 13.8 1.3 8.6-1.7 2.8 2.5 2-.2 2.9-1.9 2.3-3-.5-6.9 3.4-16.9-10.4-3.4-5.2-.5-4.1-3.2-4.6 1.1-5.8 3.1-1.1.6-3.9-2.6-1.3 1-4.1-2.2-9v-.1l4.2-3.6-1.4-2.5 3.2-5.1-.8-8.8 1.9-2 5.7 2.1 2-2.7zm23.4 16-2.6-10.2.6.6h2.4l1.5 2.1 2.3.7 2.3-.5 1-2.3 2-1.2 2.2-.2 4.5 2.3 4.9-.1 3.1 3.8 2.3 1.9-.5 2 3.7 3.2 2.8 4.5v2.3l4.2.7 1.2-1.9-.3-2.4 2.6-.2 3.8 1.8 1.4 3.5 2.1-1.5 2.5 1.9 5.8-.4 5.3-4.2 2.2 1.4.5 2.1 2.4 2.4 3.2 1.5-1.7 4.4-1.4 2.6-8.9.3-9.1-4.6-.8-2.8-5 10.8 5.5 2.4-1.6 2.5 2.3 1.7 1.3-2.5 3 .3 4.3 3.4-3 13.3-2.3 1.8-3.4-.3-2-2.7-14.4-5.3-5.3-3.9-8.5-1.5-2.7-5.1.3-2.9-11.5-4-4.3-7.5 2.8-.1-1-5.6 1.7-3.1-1.2-3.6zm92.2 16.7-2.8 9.4-7.8 10.5-2 1.5-1.4 3.3.3 4.9-2.4 7.2.7 3.6-1.5 2-1.2 5.5-3.2 6.2-4.6-1.8-.3-2.8-8.5-5.6-3.1-.2-5.2-2.2 1.3-10-1.9-1.3 3.4.3 2.3-1.8 3-13.3-4.3-3.4-3-.3-1.3 2.5-2.3-1.7 1.6-2.5-5.5-2.4 5-10.8.8 2.8 9.1 4.6 8.9-.3 1.4-2.6 1.7-4.4 8.9.6 2.4-.6zM605.9 193l4.6 1.8v5.4l1.6 1.9.2 3.4-2.2 11.1.1 6.7 1.8 1.5.6 3.5-2.2 2-.2 2.3-3.1.9.5 2.2-1.5 1.6h-2.7l-3.8 1.4-3-1.1.3-2.5-2.4-1.1-.4.1-2-5-2.8.2-.5-9-7.6-5 2.8-2.4v-6.2l4.8-7.8 4.1-13.5 1.1-1 3.1.2 8.5 5.6zm-85.5-9.4 2.4-2.3 6.9-3.4 3 .5 1.9-2.3 5.8.6-.1 2.9 4.1 4.8 5.7-.7 1.1-2.8 5.4-2 2.4 1.8 6-1 5.3-3.8 1.6 2.7 6.1 1.6 10.6-7.6 1.5-.4-1.3 10 5.2 2.2-1.1 1-4.1 13.5-4.8 7.8v6.2l-2.8 2.4-.9.6-8.4-6.6-5.1 2.2-4.9-3.6-5.8 1.6-7-4.3-8 5.8v-.1l-1.3-2.5-2.7 1.1-.2-3.1-5.5-4.7 1.7-8.6z" /><path id="nouvelle-aquitaine" data-name="Nouvelle-Aquitaine" d="m294.8 379.2-2 2v-.1l-6.3-6.3-6-1.2 1.7-3-2.3-2 2.4-1.7-1.5-2.6 1.7-2.6-2.4-1.7-.3-3-5-3.1 2.2-2.1-3.2-5.6 8.1-3.3 2.3 2 2.7-.1 2.7-11.6 2.7-1.6.3-3 5.8-2.5 3.5.4.8-.8h.1l9.1 3 2.9-.8-1.4-2.4 2.2-1.8 4.1 3.9 3.8-1.4 1.3-2.5 4.8.6-.2 5.1 4.7 3.6-.6 3.2-2.6 1.1-4 8-2.8.6-3.4 3.8h.1l-5.7 6.1-2.1 5.3-7.9 5.9-.7 5.7-4.1 5.8zm-52-38.1-1.4-5-3.5-3-1.3-2.3 1.5-3.6 1.7 1.8 2.9.5 1.4 8.4zm-.9-22.2-5.8-4.5-4.4-1.5-.6 2.9 2.7.1 4.8 3.3zm44.6 55.9-6-1.2 1.7-3-2.3-2 2.4-1.7-1.5-2.6 1.7-2.6-2.4-1.7-.3-3-5-3.1 2.2-2.1-3.2-5.6 8.1-3.3 2.3 2 2.7-.1 2.7-11.6-3.6-4.7-17.4-6.7-5.9-6.5v-3.7l-2.4-1.8-6.5.3 1.4-2.9-7.1 2.7.5.1-.6 3.4-4.5 5.9 2.4.3 2.2 1.7 3 7.2-1.5 1.9-.2 5.1-3.3 3.1-.1 2.6-2.2.4-1.5 1.7 1.1 4.3 9 6.5 1.5 2.6 4.3 2.7 3.7 4.8 1.8 7.3 3.8-.5.7 2.8 6.4 1.7.6 5.8 6.1 4.3 9.4 1 2-5 .1-.4v-.1zm77.1 17.5-8.1.8-3.5-7-3.2-.7-.2-3-2.3-1.5 2-1.8-1.7-3 3.6-4.6-2.9-4.7 1.6-2.7 2.5 1.2 4.7-4 5.7-1.3 4.9-4.6 8.7-4 7-3.4 11.2 5.2 2.3-2.6 2.7.8 2.4-2.4 1.2 5.6-1.7 2.4 1.2 7.9.7 6-6.2-2-.6 3.5-7.6 9.5 1.8 2.2-2.3 1.9-.3 3.5-3.1 1.1 1.5 3.4-3.2 1.9h-.1l-6.7-.2-5.3 2.7zm33-48.8 4.4 5.5-2.4 2.4-2.7-.8-2.3 2.6-11.2-5.2-7 3.4-.6-5.9-4.7-3-6.4-.5-.1-2.8-2.9-1.5.9-3.4-1.8-5.2-6.6-9.8 3-5.3-1.2-2.6 2.8-2.9 11.5-1.1 1.9-2.5 13.2 2.7 2.7-.8 4.9.2 1.1 3.9 7.4 4.8 3.6 8.4-.5 4.1 2.3 6.7zm-88.9 70.8-2.8-6.4-1-1.3.9-2.9-2.4-2.6-2 3.2-9.8-2.3 2-2 .2-5.7 2.8-5.5-1.2-2.8-3.7.6 2-5 .1-.4 2-2 5.5-.7 4.1-5.8.7-5.7 7.9-5.9 2.1-5.3 5.7-6.1 6.2 3-.1 4.7 9.5-1.1 7.2 5.6-2 2.7 5.7 2.2 2.9 4.7-3.6 4.6 1.7 3-2 1.8 2.3 1.5.2 3 3.2.7 3.5 7-.7 5-1.4 5.3-4.5 3.2.6 3.6-6 3.4-4.7 6.5-4.2-4.2-5.4 2.7-1.5-6-6.1 1-2.2-1.8-2.8 2zm-63.8 5.8-5.8 2.6v-4.6l2.2-3.2.5-2.3 1.9-1.7 1.8 1.4 3.1-.2-1.1-4.6-3.5-3.4-2.8 4-1.2 3.8 6.2-50 .9-2.8 3.3-3.4 1.4 4.7 9 9 2.8 7.6 1.7-3.1-.6-2.4 3.8-.5.7 2.8 6.4 1.7.6 5.8 6.1 4.3 9.4 1 3.7-.6 1.2 2.8-2.8 5.5-.2 5.7-2 2 9.8 2.3 2-3.2 2.4 2.6-.9 2.9 1 1.3-3.1-.1-1.2 2.5-2.7-.9-1.1 3.3 2.9 1.4-8.5 8.6-.6 8.9-3 2.3 1.5 2.5-4.5 4-2.1-2.7-1.6 3.6h-6.4l-.6-4.7-11-7.7.4-2.8-17.2.7 1.5-5.4zm-21.6 61.1 1.1-1.5 3.9-7.1 8.8-37.8 2-11.7v-.4l5.8-2.6 3.7 1.3-1.5 5.4 17.2-.7-.4 2.8 11 7.7.6 4.7h6.4l1.6-3.6 2.1 2.7.4 4.6 11.7 2.9-3.6 5.2.7 2.6-.4 2.9-2.5 1.3-.6-3-9.4 2.7.5 6.4-4.2 11.1 1.6 2.7-8.6 1.5-3.3-1.1-4.8 1.9-2.2-2-2.3 1.5-2.5-2.3-9.8 2-1.6 2.2-2.5-1.4-2.7 1.3-1.2-2.8-11 2.5zm71.5-25.6-.7-2.6 3.6-5.2L285 445l-.4-4.6 4.5-4-1.5-2.5 3-2.3.6-8.9 8.5-8.6-2.9-1.4 1.1-3.3 2.7.9 1.2-2.5 3.1.1 2.8 6.4 8.9-.5 2.8-2 2.2 1.8 6.1-1 1.5 6 5.4-2.7 4.2 4.2-3.4 3.1 2.7 9.1-7.5 2v2.9l2.4 1.4-4.4 5.5 1.3 2.7-2.8-.2-3.6 4.7-2.7 1.3-8.6-1-5 2.9-8.3-.7-1.4 2.5zm-16.9 57.8 3.4-.8-.4-2.9 8-9.3-.8-3.1 2.7-1.4-.5-7.2h-2.9l1.5-2.8-2.5-5.8-6.6-.3-8.6 1.5-3.3-1.1-4.8 1.9-2.2-2-2.3 1.5-2.5-2.3-9.8 2-1.6 2.2-2.5-1.4-2.7 1.3-1.2-2.8-11 2.5-4-1.9-3.5 4.9-2.7 1.9-4.5.9 1.9 4.5 4.5-.2.2 2.2 2.4 1 2.2-2.1 2.4 1.3 2.5.1 1.4 2.8-2.5 6.7-2.1 2.2 1.3 2.2 4.3-.1.7-3.4 2.3-.1-1.3 2.4 5.9 2.3 1.5 1.8h2.5l6.1 3.8 5.8.4 2.3-1 1.4 2.1.3 2.8 2.7 1.3 3.9 4 2.1.9 1.1-2.1 2.7 2.1 3.6-1.1.2-.2 1.4-9.3zm15.4-181.8-2.7 1.6-3.6-4.7-17.4-6.7-5.9-6.5v-3.7l9.1-4.5-2.5-2 .2-7.4-4.7-17.9-4.2-4.1-2.3-5.7 12.3-.8 3.7-4.8 5.6-.8 9.6-.2 2.3 2.3 3.4 9-.8 3 2.7 1.2-4.5 14.1 2.7-.9 1.5 3-3.4 5.5.5 5.8 2.1 2-.1 2.8 6.4.2-3.2 8.5 4.5 3-.8 2.8h-.1l-.8.8-3.5-.4-5.8 2.5zm37.3-10.8v3.5l-4.8-.6-1.3 2.5-3.8 1.4-4.1-3.9-2.2 1.8 1.4 2.4-2.9.8-9.1-3 .8-2.8-4.5-3 3.2-8.5-6.4-.2.1-2.8-2.1-2-.5-5.8 3.4-5.5-1.5-3-2.7.9 4.5-14.1-2.7-1.2.8-3-3.4-9 6.6-5.9 5.5 3.2.3 3.2 2.9-.3 1.3 6.1 2.8 1.4 10-.4-1.4-2.9 5.3 3 .3 3.1 7.1 10 2.1 3-.8 5.8 4.6 4.4h2.9l2.6 5.4 2.5 1.3-1.5 2.8-.8-.3-1.3 2.4-3.3-.9-1.3 3-5.6 2.7zm19.3 43.3-1.6 2.7-5.7-2.2 2-2.7-7.2-5.6-9.5 1.1.1-4.7-6.2-3h-.1l3.4-3.8 2.8-.6 4-8 2.6-1.1.6-3.2-4.7-3.6.2-5.1v-3.5l3-5 5.6-2.7 1.3-3 3.3.9 1.3-2.4.8.3 2.6 1.1 5.8-1.1 1.7 2.5 1.2 2.6-3 5.3 6.6 9.8 1.8 5.2-.9 3.4 2.9 1.5.1 2.8 6.4.5 4.7 3 .6 5.9-8.7 4-4.9 4.6-5.7 1.3-4.7 4z" /><path id="auvergne-rhone-alpes" data-name="Auvergne-Rhône-Alpes" d="m542 347-5.7 6.7-11.2-15.2-2.8.7-3 5.1-6-2-6.4.5-3.7-5.7-2.8.5-3.1-9.2 1.5-8 5.9-20.9 5.9 1.5 5.4-1.3 4.8 3.3 4.3 7.7h2.9l.1 3 2.9-.1 4-4.4 3.4 1.6.4 2.8 3.8-.2 5.5-3.2 5.3-7.2 4.5 2.7-1.8 4.7.3 2.5-4.4 1.5-1.9 2 .2 2.8.5.2-4.4 4.7h-2.9l.8 9.3zm-98.9-54.7 5.9-6 6.7 13.5 7.9 2.9 1.6 2.4-.5 5.5-3.7 4.6-3.9 1.3-.5 3 1.5 12.4-5.5 4.8-3.5-4.3-6.4-.4-1.4-3.2-13.1-.5-1.6-2.5-3.3.5-4.4-4.5 1.2-2.8-2.3-1.7-11.2 8-2.5-1.2-3.6-8.4-7.4-4.8-1.1-3.9v-.1l3.5-5.9 8.7-1 1.7-2.4-1.7-5.3 2.3-1.9 8.4-2.9 4.8-3.7h4.1l5.7 6.3 6.4.2 2.8-1.7zm53.4 141.9.1 3.7-6-3.5h-2.8l-2.5 2.3-.1-3.1-7.1 4.3-7.8-5-2.7-5.9-4.2-8.3-2.1-9.1 6.7-6.4 5.9-1.9 3.4-5.9 3.4-.4-.7-2.8 2.6-2.3 1.5-5.2 2.6 1.2v-3.1l.9-4.1 3.5-.8 3.2-4.9 5-2.7 2 4.2.5 10.3 3.8 11.3-1.5 6.2-3.5 4.5 1 7.1-3 5.9zm-60.9-46.3 3.5 8-1 1-6.8 5.7-1.7-2.3-6.9 15.9-2.6-5.1.5-3-2.4-1.6-1.3-4.2-5.2-4-4.7 4.2-3 9.1-3.8 4.8-6.4-1.5-5.1 3.2-3.3-5 1.7-5.8-3.8-6-1-5.4h.1l3.2-1.9-1.5-3.4 3.1-1.1.3-3.5 2.3-1.9-1.8-2.2 7.6-9.5.6-3.5 6.2 2-.7-6 7.5 3.5 1.5 2.5 6.7.3 6.5 5.4 3.7-4.1v3.9l5.5 1.5 3.3 8.7 2.6 1.1zm99.5 16.5-3 .5-.8-17.5-3 1.7-8.2-1.9-2.7 1 1.1-6.3-3.3-7.8-4.9-2.7-9 3.1.5 10.3 3.8 11.3-1.5 6.2-3.5 4.5 1 7.1-3 5.9-2.1 14.4 5.9.7 3.5 4.2 8.7-3.9 2.4 1.4 2.5-2.2.5 5.8 9.3.9.1 2.8 5.2 2.3 4.3-4.8 2.3-.1 1-.2.2-4.7-10-5.7-1.5-2.6 3.2-5.1 4.2 1.4 2.5-2.5-3-2.3 2.5-6.7 5.8-.3.3-3.4-5.9-.8zm-21.5-55-.3-7.1 6 2 3-5.1 2.8-.7 11.2 15.2 6.5 10.5 6.2.2.3-2.8 9.4 2.1 2.7 6.3-2.3 5.5 1 5.4 5.2 1.5-1.6 3.8 1.8 4.2 4.4 3.1-.4 5.8-3.1-1.1-12.6 3.9-.9 2.8-5.5 1.2-1 3.1-5.9-.8-5.4-4-3 .5-.8-17.5-3 1.7-8.2-1.9-2.7 1 1.1-6.3-3.3-7.8-4.9-2.7-9 3.1-2-4.2v-4.4l-.2-1.1h.1l4.4-3.9-1.9-2.5 2.5-2.5 6.9-1.5zm-14.3 16.5v4.4l-5 2.7-3.2 4.9-3.5.8-2.2-2.4-2.6 1-.7-5.5-6-2.2-6.2 3-2.8.4-2.3-2-2.8.8 3-7.1-2.7-7.5-4.6-3.8-4.7-7.7 2.1-6.3-2.5-2.7 5.5-4.8-1.5-12.4.5-3 3.9-1.3v3l5.2 3.3 8-1.5 2.1 2.1 5.7-3.8v-.1l2.1 3-4.9 3.5-1.6 8.6 5.2 6.7-1.7 5.9 2.3 1.6-1.3 2.5 1.1 3 4.6 4.1 5.9 2.1.9 3 4.6 2.6h-.1zm-13.9 10.4 2.2 2.4-.9 4.1v3.1l-2.6-1.2-1.5 5.2-2.6 2.3.7 2.8-3.4.4-3.4 5.9-5.9 1.9-6.7 6.4-9-7.7-2.9-.2-.1 2.8-6.4-1.2-1.5-5.7-2.3-1.7-3.5-8 3.4-.2-2.6-1.1-3.3-8.7-5.5-1.5v-4l9.6-3.2 8.5.1 5.2 3.2 11.1-.7 2.8-.8 2.3 2 2.8-.4 6.2-3 6 2.2.7 5.5zm-36.3-43.9 3.5 4.3 2.5 2.7-2.1 6.3 4.7 7.7 4.6 3.8 2.7 7.5-3 7.1-11.1.7-5.2-3.2-8.5-.1-9.6 3.2v.1l-3.7 4.1-6.5-5.4-6.7-.3-1.5-2.5-7.5-3.5-1.2-7.9 1.7-2.4-1.2-5.6-4.4-5.5 9.3-8.6-2.3-6.7.5-4.1 2.5 1.2 11.2-8 2.3 1.7-1.2 2.8 4.4 4.5 3.3-.5 1.6 2.5 13.1.5 1.4 3.2zm44-19.7 5.7 7.7-1.5 8 3.1 9.2 2.8-.5 3.7 5.7 6.4-.5.3 7.1-2.5 5-6.9 1.5-2.5 2.5 1.9 2.5-4.4 3.9-4.6-2.6-.9-3-5.9-2.1-4.6-4.1-1.1-3 1.3-2.5-2.3-1.6 1.7-5.9-5.2-6.7 1.6-8.6 4.9-3.5-2.1-3 .3-2.9 2.3-1.9 2.2 1.7 2.2-1.6 2.5 1.5zM603.7 362l-1 10.3-3.1 1.4-2.2.7-4.5 3.4-1.5 2.4-2.5-1.4-5.1 1.3-2 1.8v.1l-6.8 1.9-2 2-7.7-3.5-5.2-1.5-1-5.4 2.3-5.5-2.7-6.3-9.4-2.1-.3 2.8-6.2-.2-6.5-10.5 5.7-6.7 2.3-13.6 2.7 6.7 2.7.9 1.3 2.5 3 1.7 2.6-1.6 3.2.8 4.6 3.6 9.4-13.9 2.4 1.6-.6 3 2.3 1.8 6.2 2.3 2.2-1.5.6-.8 1.9 4.7 2.7 1.1 1.5 1.9 2.8.4-.7 3 1.3 5.2 5.1 4zM547 340.1l-2.7-6.7-.8-9.3h2.9l4.4-4.7 2.2.9 2.3-1 2.3.1 3.4-3.5 2.1-1 1-2.3-2.8-1.3 1.8-5.1 2.4-.8 2.3 1 3.6-2.9 9.5-1.3 3.2.6-.5 2.7 4.2 4.1-2.1 6.4-.6 1.5 4.6 1.7-.1 4.8 2-1.4 4.6 6.6-1.3 5-2.5 1.7-4.9.9-.6 3.7-.6.8-2.2 1.5-6.2-2.3-2.3-1.8.6-3-2.4-1.6-9.4 13.9-4.6-3.6-3.2-.8-2.6 1.6-3-1.7-1.3-2.5z" /><path id="provence-alpes-cote-d-azur" data-name="Provence-Alpes-Côte d'Azur" d="m596.5 409.9.6-.5-.4 4.5-2.2 1.5-.6 2.9 3.5 4-1.8 4.8.2.2-6.8 7.8-2 5.3 4.3 8.5 7 7.7-5.2-.6-5.2 3.8 1.2 2.6-3 1.4-9.8.4-1.2 3.5-5.9-3.6-10.1 8.5-4-4.8-2.7 1.8-5.3-.2-6.1-6-3.4-1.1 1.7-2.5-3.7-5.2 1.2-3-2.2-5.4 4.3-4.8 2.3-.1 1-.2 5.9-1.4 3.8 1-3.4-4.9 3.9 1.1 1.4-8.6 5.3-4 3.3-.7 3.5 4.5.7-3.8 3.8-4.2 11.1 3.3 9-10.2zm.6-.9v.4l-.6.5-6 3.3-9 10.2-11.1-3.3-3.8 4.2-.7 3.8-3.5-4.5-3.3.7-5.3 4-1.4 8.6-3.9-1.1 3.4 4.9-3.8-1-5.9 1.4.2-4.7-10-5.7-1.5-2.6 3.2-5.1 4.2 1.4 2.5-2.5-3-2.3 2.5-6.7 5.8-.3.3-3.4 1-3.1 5.5-1.2.9-2.8 12.6-3.9 3.1 1.1.4-5.8-4.4-3.1-1.8-4.2 1.6-3.8 7.7 3.5 2-2 6.8-1.9 1.8 4.5 2.4.6 1.1 2 .4 3 1.2 2.2 3 2.3 5.7.5 2.2 1.3-.7 2.1 3.2 4.7-3 1.5zm8.2 68.1-3.2-.1-1.3 1.8-.1 2.2-.4.8-2.2-4 .8-2.9-5.6-2.6-1.7-5.6-5.5-2.9 3-1.4-1.2-2.6 5.2-3.8 5.2.6-7-7.7-4.3-8.5 2-5.3 6.8-7.8 6.9 7.8 6.9 1.6 4.2 2.8 2.5-.4 1.8 1.4 10.3-2.4 2.7-1.8-.3 2.6 1.5 2.2.3 3.2-1.6 1.9-.2 2.3-2.7 1.6-3.3 5-.5 1.6 1.1 2.7-1.1 2.7-3.5 2.9-2.3.5-.9 2.4-3-.9-1.5 2.1-2.3.5-1.8 2.4.1 2.8-2.4.6zM545 500.2l2.5-2-2.2-6.3 1.1-2.6 2.7-.5-5.5-9.1 2-5.3 3.3-.8-1.9-3.8-.1-.1-6.6 4.3-3.2.2-12-4.8-3.5.7-4.5-2.3-5.5-5.7-10.4-2.9-3.9 4.1-1.9 10.6-3.3-.9-4.2 4.8 1 2.7-5.8 1.8-3.1 4.9.2.1h13.2l2.2.9 1 2.2-1.6 1.5 2.2 1.4 7.4.1 3.2 1.3 1.8-1.7-1.5-2.8.4-2.4 4.9 1 3 5.3 10-.8 2.6-1.1 1.8 2-.2 2.5 1 2-1.2 2.2h9.2l1.3 2 2.2-.8 1.7.2zm55.3-18.4-1.4 2.5-6.8 1.7-.7 2.5-5.5 5.7 5 .7-2 4.8-4 .2-4.8 2.5-3.5 1.1.1 2.7-4.9-1.5-2.7.5-1.6 1.6-.4 2.3-2.2 1.6 1.4-1.8-2.4-1.7-2.2.7-1.6-1.6-3.1.1.9 2.2-2.3-.4-1.5 1.7-3-1.1.6-2.3-6.4-4.1-.5-.1.2-2.1 2.5-2-2.2-6.3 1.1-2.6 2.7-.5-5.5-9.1 2-5.3 3.3-.8-1.9-3.8.1-.4 5.3.2 2.7-1.8 4 4.8 10.1-8.5 5.9 3.6 1.2-3.5 9.8-.4 5.5 2.9 1.7 5.6 5.6 2.6-.8 2.9zM541 463.4l6.1 6-.1.4-.1-.1-6.6 4.3-3.2.2-12-4.8-3.5.7-4.5-2.3-5.5-5.7-10.4-2.9 4.5-5-6.3-6.4-.2-5.5-2.6-4.4-.1-3.7 5.9.7 3.5 4.2 8.7-3.9 2.4 1.4 2.5-2.2.5 5.8 9.3.9.1 2.8 5.2 2.3 2.2 5.4-1.2 3 3.7 5.2-1.7 2.5z" /><path id="occitanie" data-name="Occitanie" d="m369.8 543.6.8-.9-2.6-1.1-2-2.1-3.7-.1-1.7-1.7-2.8.4-1.3 2.1-2.4-.8-2.8-5.9-10-.6-1.3-2.8-13.2-3.9-.5-1.4 3.8-5.2 2.8-1v-5.9l3.9-4 2.8-1.1 6.2 4.1-.4-5.6 5.4-1.6-3-4.8 2.8-1.1 3.4 5.5 2.8-.5.6-2.8 5.7 2.2 2-2.3 2.2 5.5 8.7 3.9 2.2 5.2.2 3.1-2.2 2.3 2.4 2.5-1.2 3-3.2.6.8 5.7 3.4 1.5 3.3-1.2 4.8 5.6-7.4.2-1.3 2.6zm65.3-39.2-1.5 1.5-5.2 9.3-.9 3.5.1 9.6-9.4-5.6-8.2 5.4-13.6-1-2.7 1.4 1.4 6-8.6 3.9-4.8-5.6-3.3 1.2-3.4-1.5-.8-5.7 3.2-.6 1.2-3-2.4-2.5 2.2-2.3-.2-3.1-2.2-5.2-8.7-3.9-2.2-5.5 8.4-10 1.4 2.7 5.2-1.8.5-.8 1.8 2.3 6.3.9 1.1-3.3 2.8-.5 12 1.4-.5 2.8 3.5 5 2.5-1.6 1.4 2.9 3.1-.8 3.8-5.3 1 2.9 13.8 4.7 1.7 2zm-4.3-63.7 9.4 4.5-2 3.9-2.8 1.1 8.4 4.1-4.3 5.3.3 1.5-3.7 1-3 5.3-6.3-1.3-.1 8.7-5.7-.1-1.3-2.8-11.1-1.3-4.2-5-4.3-11.5-4.8-4.3L385 444l-6.1 2.8-4.3-3.6 2.3-2.4-3.1-2.7.4-3-.8-9.1 7.6-5 5.9-1.4 1.7-1.5h.1l5.1-3.2 6.4 1.5 3.8-4.8 3-9.1 4.7-4.2 5.2 4 1.3 4.2 2.4 1.6-.5 3 2.6 5.1v.1l4.2 4.5 2.9 8.8-.5 8.7zm49.2 46.5-2.8-.6-1.9-1.6-1.1-3.4h-.1l3.3-4.4-1.5-3-6.1-6.7-3-.2-.2-3-6.8-1.4.9-2.7-1.9-2.6-3.9.6-4.2 3.9-.1 2.8-5.3-2.5-2.2 1.7-.4-2.9-2.9-.1-.3-1.5 4.3-5.3-8.4-4.1 2.8-1.1 2-3.9 7.8 3.4 3.9-.5.1-3.3 8.7 2.2 6.3-1.8-1.4-3 1.2-2.9-3.9-7.7 3.6-2.5 1.1-2.1 2.7 5.9 7.8 5 7.1-4.3.1 3.1 2.5-2.3h2.8l6 3.5 2.6 4.4.2 5.5 6.3 6.4-4.5 5-3.9 4.1-1.9 10.6-3.3-.9-4.2 4.8 1 2.7-5.8 1.8zm-153.2 39-5.5-1.5-1.2 2.4.2 7.6-8.8-.7-1.7.3-.6-7 5.5-3.2 2.6-5.3-.8-2.7-3.1.3.6-3.5-4.6-4 7.1-11.2 3.1-1.1 3.5-5.3 11.4 2.5.7-5.8 6.5-6.1-9.1-13.3 9.9-.9 1.7 2.3 5.8-2.5-2.2-2.3 11.7-4.3 1.4 6.3 2.6 1.2.2 2.8 2.3 2.1-.7 5.4 14.3 9.3 1 2.8-.5.8-5.2 1.8-1.4-2.7-8.4 10-2 2.3-5.7-2.2-.6 2.8-2.8.5-3.4-5.5-2.8 1.1 3 4.8-5.4 1.6.4 5.6-6.2-4.1-2.8 1.1-3.9 4v5.9l-2.8 1-3.8 5.2zm3.8-64.5 2 6.9 9.1 13.3-6.5 6.1-.7 5.8-11.4-2.5-3.5 5.3-3.1 1.1-12.4-2.2-1.4-3-5.5.6-2.6-8.7-3.3-1.3-2-3.5-3.9.5-6.6-.3-1.6-2.7 4.2-11.1-.5-6.4 9.4-2.7.6 3 2.5-1.3.4-2.9v-.1l3.7.7 1.4-2.5 8.3.7 5-2.9 8.6 1 2.7-1.3 5.3 1.7-3.3 4.6zm143.5 19.9-2.4-.1-5.9 2.6-3.6 3.2-7.2 4.6-4.3 4.2 2.1-3.5-4.3 6.6h-6.8l-5.5 4-1.1 1.2-.2-.2-1.7-2-13.8-4.7-1-2.9-3.8 5.3-3.1.8-1.4-2.9-2.5 1.6-3.5-5 .5-2.8 3.4-2 .8-3-.7-9.7 6.1 2.2 6.8-4.4 5.7.1.1-8.7 6.3 1.3 3-5.3 3.7-1 2.9.1.4 2.9 2.2-1.7 5.3 2.5.1-2.8 4.2-3.9 3.9-.6 1.9 2.6-.9 2.7 6.8 1.4.2 3 3 .2 6.1 6.7 1.5 3zm-88.7-68.5 3.3 5h-.1l-1.7 1.5-5.9 1.4-7.6 5 .8 9.1-6.2.8-7.5 5.5-2.6-2.3-8.7 2.5-.5-4-2.4 1.5-2.7-1-4.5-4 2.1-2.3-3.1.5-2.7-9.1 3.4-3.1 4.7-6.5 6-3.4-.6-3.6 4.5-3.2 1.4-5.3.7-5 8.1-.8 6.7 6.1 5.3-2.7 6.7.2 1 5.4 3.8 6zm78 5.6 4.2 8.3-1.1 2.1-3.6 2.5 3.9 7.7-1.2 2.9 1.4 3-6.3 1.8-8.7-2.2-.1 3.3-3.9.5-7.8-3.4-9.4-4.5-1.5-2.4.5-8.7-2.9-8.8-4.2-4.5v-.1l6.9-15.9 1.7 2.3 6.8-5.7 1-1 2.3 1.7 1.5 5.7 6.4 1.2.1-2.8 2.9.2 9 7.7zM314.7 524.1l-5.5 3.2.6 7-.7.2-2.3-1.6-2.4 1.8-2.5-.5-1.9-1.7-3.9-.3-6.9 2.1-2.2-.9-2.1-1.7-1.1-2.5-7.8-5.5-2.1 1.8 1.4-9.3 1.6-2.8 3.4-.8-.4-2.9 8-9.3-.8-3.1 2.7-1.4-.5-7.2h-2.9l1.5-2.8-2.5-5.8 3.9-.5 2 3.5 3.3 1.3 2.6 8.7 5.5-.6 1.4 3 12.4 2.2-7.1 11.2 4.6 4-.6 3.5 3.1-.3.8 2.7zm112.9 4.2.3 15.6 3.9 3.3 1.9 3.8h-2.3l-8.1-2.7-6.9 3.9-3-.2-2.4 1.1-.6 2.4-2.1 1.2-2.4-.7-2.9 1-4-3.1-7-2.9-2.5 1.4h-3l-1 2.1-4.6 2-1.9-1.7-1.7-4.8-7.5-2-2-2.1 2-2.3 8-2.4 1.3-2.6 7.4-.2 8.6-3.9-1.4-6 2.7-1.4 13.6 1 8.2-5.4zm-7.9-56.4 1.3 2.8-6.8 4.4-6.1-2.2.7 9.7-.8 3-3.4 2-12-1.4-2.8.5-1.1 3.3-6.3-.9-1.8-2.3-1-2.8-14.3-9.3.7-5.4-2.3-2.1-.2-2.8-2.6-1.2-1.4-6.3.5-2.8 4.8-3.2 1-2.7-1.8-2.2 3-1.1 2.7 1.1 9.2-3.2 6.1-2.8 10.3 5.8 4.8 4.3 4.3 11.5 4.2 5zM360 458.1l-.5 2.8-11.7 4.3 2.2 2.3-5.8 2.5-1.7-2.3-9.9.9-2-6.9-5.1-4.1 3.3-4.6-5.3-1.7 3.6-4.7 2.8.2-1.3-2.7 4.4-5.5-2.4-1.4v-2.9l7.5-2 3.1-.5-2.1 2.3 4.5 4 2.7 1 2.4-1.5.5 4 8.7-2.5 2.6 2.3 7.5-5.5 6.2-.8-.4 3 3.1 2.7-2.3 2.4 4.3 3.6-9.2 3.2-2.7-1.1-3 1.1 1.8 2.2-1 2.7z" /><path id="corse" data-name="Corse" d="m640.5 554.2 3.2-1.7.7 8.4-.1.5-1.9 4.9-2.7 1.9 3.3.4-5.8 14.7-3.1-1.2-1.2-2.8-11.2-3.4-4.8-4.4.2-3 4.9-3.3-9.5-1.9 2.7-7-.9-5.8-7.3 2.6 3-8.4 2.6-1.6-7.9-4.4-1.1-5.5 5.3-3.8-3.8-4.2-2.6 1 .5-2.7 13.6 2.1 1.2 3.5 6 3.4 6 5.9.5 3.2 2.7 1.1 3.7 11zm3.2-2.7v1l-3.2 1.7-3.8-.5-3.7-11-2.7-1.1-.5-3.2-6-5.9-6-3.4-1.2-3.5-13.6-2.1v-.2l3.9-5-.3-3.4 2.2-2.8 2.8-.3.9-2.9 10.7-4.2 3.5-4.9 8.6 1.3-.5-17.4 2.4-2 2.9 1.1.2.9 1.5 8.2-.5 10.6 4 5.6 3.8 26-5.4 11.9z" /></svg>