<svg xmlns="http://www.w3.org/2000/svg" viewBox="22.77 245.72 294.96 274.56" role="img" aria-label="L'Amérique du Nord par pays">
    <path id="canada" data-name="Canada" d="M151.767,281.182l1.72,2.602l0.864,3.475l4.305,1.081l3.017-3.25l2.585,1.306l7.321,0.647l5.169-2.17l0.864,7.157h3.017v-3.034l3.017,0.216l7.538,8.895l4.953,3.035l-2.584,4.123l1.081,1.081l9.673,1.953l0.216,4.34l2.585,0.433l0.648-6.51l4.089-1.08l3.017,4.556l6.457,3.034l3.233,0.647l2.152-2.602l0.216-4.124l3.873-2.387l1.288,3.476l-3.449,6.077l0.432,3.033l1.937-3.033l3.873-3.475l0.216-4.556l-2.152-3.476l0.648-2.817l5.169-2.603l2.369,1.738l0.432,15.188l3.657-3.25l2.152,1.305l-3.017,5.204l3.873,0.865l5.602-8.679l4.737,4.986l-1.936,8.895l-4.737,2.603l-4.521-2.169l-8.177,1.736l0.864,2.818l-2.152,3.476l-6.673,1.521l-7.538,5.86l-6.673,8.896l-0.864,2.817l4.521,1.737l1.72,4.339l6.241,6.293l9.906,4.339l-2.152,9.975l-0.216,2.818l2.585,1.736l3.449-4.555l0.432-8.679l5.385-0.216l2.584-4.988l0.433-7.589l6.889-13.45l8.609,3.034l4.521,6.293l-1.937,6.292l3.449,1.954l8.394-5.646l2.368,15.404l7.754,9.327l0.216,4.771l-8.609,2.17l-4.088,4.338l-8.609-1.953l-4.305-0.217l-7.538,5.86l4.521-1.081l5.601-1.08l1.081,1.305l-1.504,4.771l0.216,4.34l2.585,1.736l2.584-0.648l1.296-1.953h1.72l-2.801,5.205l-5.385,0.215l-2.368,3.476h-3.017l-0.864-2.603l4.305-4.338l-5.169,1.737l-0.233-7.374l-1.487-0.863l-4.521,1.953l-0.432,3.691h-10.338l-8.832,6.08l-11.842,3.908l-1.288-1.738l5.964-8.902l-3.388-3.261l-2.152-4.132l-4.383-3.346l-4.702-0.389l-8.428-5.904l-61.122-10.043l-1.011-4.142l-5.602-5.204v-4.339l0.865-3.907l-0.433-2.168l-2.152-2.171l-0.432-3.475l5.602-3.908l-3.449-18.653l-4.737-0.217l-4.305-5.645L151.767,281.182L151.767,281.182z M130.684,350.117l-1.47,2.818l0.51,1.996l0.959,0.598l-0.225,0.812l-1.029,0.294l0.294,2.965l1.106,1.115l0.882-0.959l-1.106-2.887l0.657-2.299l1.616-2.152l-1.175-1.997L130.684,350.117L130.684,350.117z M135.542,367.008l-1.323,0.52l2.429,2.818l0.588,3.336l2.429,2.592l2.058-0.371v-3.406l-2.498-1.557L135.542,367.008L135.542,367.008z M268.15,295.833l-1.53,1.547l1.34,2.126l6.328,0.77l-4.028-4.252L268.15,295.833L268.15,295.833z M191.105,270.143l0.19,3.475l-6.898,7.148l1.729,5.791l4.979-1.348l2.878-4.253l7.278-2.706l5.938-0.389l-4.599-5.022l-2.299,1.737l-1.729-0.579l-0.959-2.126l-2.109-2.126L191.105,270.143L191.105,270.143z M200.113,259.908l-1.53,2.706l7.477,2.706l2.68-4.055l1.15,2.707h1.919l3.639-4.055l-4.409-1.158l-1.729-1.348l-2.299,2.316L200.113,259.908L200.113,259.908z M213.148,265.318l-5.938,2.508v1.928l7.667,2.896l-1.729,1.928l1.15,2.507l4.789-2.126h4.028l1.919,3.086l3.259-3.285l-0.77-3.095l-2.68,0.968l-0.38-3.863l1.34-2.316h-1.34l-2.109,1.349l-0.959,0.769l0.579,2.707l-1.53,1.158l-2.299-0.19l-0.579-3.476L213.148,265.318L213.148,265.318z M221.005,259.329l-0.579,1.927l3.639,1.738l2.68-1.547l-0.19-1.158L221.005,259.329L221.005,259.329z M223.875,256.044l-2.679,0.968l0.19,1.35l5.938-0.389l-0.19-1.349L223.875,256.044L223.875,256.044z M236.72,259.329l-0.38,1.348l-0.959,1.349v1.929l3.639-0.579l3.83,3.285h1.34v-3.285l-3.83-4.253L236.72,259.329L236.72,259.329z M246.497,263.191l1.53,1.738l-1.34,2.316l0.959,2.507l4.218-2.317v-1.736l-2.49-2.896L246.497,263.191L246.497,263.191z M252.055,258.75l0.19,3.086h5.178l1.34,1.158l-0.19,1.348l-4.599,0.58l3.259,4.443l4.409,0.77l6.128-2.705l-8.817-13.33l-2.68,1.738l0.19,2.316l-3.069-1.158L252.055,258.75L252.055,258.75z M207.399,280.576l-7.278,1.928l-4.219,3.673l0.38,4.054l7.667,2.317l-1.729,3.864l-5.558-3.477l-1.53,2.896l3.639,2.507l-0.19,4.054l5.558,1.547l6.708-0.389l1.149-2.126l4.979,5.601l3.449-1.157l0.579-3.864l2.49,1.737l0.38-3.864l-3.068-1.928l0.19-12.162l-2.68-2.126l-2.87,3.864L207.399,280.576L207.399,280.576z M230.782,289.073l-2.489-1.158l-1.34,1.737l2.68,4.253l0.19,4.054l5.749-3.475v-5.022l2.109-2.126l-2.109-1.547h-3.449L230.782,289.073L230.782,289.073z M243.048,287.335l-4.028,3.285l0.959,4.054h2.49l1.149-2.126l1.729,1.737l1.729-0.19l4.599-3.864L243.048,287.335L243.048,287.335z M242.659,280.956l-0.959,1.928l4.218,1.548l1.15-1.738L242.659,280.956L242.659,280.956z M240.169,273.617l-4.218,0.579l-2.49,2.315l4.599,0.19l-1.34,3.475l0.959,1.548l1.34-0.19l3.259-5.212L240.169,273.617L240.169,273.617z M247.456,272.27l-2.299,0.77l0.38,3.086l3.83,2.507l0.19,1.927l-1.149,1.159l0.579,3.864l14.755,4.823l4.028,1.349l4.028-3.475l-4.789-3.864l-4.409,1.158l-6.128-0.579l-2.299-2.316l-0.579-6.371l-3.83-1.928L247.456,272.27L247.456,272.27z M259.523,292.357l-4.218-0.39l-4.979,1.927l-2.68,3.666l0.769,10.043l8.238,0.39l7.857,3.864l5.559,6.371l4.218-0.19l-1.15,5.981l-3.829,6.371l-4.218,1.926l-3.069-0.578l-1.53-1.348l-2.299,3.086l0.959,3.086l3.259,0.189l4.028-1.928l3.449,8.886l8.626,5.603l5.938-7.529l-4.979-8.108l2.878-3.284l4.028,6.758l7.278-6.371l-1.339-2.896l-4.98,1.548l-3.448-9.466l3.259-5.403l-6.518-6.949l-3.639,2.507l-3.449-7.529l-7.277,0.968l-1.919-9.076l-5.938,4.055l-0.579,5.021h-3.259l0.38-4.443L259.523,292.357L259.523,292.357z M262.021,274.006v1.738l-4.218,0.968l1.149,1.927l4.789,1.928l5.368,0.58l3.831,2.705l3.829-2.127l-2.681-2.705h3.449l2.109-2.316l5.178-0.77v-1.158l-2.878-1.928l0.379-2.127l8.048,1.348l11.886-4.633l-4.41-1.348l1.15-1.547h9.197l1.531-1.547l-18.593-6.569l-4.41-1.547l-4.789,3.476l-5.368-4.443l-2.878-0.19l-0.579,3.675l-3.638-3.285l-4.218,1.349l0.769,2.126l6.328,1.35l-0.38,3.086l3.449,2.125l8.438-2.125l0.19,2.896l-6.898,3.285l-4.218-3.285l-3.83,0.389l3.83,5.411l-1.919,0.969l-2.878-2.508l-2.109,1.348l1.919,3.666h3.259l-0.769,3.475l-2.68-0.389l-3.449-3.674L262.021,274.006L262.021,274.006z M244.941,327.159l-3.657,4.599l-0.225,5.065l3.198-1.841h3.881l2.74,2.533l2.515-2.076L244.941,327.159L244.941,327.159z M289.466,386.977l-9.136,8.748l0.916,2.074l11.186,4.141l1.599-2.758l-0.916-4.599l-3.657,0.458l-2.057-2.299l3.423-3.449L289.466,386.977L289.466,386.977z" />
    <path id="etats-unis" data-name="États-Unis" d="M143.589,375.989l-0.865,3.475l-3.017-1.954h-1.504l-0.865,3.691l-10.554,23.65l2.801,20.606l3.449,1.737l0.648,5.645h7.105l6.889,5.204l13.562,1.305l1.504,6.941l2.152,1.521l3.017-3.033l2.369,1.08l2.152,9.976l3.656,2.386l3.017-5.645l9.258-6.726l6.025,2.817l5.169,0.433l0.216-3.25l10.762,0.217l2.152,2.386l0.432,5.42l-1.288,3.034l1.504,5.203h3.233l3.232-4.987l-1.288-2.386l-1.288-5.204l1.936-5.86l8.826-7.59l6.673-1.953l-0.864-6.293l9.258-9.983l9.258-1.521l-1.504-5.193l9.042-5.205v-6.94l-0.865-0.433l-3.233,1.082l-0.432,4.252l-10.745,0.129l-8.419,5.594l-13.217,4.322l-2.109-2.586l5.999-9.076l-2.965-2.826l-2.014-3.838l-4.175-3.354l-4.538-0.38l-8.575-5.852L143.589,375.989L143.589,375.989z M74.791,285.234l2.991,5.594l1.919-0.432v-1.938L74.791,285.234L74.791,285.234z M57.926,334.428l-0.147,2.602l1.867-0.432v-1.158L57.926,334.428L57.926,334.428z M55.057,335.586l-3.734,1.885l0.579,2.022l1.435-1.158l2.87-1.306L55.057,335.586L55.057,335.586z M39.541,338.042l-2.584-0.579l-0.432,1.158l0.285,2.169L39.541,338.042L39.541,338.042z M34.078,337.902l-2.446-1.01l-0.865,1.59l1.582,1.591L34.078,337.902L34.078,337.902z M95.485,277.922l-7.252,1.721l1.496,8.168l7.892,2.151l0.423,1.72l-11.73,3.657l-6.613,10.96l2.343,11.609l3.838,2.576l2.991-2.793l0.856,1.721l-3.63,4.296l-14.082,6.449l-8.964,2.151l-0.216,3.225l20.694-6.016l8.532-2.369l7.892-9.674l8.748-5.8l-4.478,7.521l4.91,0.647l8.324-3.656l1.496,6.017l5.757,1.288l5.973,5.8l0.423,4.296l-0.855,1.072l1.063,4.08h1.496l0.216-6.881h1.703l0.423,16.977l4.271-3.657l-2.991-17.625h-4.478l-4.91-6.231l24.108-40.844l-23.892-18.696l-26.667,5.161l-1.063,8.168l5.757,3.439l-2.135,5.594L95.485,277.922L95.485,277.922z" />
    <path id="mexique" data-name="Mexique" d="M133.847,433.982l4.175,13.146l-1.945,1.089l0.216,2.61l3.674,2.827v5.229l4.538,4.356l-1.945-12.847l-2.593-8.497l0.648-5.877l2.161,0.217l0.865,1.962l-0.865,5.005l11.237,21.99v7.841l9.077,10.666l9.94,4.573l4.106-2.396l5.835,4.789l3.458-3.483l-1.513-3.925l4.97-1.521l1.513,0.873l1.513-1.521h2.377l4.322-7.624l-2.161-1.962l-8.428,1.962l-1.945,5.662L182.106,480l-5.834-2.396l-2.593-8.271l1.962-10.434l-4.011-2.498l-1.91-10.02l-1.599-0.683l-2.922,2.965l-3.354-1.789l-1.313-6.682l-13.286-1.393l-6.863-5.16L133.847,433.982L133.847,433.982z" />
    <path id="guatemala" data-name="Guatemala" d="M183.456,491.11l5.126,3.752l5.169-6.423l-0.881-1.331l-1.764-0.062v-3.761l-1.322-0.804l-4.002,1.192l1.53,3.526L183.456,491.11L183.456,491.11z" />
    <path id="belize" data-name="Belize" d="M191.823,483.228l-0.043,3.154h0.726l2.472-4.615h-1.677L191.823,483.228L191.823,483.228z" />
    <path id="honduras" data-name="Honduras" d="M194.408,488.742l7.987-0.303l2.369,2.817l-1.478-0.338l-2.844,0.121l-3.717,3.492l-1.59,3.536l-1.046-0.555l-0.009-3.872l-2.299-1.539L194.408,488.742L194.408,488.742z" />
    <path id="salvador" data-name="Salvador" d="M189.308,495.217l4.062,2.022l-0.061-3.207l-2.083-1.271L189.308,495.217L189.308,495.217z" />
    <path id="nicaragua" data-name="Nicaragua" d="M203.216,491.62l1.893,0.381l0.061,3.881l-2.204,6.293l-5.938-0.588l-1.323-3.034l1.764-3.682l3.345-3.112L203.216,491.62L203.216,491.62z" />
    <path id="costa-rica" data-name="Costa Rica" d="M202.905,502.745l1.202,2.352l0.977,1.297l-1.314,3.898l-2.507-1.764l-4.097-3.752v-2.48L202.905,502.745L202.905,502.745z" />
    <path id="panama" data-name="Panama" d="M205.68,506.748l-1.262,3.941l4.167,1.079l2.584,0.512l0.441-3.052l2.775-1.4l2.463,1.271l0.968,1.547l1.175-0.138l0.925-2.81l-3.078-1.271l-2.334-1.271l-2.333,1.59l-2.775,1.4l-2.835-1.141L205.68,506.748L205.68,506.748z" />
    <path id="cuba" data-name="Cuba" d="M205.904,469.846v1.1l4.599,0.086l2.169-1.263l0.337,0.926l4.512,1.098l4.011,3.622l-0.917,1.262l0.165,1.436l3.345,0.839l3.345-1.514l1.504-1.513l-2.169-1.098l-11.194-6.569l-3.924-0.424L205.904,469.846L205.904,469.846z" />
    <path id="haiti" data-name="Haïti" d="M231.845,477.159l2.974,0.311l-0.354,3.648l-0.294,1.919l-3.466-0.19l-0.614,0.926l-1.063-0.077l-0.38-1.997l3.656-0.304l-0.225-2.073l-1.677-0.691L231.845,477.159L231.845,477.159z" />
    <path id="republique-dominicaine" data-name="République dominicaine" d="M242.434,481.533l-4.573-2.991l-2.887-1.021l-0.578,5.521l0.578-0.047l0.761,1.461l0.994-1.15l2.896-0.77l2.516,0.536L242.434,481.533L242.434,481.533z" />
    <path id="jamaique" data-name="Jamaïque" d="M221.533,480.798l-3.008,0.761v0.84l1.755,1.011h1.841l1.167-1.349L221.533,480.798L221.533,480.798z" />
    <path id="bahamas" data-name="Bahamas" d="M222.121,463.112l-1.089-0.337l-0.086,2.101l1.34,1.349l0.917-1.349L222.121,463.112L222.121,463.112z M224.29,466.397l-1.504,0.838l1.417,2.021l0.752-1.011L224.29,466.397L224.29,466.397z M229.14,467.91l-1.591-0.087l0.165,1.012l1.167,1.687l1.002-1.099L229.14,467.91L229.14,467.91z M228.388,465.896l-2.593-1.099l-0.501-2.609l1.002-0.425l1.003,2.023l1.002,0.76L228.388,465.896L228.388,465.896z M225.881,460.588l-1.34-0.337l-0.251-1.686l-1.417-0.501l0.917-0.926l1.668,0.588l1.253,0.762L225.881,460.588L225.881,460.588z" />
</svg>
