<svg xmlns="http://www.w3.org/2000/svg" viewBox="174 490.07 156.47 210.45" role="img" aria-label="L'Amérique du Sud par pays">
    <path id="colombie" data-name="Colombie" d="M234.326,498.251l-1.781-0.182l-11.773,9.707l-1.245,3.414l-1.608,0.182l0.717,7.546l-4.105,10.07l4.46,3.776l5.714,0.363l3.924,5.757l5.705,0.183l-0.182,4.312h2.135l2.316-7.909l-2.144-2.694l0.536-5.031l4.46-0.363l-0.536-11.688l-9.993-3.232l-2.316-6.293L234.326,498.251L234.326,498.251z" />
    <path id="venezuela" data-name="Venezuela" d="M231.5,503.558l0.38,2.239l2.809,0.892l0.64-4.124l2.965-3.068l2.965,3.475l6.82,1.859l5.774-1.211l3.933,4.849l2.965,1.858l-3.25,4.953l1.089,3.752l-1.858,2.299l-1.928,1.616l-4.175-2.102l-0.959,0.969v2.99l3.052,1.452l-2.248,2.43l-2.248,2.43l-2.965-0.242l-2.982-3.275l-0.631-12.326l-10.183-3.476l-1.85-5.42L231.5,503.558L231.5,503.558z" />
    <path id="guyana" data-name="Guyana" d="M261.399,510.654l6.241,5.652l-2.481,2.87l-0.199,1.703l3.259,3.362l-0.078,3.232l-5.67,2.16l-3.397-4.59l0.726-5.515l-1.452-4.105L261.399,510.654L261.399,510.654z" />
    <path id="suriname" data-name="Suriname" d="M268.384,516.715l1.763,1.616l2.731-1.694l2.49,0.078l-0.32,0.968l-1.046,2.179l-0.164,5.421l-4.97,2.022l0.242-3.476l-3.207-2.991l0.164-1.538L268.384,516.715L268.384,516.715z" />
    <path id="equateur" data-name="Équateur" d="M213.986,529.43l-4.088,2.541l-0.294,3.771l-0.821,1.234l2.576,2.473l-1.115,1.219l0.259,3.113l4.607,1.098l6.976-8.256l-0.017-2.878l-3.345-0.216L213.986,529.43L213.986,529.43z M183.533,531.443l-0.536,2.378l-0.994,1.002l0.683,1.228l1.754-0.69l0.838-1.461l-0.536-1.537L183.533,531.443L183.533,531.443z" />
    <path id="perou" data-name="Pérou" d="M209.518,541.246l-1.677,1.695l0.113,2.703l14.643,26.694l15.205,9.802l2.351-3.941l0.562-8.669l-1.228-5.402l-4.141-6.984l-2.463,0.786l-1.115,1.236l-4.918-5.636l1.228-6.647l5.705-3.717l-0.449-3.492l-5.809-0.226l-3.017-5.064l-1.677-0.562l0.113,3.044l-7.486,8.895l-5.593-1.349L209.518,541.246L209.518,541.246z" />
    <path id="bresil" data-name="Brésil" d="M286.631,618.464l5.402-10.391l0.198-8.73l10.079-6.501h5.645l4.435-7.512l0.804-14.418l-1.815-3.855l10.684-9.751l0.406-10.761l-14.514-7.105l-17.53-5.48l-8.264-0.812l2.221-4.669l-0.604-7.104l-1.808-0.596l-2.671,5.308l-1.4,1.754l-3.595-1.59l-12.093,4.261l-4.028-5.073l0.648-5.299l-3.804,3.872l-4.201-2.265l-0.424,0.597l0.009,1.841l3.622,1.945l-5.437,5.73l-3.432-0.034l-3.475-3.535l-3.933,0.121l-0.484,4.2l2.256,2.739l-2.663,8.532l-3.112,0.241l-4.953,3.13l-1.21,6.146l4.296,4.599l0.787-0.89l3.017-0.812l2.576,4.34l7.374-3.164l2.861,0.165l1.971,6.976l10.52,3.337l1.815,5.564l4.478,0.537l2.135,5.314l-1.443,4.729l1.884,2.474l-0.276,3.683l5.048-0.477l4.625,5.844l-0.363,4.105l2.74,2.316l-6.57,9.95L286.631,618.464L286.631,618.464z" />
    <path id="bolivie" data-name="Bolivie" d="M238.631,561.361l7.114-3.104l2.351,0.226l1.565,6.534l10.839,3.604l1.79,5.523l4.469,0.562l1.902,4.729l-1.34,4.278l-7.27,0.562l-2.68,6.872l-5.705-0.112l-1.79-0.337l-3.293,3.197l-1.625-0.156l-5.593-12.957l1.547-2.316l0.545-9.163l-1.383-5.455L238.631,561.361L238.631,561.361z" />
    <path id="paraguay" data-name="Paraguay" d="M267.199,584.458l1.902,2.074l-0.225,4.392l5.48-0.338l4.141,5.299l-0.337,4.729l-2.681,4.054L270,604.893l-0.225-2.256l1.564-3.718l-5.368-3.38h-4.469l-3.354-3.604l2.438-6.968L267.199,584.458L267.199,584.458z" />
    <path id="chili" data-name="Chili" d="M261.391,683.51l-3.691,8.109l6.371,0.674l0.112-5.403L261.391,683.51L261.391,683.51z M260.137,682.239l-2.775,3.068l-0.337,3.604l-5.368-3.043l-5.705-8.221l-1.677-2.932l2.351-3.043l-0.225-3.83l-2.68-1.124l-2.126-1.572l0.449-2.144l2.792-0.787l0.562-12.387l-4.356-2.48l-2.844-64.477l0.735-1.278l5.567,12.836l1.781,0.035l0.579,2.049l-2.369,2.868l-2.723,15.448l3.873,11.895l-1.79,9.007l6.31,26.485l0.666,15.49l4.521,5.229L260.137,682.239L260.137,682.239z M241.717,649.833l-1.115,1.686l0.562,2.932l1.115,0.112l0.562-3.718L241.717,649.833L241.717,649.833z" />
    <path id="argentine" data-name="Argentine" d="M279.05,600.613l1.677,1.571l-6.371,9.467l-2.239,2.479l0.777,10.813l4.918,5.974l-4.132,7.209l-3.129,1.35h-3.579l1.003,5.627l-5.593,1.92l1.34,4.729l-3.354,10.701l4.141,3.38l-2.239,5.515l-3.804,5.975l2.014,4.165l-4.918,0.786l-4.028-4.951l-0.674-15.432l-6.258-26.209l1.893-9.163l-4.028-11.713l2.68-15.204l2.463-2.931l-0.605-2.222l3.164-2.888l7.054,0.483l3.942,4.21l4.555,0.078l4.668,2.853l-1.375,3.217l0.329,3.25l6.612-0.312L279.05,600.613L279.05,600.613z M264.745,687.564l0.225,4.951l3.803-0.337l3.242-2.144l-5.48-1.124L264.745,687.564L264.745,687.564z" />
    <path id="uruguay" data-name="Uruguay" d="M274.633,612.481l-1.773,1.894l0.735,10.183l5.566,1.615l7.08-7.097L274.633,612.481L274.633,612.481z" />
</svg>
